<mxfile host="Electron" agent="Mozilla/5.0 (Windows NT 10.0; Win64; x64) AppleWebKit/537.36 (KHTML, like Gecko) draw.io/25.0.1 Chrome/128.0.6613.186 Electron/32.2.6 Safari/537.36" version="25.0.1">
  <diagram id="hawUnBlDMA_ov4xNBKYL" name="overview">
    <mxGraphModel dx="1593" dy="1012" grid="1" gridSize="10" guides="1" tooltips="1" connect="1" arrows="1" fold="1" page="1" pageScale="1" pageWidth="827" pageHeight="1169" math="0" shadow="0">
      <root>
        <mxCell id="0" />
        <mxCell id="1" parent="0" />
        <mxCell id="bKI6WgCUOqGUG0Ctr6Rf-4" value="" style="shape=image;verticalLabelPosition=bottom;labelBackgroundColor=default;verticalAlign=top;aspect=fixed;imageAspect=0;image=data:image/png,iVBORw0KGgoAAAANSUhEUgAAAosAAAJiCAYAAACvoYhdAAAAAXNSR0IArs4c6QAAAARnQU1BAACxjwv8YQUAAAAJcEhZcwAADsMAAA7DAcdvqGQAAP+lSURBVHhe7J0FYFXVH8e/L9c91mOju7sRg1DaBAuxuwNbbAELFQtb/xaCUiZKd3dtbGyw7nz1//3OvfftvW2PHGPo+ehlt9+5J37ne1rXrkNnByQSiUQikUgkklrQq38lEolEIpFIJJIaSLEokUgkEolEIvGIFIsSiUQikUgkEo9IsSiRSCQSiUQi8YgUixKJRCKRSCQSj0ixKJFIJBKJRCLxiBSLEolEIpFIJBKPSLEokUgkEolEIvGIFIsSiUQikUgkEo9IsSiRSCQSiUQi8YgUixKJRCKRSCQSj0ixKJFIJBKJRCLxiBSLEolEIpFIJBKPSLEokUgkEolEIvGIFIsSiUQikUgkEo9IsSiRSCQSiUQi8YgUixKJRCKRSCQSj5wxsdgovBG8vb3VI4lEIpFIJBLJuYghIjLqGXW/zkhs0gTPPPMcOnfuijVrVsFqtapXJP8V2rZth9DQMOTm5qhnGjZBwUEYPmwE+vTuB18fX6QeTlWvKHTu0hUXXXQRWrZsheycLJSUlKhXGh5msxk2m009kkgkEonk9KhzsRgVGYUpU57Alq1b0KhRIxKMXbBm7WrYbXb1DsmJ0KZNWwwcOFD81bbWrdugqKiQtiL1robJZZddjkmTJqNfv/7o0rUrDpPwys3NVa82PBo1isDzL7yEMBK3FRXlGDpsOKJjYrBhw3pxnb/n6onXIC8vH40bN8a4sZdi+/ZtdJwnrjckwsJC8fDDD5LbN9G3VKhnJRKJRCI5depULIYEh2DKE08iOTkJM99+Gxs2rsfFIy5Bq5atsZYEo8PhUO+UHIsePXri/vsfgLePLyJIyESSAOctISERw4ePwDYSKvn5+erdDY/rr5+EefN+wqeffoKExCa4+uprERkRhQMHD6C8vEy9q+Ew8eqrYam0YOrzz1LBZg02b9mMSfQNmzZvEtfvvfc+zJgxDb/8Mg///PM3YqJj0a17Dyxfvkxcb0h07NiRChWtkZqSgsysLPWsRCKRSCSnTp2JRT8/Pzw65XEUFhRQxjoDNpsVZWVl2LJ5M8aMHYf4uHghHhsSJrMJt9x0Ky66aCgGDBgotvbt2mPL1s1ntSb08suvxKGUQ/ji889F7Za2rSUh0ygiAmNGjxU1t4WFBeoTDYvhIy7Gtq3bsGfPbqxfvw7bt29H//79MX78pdDp9DiYdKBB1TSPGjkamzZtwt69e8Qxx+HBg85DSmoKjEYjxYsBeP/99+mKUtjheNO3Xz8sWrRQHDckBg0cIOJIbl4uDhw4qJ6VSCQSieTUqZMBLiaTCfff/yCiIqKwbt069O7VG76+vvD390fz5i2wetUq9COxcPXEa9UnGgbjx1+GNm3bYvfuXc6Nj/n82cTXzxclxcXqURVcM/v9d9/jwP79eOnFl/HFF1/X2D788GNMnnyTCJOGwr59e/H000/i888/xYUXXIRXXpmGnj17qlfPPqmpqejSpQsMBoM4btasOYJDQuh8CtLSDsNud6Bb9+7iml6vF7WKqSnufRobAjqdDk2aNhHN47GxcerZKiIjI8U9EolEIpGcDLp2HTqfdtswj3x+6KFHYDSbxL7dbsfUqc+KzPfxx5+gO3TIzslGXm6uOH+2aNGiJW695XboDEqGGR4WhhnTp4lmR43OnTrj/gceJPcqAzMcNgdmvf+uEDz1xZTHn8RhEjC//fabesYdFiyN4xvDYFTEjSs+JNJHjxqN33//DT//PFc9W7/MeP1N/PTjj1i2fKl6pgofHx+MIvcNGzYC+/fvI4H7GVJSUtSrZ4eQkFA8+9xUWCosSD+ShnZt2+OfpUvw2WefiuuXXDJK9FvkGtLQsFCE0v3Pv/CcaOptSMTGxuLWW2/BggULccEF5+OFF150dv3ggtsjjzyML7/6Cnt2KzWoEolEIpGcCHXSDF1aWoolf/+FxIRE0QT25pszsGvXTuSQQEw5dAjdu3fH2rVr8fbbb9HdZ6/fYru27dClW1d8/+232L1rF/7843ds3bZVvapwNOMo9u3di+SkZHEP3598MIkEzSH1jjPPgIGDUFhYiAMHDqhn3GEBkF+QL2qQqm+ZmZkkDPyQmJiIFSuWq0/ULzxAhP2uNj/jkfE7dmzHqtUr0Lp1W0yceDWJtRDs37cflZWV6l31C/ejXLr0H1isFtqsWDD/F/z662L1KkTzNMdnX18fETe4L2YGxRNXunbtiti4eKSnp6ln6p/OnTsjICAAS5YswcCBA7BlyxbRFYRp1aoV2rdvL/x/967d4pxEIpFIJCdCnTRDc5Mz1yy2adcOLzz/nMikNDZs3ICXXnoRvXr1xt333AuTyaxeOTuUl5eLGi/etpNoYbg2tHuPnoiJiRHHfF67h+8/1+BpUwxGo3rUMMnMyMQbr0/HK6+8hBYtW2Ha9NfRq3cf9Wr9EhoaKmqUS0tKkZZ6mARXIAb0H+i28UCjtMNpKCgsgFFtrma4L+6jjz6O++57UMSjs0mzpk1x8OBBUWgoLS1zxmemadMmQozz4BfZFC2RSCSSk+G0xWJYWBiefOoZBAQG4tlnnkLyoWT1ShXchPvc1GeQkJBAGetjokmsoTBo8GC8Nm0GJt9wI15++bWz3l/xv8aOHTvw+JRHsXjxItx80y3w8vJSr9QPoRR/OdyvmnA1xo4ff9ztiiuuEn0uW7ZsiUnXTxZT7lgslcjKrv+Rx8EhwQgJVjYWvAmJCTiwXxnUkp6WJpqlNZo2bYbly1fAx9sb7dq2dT7Hm0QikUgkx+K0xeK99z2AuNg4UcPyxhtvi0EWN918i3oVYp/PvUoZLNe88KTGN06+Sb16duH+c9ddM0kMvLjttpvx6qsvi/50rpmspL5wQEf/1TfNmzUTNbF33nkb7r/vnuNud991B8rKS/HII1PQqnVrvPbaK5g+/TWUFNUckHQm6devHx584AE88KCy3X//faKJOflQkrielp5G6VKJx0FBQWL+RRbmO3fsxJVXXel8jjcZ3yUSiURyLE5bLL478228+OLz+OD9WaJ/VFZmBhYtWKBeBRYvXIjcnBwxmfTMt98U937x5efq1bNLZESkmAZl1aqV4pgnWi4pKZaZZz3SjrsuvPiyGPDy7qx36n8iaZ3+pFc78fHxE3OJTpnyiIgzZ4PVq1dj+rTp7tv0GSgvV/wvLS0N0THRosm5adOmYsUZ7s/67XffuT3z0ksvi3slEolEIvHEaYvFI0ePwOGw46oJE5CUdBBPPf0kDqcdVq9CLJv29DNPIjs7G1dccaUYmJGjjjQ+26QfSReDc0aMuEQ0f3KTtK+vH5KS628wy3+ViMgIUSv9yCOPYd/ePXjwgfuwft1a9WrDp6CgQIz6P1uwwM3Lz3fbXPvXpqWlizgdHh6Ops2Uvow8MIo312ca8rKFEolEImkYnLZYHHL++aKD/6pVq8VgheJa5gfk1Uaef/45HEol4fjUs2Ld4IYAd/ifNes9MSn3Rx99guuuVZqkuXZUcmbgpn8uNLzy8jT4+friiSemYPbsj1FU3LCXMDzXYDHLaTE2LgZNmzQhsag0T0skEolEcrKclljkTJ87+fNaxd4+Xph8402ijyJPwK3B+3zuuusnobysTEwW/fDDj6Jzl67qHWeXTZs24J577sRTTz0h+q399def6hVJXcLNoQMHDsJrr84Qo57fe28mXnhh6lmfY/HfDA9y6dihk+izyDWLEolEIpGcCqclFnOyc7B02T/Yuq1qqpyExokYNHCwesTLjw0W5xi7w47Va1ZhxcrlKD1LzV9+vn4YN2682zZixMViBY9hw4bXuMb31zc8hYvfaYwY52f5HQ0Fngz92Wen4tprr8fvf/yGRx55UMy7ea5is1nQvn0H0W2BJ0hvqBxOSye/by5qGRtK1w+JRCKRnHvUyQourrDAat26jRjIwkyZ8oRYRm/OnB/F8dkkvnFjTJxwDWXwJz7qlpd6++rrL+p1tY4ePXrizjvvQvKhFNhPcvCF3mBAYkJjzJz5NtadpT6APLXMH3/8jg0b1uHyK65C3z59sXLFCnz73f+Ql5er3tUw6NKlG26//Q48+9wzqFAnsD4WPCBqypQnRT/LdiQYedDIV199gQlXTcTKVSuxaFHV4K6zTavWrXDN1VeLda9//HGOelYikUgkkpPjPyUWzyXatGlLWxv16OTYtWuXWHHkbMFzVV588SViucek5CR8+cVn2L9/v3q1YcGDQB59dIpYw/xE4YLDiy89L5ZbvPyyK9G//wAxcOTbb//XoMSif4A/Hn3kESEUWTBKJBKJRHIq1LlYHDVqDMaMHov8wnxxHBwYjLnzfjpr6xRLzg7aICYWrdr6xA0ZXrXF+wQmBK+0VIpmXVcSE5tg4sRrsHHjhgYlFpkePXpg69at9T8lkUQikUj+NdS5WOTVWTp17gy92h3STv9t2by51lHSEsm/iQD/ADmqWyKRSCT/OupcLEokEolEIpFI/j003KGcEolEIpFIJJKzjhSLEolEIpFIJBKPSLEokUgkEolEIvGIFIsSiUQikUgkEo9IsSiRSCQSiUQi8YgUixKJRCKRSCQSj0ixKJFIJBKJRCLxiBSLEolEIpFIJBKPSLEokUgkEolEIvGIFIsSiUQikUgkEo9IsSiRSCQSiUQi8YgUixKJRCKRSCQSj+jadejsUPfPKfSBLWFuey/9bUVfYVDPNgAcNtgL96By5xv0d696UiKRSCQSieTc5JytWfTq9DT0QW0bllBkyD3sLnafRCKRSCQSybmObIaWSCQSiUQikXhE1zih6TnZDG0KaYOAro/CGNwWOn3DqV102G2w5u9E0caXYcnbpZ6VSCQSiUQiOTc5Z/ssSiQSiUQikUjOPLIZWiKRSCQSiUTiESkWJRKJRCKRSCQekWJRIpFIJBKJROIRKRYlEolEIpFIJB6RYlEikUgkEolE4hEpFiUSiUQikUgkHpFiUSKRSCQSiUTiESkWJRKJRCKRSCQekWJRIpFIJBKJROIRKRYlEolEIpFIJB6RYlEikUgkEolE4hEpFiUSiUQikUgkHpFiUSKRSCQSiUTiESkWJRKJRCKRSCQekWJRIpFIJBKJROIRKRYlEolEIpFIJB6RYlEikUgkEolE4hEpFiUSiUQikUgkHpFiUSKRSCQSiUTiESkWJRKJRCKRSCQekWJRIpFIJBKJROIRKRYlEolEIpFIJB6RYlEikfwn8PLyQpPERHTr2hUdO3RAbGwsjEajuDZs6FDnvkQikUjc0bXr0Nmh7kv+w3SlDHTAwMHw8/VVz7hjtVqRlJSE+fN/QVlZqXpW8l/Dx8cHnTt3QZs2bRAaEirO5eblYteuXdi8eRPFjTJxriHRgYRhr149ERoagoCAQFRUVEKnA0wmIwoKCpGTm4vYmBhs274dP8/7WX1KIpFIJBoNVix27doF5w0Zoh4BlRUV+Oab/yE7O1s90zCIjIxEv3791aPjU1BQgCVL/oLdblfPnH1CgkPc/Lo2DAYjunXrDgf999RTj8NSaVGv1C9RkVHo3KUrfH191DMnRmlpGTZv2oijGUfVM/XHmLFjEEbCqqyiDEePVP1+cVEx1q5bpx4p9OzRA/4B/uoRfW90FHy8fJBDgmzuT3PVs/WPXq/HiBGXYOTIUbSvw969+5FLIosJDQ1Fy5bNKU478MsvP2PhwvkNIn6zP1515RWIjo5BVlYWDqelYTsJwvzcPOgNeoSFhQshyW738/NHUWExPvn0M2Rm1n8ckUgkkoZMgxCLPXr2QHxcvHpEGZNOj+DQIOiqtZJbSaAUFBWqRwrr1q5D6uFU9aj+GTt2HIYNG4FDh5LFcUJCIkpKS5BNmZMr4Y0awc/XT+yv37AOH3/0YYPIUDkjDQ4OVo9qYrFYkJZ2WNQYca3S9Blv4PPPPsXq1avUO+qPZk2b4fEnnhSCq7ikWD17YviTGGDh9cLzU3Hg4AH1bP3wxJOPw9vLWz2q4siRI3jnnXfVI4U77ridwiRaPaqivKIcz099QT2qX3x9fXH33fcjMbExFi1ajPXr18Fms6lXFQwGA7p374Hhw4chOTkFb701gwT62auBDgsLwzXXXgOz0Yhly5dTfF0Dh6OmqRtChaQ+fXqDdC7hQFFBId55991a75VIJJL/Kg1CLF5++eXo2LGDenRyfPvtd9i2bZt6VP+MGzcerVu3wYsvPi+Op0x5Art378KcOT+KYw3tvq+/+QqPPjIFGzauP6uCkWuK7rzzbvTo0VM945mSkhK8+ebr2LVrJx5//Cns3LkdP/00R71af9x2+x2ihnPm22+qZ06OO++6h0SOFe+9+456pn44l8Uix5OHH55C4isUH3/8EfLz89UrtcMFj8mTb0ROTi5effXFsxK/vb29cNONN8LsZcYXX3yJzEz3gpsrAQEBMJLQdSW/oECKRYlEInGhwQ5w4T5yK1auxNdff4M5P83Frt271SvnNslJSXj5lRfRvVsPDD7vPPVs/dO9e3e0b98ejz76EK65ZoLHbdKka7Fq9Upce9314jm73QYdd/g6C3BzeXraYfXo5OFn+R31zZH0I+JvclIynnjiSedWXSgyfM71Hn6G0d5R33DTc0JC/AkJRYbv4Xv5GX72bDBi+HAEBgVh7tyfjykUmaKiIuSRm103Fopms1m9QyKRSCQNUixWVlZi1vvvY9HCRdi5cyc2btiAr778CosXL1bvaLhwRtN/wEBRw+i68TmttoIFIzdbBwd5bv4908TGxpEbUpCWlqaeqR0W7evWrkVMdIx6puEw7bXX8fTTzzr9+NZbblevSOoC7nbAfRR//fVXd6FIhQWvmPPg2/5+sfG+GDGiwvfyM/wsv6M+8fb2RrPmzcVgrAMHlO4GJpMJQ4acd8zN1Z3jx4/DrbfdetYKRRKJRNLQaJBi8e+//xH90sIbheOKKy7HxRePECX95ctXICUlRb2rYfLLz/OwfNlS0RTtuvE5vtZQ4IzQ4ahqImzfrr1oKtc2zuh5qhGGRS43RzY0IqMiRVOu05/37FKvSOqCjp06i3iyznUQDh37d3oE3i0nobi0VGy8z+dcBSM/w8/yO+qTrmLwky/ZipXqGW5KN6BJkybH3Ewu0+akp6cjJCQYCQmN1TMSiUTy36ZBisX9+/eLv5eNv1SMVuzTpw8GDRoozu3fX7+DE06W7Tu2i/6KtW18raES3zhB9KnUNp4axden9ml0GhLLSIRr/vv330vUswoscHm0+tmGBS3XdB05evJNyfyMeJbeUd+0bd0W+/ftcxvM4hU9GIbgttiz+FEcXveh2Hifz/E1DX6Gn+V31CdxjePEjAOpqVWFyoqKcnz88exjboVFRerdwI4dO2GptKJ582bqGYlEIvlv02D7LDIml35DXLNoDDapR5K6ZtGiBWKQjra9+uoryMvPU6+emzRt2hQvvfiqenT2WLhwkRAkCxYsVM+cOPwMP8vvqG9Cw0LEHIquGEI7IS9lFSpLMtQzEPt8jq+5ws/yO+oTL7ITlRWVzi4fDM8d+vzzU4+58QAeDe7HWFFZgeCg+u/fKpFIJA2RBikWmzdvLv7OnTdXTIvDg1v++WcpQgaFo6BtMQpt7tPnSE6fyZNvwhdffO3cZs/+DBGREerVhgnP9WixVKpHNTGZzFTgkAWM/xI2u11M4+NKWXmFWy1ibRtPzq3h5WUW76g4RtySSCSS/xINUiwOHjxIzImXcigF78/6QAxuKS4uRkhoCLINufg2dy7WlKxHpePsTAztidtuvd1tUEttG9/TEOFmXNeaxRdfnIrsrIY1AXp1HpvyMA4ePKgeNVxGjBhOYvwG0ff2ZOF5C5VnL1bP1B+5OXnOVVo0bLlbENK4D8x+Vc37vM/n+Jor/Cy/oz7hWkFfPz+3Sdv1Bp2Y0udYm6vAjIqKho+3D46epRHoEolE0tBokGKRm5xvveUWkVG2bdtGrOU68eqJCA8LAzcu8Soi20p345vcH1AZbQUayKDFvv36Iys7y21gi+vG1/iehggvd8b9FKu2tmIUaW0UF1f17zqbZGRk1JjHb/Dg85yDdAYMUPq5nm143kQeRBFNIuRkYeHCz8bEnPyzp8vO3TvRvEULNyFVceRv2PJ3otWwlxHX4yax8T6f42sa/Aw/y++oTzZv3Ez2w4RePavmDzUZzRhy/pBjbj4+VfNg9uzVE6WlJWL5P4lEIpE04D6LvKh/v379MGHCBIwdNxZtWrdWryjYYUOFvRLlbSyIntAYXtE1Jz0+Gyxftsw54KL6xtcaKic6wIUHC6xfv149ani0blX1DSzSMo5W9a2TnBxbt2wWff969OihniHouHjLKyjf+wn8fX3Fxvt8jq9p8DP8LL+jPuFuK5lZmWjfsaNzrkRey3z6tOnH3PLzC8S9ISEhaJKQgPQjR1BeXi7OSSQSyX+dBiEWk5KTsHHjpuNuriMWNTh7MoWZEXlZHMKHRyknJSfNiQ5w+WT2bOeawA2RWe+/6/yGZ599Gg8+dJ96RXKy8BKPvNbz0KFDRVOtExKBFelLULp9hth431Uo8r38DD/L76hv/vj9T7HUoE53cuaNa9KvuPJy2B12zP9lgXpWIpFIJA1CLPL6znPmzDnulpWZqT5RDW6Gps23pb9yLDkuebl5iIyIPKEBILExsU7heDZHSPNvx8TGqUcnDz97NtwfrTYhJzZJdBuBy0v7Vef2229zu6dZs6bifFTk2SkILVw4H4cOpYol/NwEowf4Hr6Xn+FnzwY8GffHH30spk6KozDnZnxeV7xv375iZHRtBAYG4obJk0Q/y19//R0FBcdfrUYikUj+KzSItaFPlMixMfBqXNPYO2wOOCx25C3NRsmu+u1PN3bsOAwbNkKsyML9/A4dOiT6O9WGr68fEhISxBrLCQmJWLx44VlZY5nx8fHFC8+/AL3BiMxMz0213B2gWbPm+Oqrz/Hbb7+pZ88OnOE//sSTYsL24pJi9eyJ4e/nLwZNvUAC7MDB+p2r82TWhmaxGBNTc7WcivIKTH1eWX+8vuFJru+++34kJjbGokWLsX79Ore5Fxnuo9i9ew/Rzzg5OQVvvTVD1O6dTeLj43HNtdfAV12dJYMKmzPfnimaxzUCA4MwYEB/Srut4KAS559//IHNm90H6kgkEsl/nXNbLNrJ6TodCjfko2BtrhCM9Q1P+tzvFAetrFixXAzSOFuwYOQJz49VY8TL/e3Zs4e2hrE2N9ewdRardJzcMnKlpWXYvGkjjmYcVc/UH2PGjkFYSCjKKsqE0NUoLirGWtfVUQju6xcQUFVDHh0VBW9vH+Tl5mLO3Lnq2fqHa+l4rWde2Uev12Hv3v3O7gihoaFo2bI57JQeuemZaxSrDzw6W4wcNRI9yU95NRmeUYHXfuZ5GLkxgpcGDAkNBrv0cArXhC5ETk7D7WIhkUgkZ4tzUyyKmgEdyg6VIO/vbFgLGtYUOhLJvxVeQ7lz5y5iAJQ2rQ5Pvr1r1y5s3rzprPRRPBa81N8tt9wkxGtKaqqYfNvL5CVmVKioqEB6Who2bd7sHOAikUgkkpqck2LRmm9B7pJMlKc0rIxJIpE0PHhUPA9eaejrykskEklD5ZwSixKJRCKRSCSS+qXBzrMokUgkEolEIjn7SLEokUgkEolEIvGIFIsSiUQikUgkEo9IsSiRSCQSiUQi8YgUixKJRCKRSCQSj0ixKJFIJBKJRCLxiBSLEolEIpFIJBKPSLEokUgkEolEIvGIFIsSiUQikUgkEo9IsSiRSCQSiUQi8YgUixKJRCKRSCQSj0ixKJFIJBKJRCLxiBSLEolEIpFIJBKPSLEokUgkEolEIvGIFIsSiUQikUgkEo9IsSiRSCQSiUQi8YiuXYfODnX/mBQVFqp7EolEIpFIJJJznYDAQHXv2JyUWDzRl0okEolEIpFIGi4no+tkM7REIpFIJBKJxCNSLEokEolEIpFIPCLFokQikUgkEonEI1IsSiQSiUQikUg8IsWiRCKRSCQSicQjUixKJBKJRCKRSDwixaJEIpFIJBKJxCNSLEokEolEIpFIPCLFokQikUgkEonEI1IsSiQSiUQikUg8IsWiRCKRSCQSicQjUixKJBKJRCKRSDwixaJEIpFIJBKJxCNSLEokEolEIpFIPKJr16GzQ90/JkWFhRh7+2Pq0b8TK0yYGXI9cEI+IpFIqvNS0VQcsUSqR2cOnY43+ucsYoBN3TtzOKCD/d9YpqewO7uh99/E4Wg4mdvZTr//RTj8//jyHfVI0XUBgYHq0bGRYtEFKRYlkhPE1c67pJep+c+idccBsDvOYEZAr87JK8Te1Ez1RP1jdljwZdBVJOPs6pm6h4VimDUX55f+Jfb/TRQX5qO0qFA9kpwJNDEmkieJBBYK0Y2bwG4/c3H2RGG3HU1NloLxDOIMf7WAoNPpEREbj9+/mCmOmTMmFofc+RJ2e7VSz9QtXM7sU7aKyuoG9Uz9o4nFTFskniyYfkYzAonkXIQNTlFBHgrzcigTcsBgMCAotBEmhi/AhV7zhVjs2msojCaz+kTdw0YwKTUNu5KPiGOzyYC4iFCxfyY5nJmLSotSm2h2VOKD4JtQqTOJ4zMBG+YESyouKV6AJX6DlZNnDB2ireloXnlAPT6zFOXlIii8ERwNQLj82+A0WkDps6ggl49gMBoQEhYhxHloRFSDEYslhQXwCwxSz0jqCtaGuVlHUV5Wwh4NE9ni8MhoZKUfRmRcQv2Ixd53v4n5/pcoJZU6xhvlmJz3CSxn0PgeD00sZtkiMLXwJSkWJZJqVJSXIzsjDVFkdAwGE46mJcNSWYmbW2zAUP8/hVjs0vOiMy4Wkw+nO8Win7cXBnRrJ86fKbh0vmzDDpSUV4hjTSyeSXvFdrYxicVRxb/gnZDblZNnCP6tdpU70a90pXLiDFOUn4vA0HApFs8A5SUlyM3JoDSaCL1ejyOHk2GzWuHj7YtGMXENRixy7bJfgBSLdQn7a35uNirLyxARE4/KygpkHU0TgtFhs52WWDylzjBskut6OyMKVCKR1CnFhXlk4ANJKBpxJDUJXl6+tPmgoqxUvcMzbMiMJpNz41pJjerXxGY8USGmNLGd6c2jkXIzZNXwdN4TbJG9lF2J5KShdFRQkIPA4FCRptJTkuDnHyTSksWiFHQk/144zNlGh0VEo6y0BJnpqWgUGQsrFej52ulgiIiMekbdPyaVFRWI6zUce80t1TMnyAm6zwgrupZvhl139pqh7TBghM9clDr8sLTiAnL6mVKwOuiNpPRLM7Fn3UpUhjVF4ElVUOhgoJKCreAwdqxZA0S3gJ+hplsNZiOy9m3A3u1bcTg5GcUVOoRGR0Jnd++Yr6OM35aXhL1bNyJ5325kZxXAOzQSvib9CfiADjprEZK3rcPB3TtwJO0obKZgBAX5Ut7q/rTBbELewc3Ys30LDicdRFGpndwTDX1191Bp2F54WHXPLmRl5sIcGAE/b8MJuUfvKMehHWtxYNd2KlWnw6IPRHCIfy3uMaPw0Fbs2bYFqQcPoKCoEiEx0TA4qpW8deQPpRnYv3U9kvfuQubRbOj9whHgazox9+isSN1J7tm5DempaaiEL0LCqURdrYSvJ4FUkr4Te7ZuRsqBfcgrKENwVAyljeq/QomqIhcHyM+T9uxExpFMUIAh0P/Mq4zy0lLYbFYU5OfAx9ePjFIkCgvy0ME/Ca18U7G0/DxExzaD3kUIahxJO4znHrsfi+bNweJf5mDtqhWUiRmR0KQZ9u7eiecevQ+/zZ+HRT/Tddr+XDwfl4y9HFarVX2DAhu9/MIiZOcXi2Oz0YDG0RG1GkMThbGPj4+o/TwWJ2JIU45kwWJV4ioPbtng3U3YK9vGH2Fb9iEcuSnQN+vGhkQEkW3PX7D99TYc+enQJ3Y5oQKxdc1XKH+6E0xDH6YfMSHIXohWlXuxzqeHeseZI8KWJWoy6wOu+fDyqWkjTgQd+UvB4R3Yv53TyX5kZ+dC7xOKAD+yqdVepycblrFnPfbt2IbDhw6htNKE0KhGFEYnMjiJ0q7ejsMi7W6ntJuKCocPQhuF1Jp2S4/sJluySUm7+aUIjIyGSXfy33daUDwuKykScS0vJwv+gUEIDg2n9JpLX6NDQHCIWvA5u3B6q6woh9nLWz1z4hh0NhzZu4nsO4VpUhLZyRL4h0fCi0yO+5fRF9tLcWj7WjVvOgKrofa8oHbYzuaRnV1fZWe9yM4GkJ2t9viJ5rVnGvZX7iZkoPiYl51JcTWK0pmPck5vEM3+B7euVe9WdJ2X14nlG6fUDH1c2O5WlMJRXkgW0wYdZfSkjvhLlOu14EUZ/OT8/0AzNAkRS1kudvz5PyxdvoXinB59HpyF3hE62E8kJBw2WEoysWHBF1izcR+dMGPIkx+ho3+FW/ylpIj1Hz2K5fvIcLjg1Xgobrj9Upi1oOD+Lft+xacffqeeUNE1wvinXkK8r6N6unCBEqMlHf978SkcrVax1P3qpzGgY5zzm3Tku1u/egp/bc1STqjoGg3AzQ9cD2+d6tfkntK0Vfj4zY+q+X4gRk55Fc2CSTAew5/09mz89NJjSK7Wd77tqAcwtH9rFz+2Y+9PL2PR6iT1WCWwO26ccjv8yCAJyD2W3G2Y/eobKHdzkDeGPvAq2kT6HNs9KMCiVx/E7hz1hEri4FswZkR3t2eTf3sb8/7cqh6p+LTH9U8+gCCDJpgonpQewBcvvoR8i3pKYMDA215CtyYhJxaPThGL1YKMw4fg5e1NJdY4FBfnoyA3RzRDX+j7+zGboZP278Pt11+JLt17IjI6hsTicuRmZ+PDb+YgOzMDj91zG3r1H4iwsHCRofE77n3kSdGU4gobRPdmaDP6d629GXr2rLfx/Zef4uclq2EiA1obLCSzMo8ivFEkZV61G052z/KN3AytiE7XZujKb+6E9W9lhKHv+6rn0+eXT+0L+8FVMHQZB6+7fqQfovOuTnQNJ/W8dfWXqJx9DXzfLoHD7Cuboauh0+twaNHz+OmvZPWMhh49Jr+E/q3DSMcpHqvXlWPluw9iTbJ7/AloNQbXTbqYRId6wgN6FOH36Q9ge6Z7gorrdwPGj+7jEn46pP49C3MWrVePVbxa49qnH0GIM+3WD5xeMtNTqDDnL8RCYUGu6B/o7e2D8KjYc7oZmsX73+89gE0HlYJiFaG4+LGX0Ty4KlB1tkz8+OLjSK12a8dLH8P5vZpW1/vVIDtbdhBfvPBiNTurw4BbXkL3ZhTP1PDX6Siv/fARymvdf4jz2sm3X1avBQYhFovykZ+dJfqp+vj5ITsjXdhSKwnDem+GPh72g2tRen8Yyh6KJuP3GSo+vAqW317l6sP/NPaKQsx750l8+PwU/COEInMci+WCNT8Z/5vxBN5//ilVKHpAZ0TGxu9rCEWmIuVX/LM1E0Y15L2sezG3ulBkHFn4+c0ZKLN5jiJ6Ryl+ffPlGkKRWf/la9hTqJYayT2F+xZgSTWhyDiyluGPlXur3GNPwdy3qgtFphDzZ7yIgkrPkYgF6T/vT6shFJmdP7+NrTlmxbd1BliPLsHv1YUiU7geixevdrrHbD+KudOrC0WmHL/OeB6Z5cfum7fuq7dqCEUm+e+Psf6ogRI3HZAg1RWsxKLqQpEp244FPyxyZmxG5OOX116pZsAYG5a+9wJSSs9s7aLJaEJkTLzIcA4n70NZSQmiYhNqrUn0xMVjLsP9U57Bh1/PEcd/LlpAmYDy/BVXT6Jrz+K+x57BXQ8+VkMonixcc8mw97FYZJHLf33JiHKtI4vAw6mHMPnKsUg6sO+kvsMN1f22jT+Iv47sDCEUdd5siNWUTlGl8oeHUf5CD1R+fQedVgskpGErv7gZFdPOgyN9p3JOUgskMA4sqUUoMnas+/hJJOWqCYVszqGlX9YQikzRnp+xjDJ2LY3Xjg6bf3inhlBkDq/4HGvTuMWADijtGopWY2F1ochU7Mb8r39S7qtHzGYvNIqKg8VSibRD+0UTJKdRHvhyTkP+eHjhK7UIRSYXv3/4JtSKf+ioMPfnzFdqCEVm6w+vY0fese2kkQr582u1sw4se/9FHCpRn6d4lklpvrpQZCpSfsPfWzOOE8/qFrZn/v5BCAmPQEFeNo6kJJHN80Vo+OlPZ3ZGPsMy/xkYWg2B+bpP4CgrgGnk07AufoX99T+Nw1opqrItJMBC45qddCSylRUiIzObZIEXwmIaK0KjFgyUKe38+2/lILANrnzmI9z/ApW6onzFqZ3zFqLcrNSypPw9n+SHQpfLpuCB1z/G6AvbiGNLwQGkFxQpAqsGOpTnp2N/rqIUg9qMxx3TPsfkWyeoZYJSbPpjhdgzmHXY9et8Jcv0S8D4x2fhgZeno0NigLh+4NffUEoZN3Nk3RJkqfa59Yj7cP/rn+Cykd3FsaPiMJLTjnpwD4npinzsTVeUmU/Ti3Hra5/j1ntvho/wqEqs+/lP2GlfbyL3/PItSUvCOxKjHpqJB197Cz1ah4h3H17xD4rUWqjsXeuQrhqMhEG34L4Zn2HC5YOUE45M7Nt9wKN7SOlh9/4UsWeKHYKbXvkMdzxyHwLNLCysWPPDQtj0etIZOuyZ9zW5kG8MwrB7ZuCh6e9iYOcIPoOsLauRL0SMDoWpu5FcqijXyB7X4p4Zn+O6ay9W3VCA7Wu3HsM9dYOJMiPuPN+4WStERMfDoAqyEyXjaDoO7NuL+XO+F8edu/cgI6d804p//sLPP/yPtm+QcihJlJTrik/efwd3TpqA5x57EMP6dsULTzwkmmAevftWcf3JB+/ChjWnVrOm8wuDLrwprBvomyhdWxY+D318F9IwVblN2bO9YP3rLejCEmBd+gHKpw/hCmFUvDUW1mUfUqQNovPvqXdLakAZSPreTeqBCb1veAUPvvEprhgzQD1XieR9SnrUm+zYuWqNOKsL7Yyrn/sY9z43FfGhnMnbseWH+ajwUNMs0FVg9y5lZLgxeiAmv/Qp7pryMEJ9OK5bsfq7+bAaqJBHSnDPz19T0ZFv9MMFd0yjtDsL53WL4jPIJfuRx4VBcVR/eHn7IDq+CRo3bYXwyJhTLwQ1IHT2MqzfeFTs600RuPSxWXhoxvu4oHuMOFeZk4psq4X8WgdLaTb2ZSq1Bv4tRuE2ygtuvmsS5ZwcEuVYv+DvqorhGuhQlLYXSSWK8ozodjXunv4ZrrtupCqYCrFt9WaxJ/LaJUvEPgJbV8trHW55bX3CNbZxic0R37Sl6IZQF3b0jIhFnW8oHEUZwlDqyDetZDh1ES0oQ1BvOC3oJfwi56aePhcgYxffYySuf3YWJt56I3xPUjw79F5oNuAq3Dz1HVw6YZzHZhSDdQeSyfuZthdcghhfB2zGcPTo10s5WbIKKVn843bs36vW9unaomvPllQKtaPp8DsQ60PnHBXYRaU4sok10RlQlreZexkQwRh47SiYbBUIbDkEvePEHSg8vFEEkcG2H3vVrlBNeg5F40ADrLogdD1vmHKyYhP2H2H36JCSdFg5h6boNaQLbJVWxJ9/E5r50yl62YGk7NrdQxLVWrQeSiuhPwZdPw7e9gr4xPVEn2aKR1ccWQV6HQz2w9i5X4k4UW3OQ5NwL1jsvug09HLouRrAsge7UukZ+saMwwfFfUAs+o7sT1GaSun9rkb7YOVsSnKKB/cYqKC0DoVCS3uj/7WXwl9XCVNYW/RtrVT72zOWoqScTJsjG9t3KDUgwbF90SImgNxpRruLJ8ObbbwtBduSSVTqDcjP0GqeGmHAZReSWysQ1nUsujZSzmal7PZYiKhLuPmQaxc1kXeisNH6cObruO3aK/DJrLcx7oqJ6Nytp7Np7Kdvv8LM6S/R9jL27dpJ31x3Jio3Ows7t21B0xatMGToCCz5bTEOJR3ExEk3i+tXXDsZzZqf4tRgditMo6fCtl6ppbdt+RmGDiPgqCyjIx2VK1JhT90I8+VvwOu2H2C+4g3Y9y2FoyAL9uR1MHQcCa/b58J0ZVUTUYPD1e664XLe7Xpt504DiguFWYpYQMRA9O0YQdHfgvghI6CaHDESlOOYwbIFh0W5UY/OI8cgwpviqlcUevdsL+5DwVIcyfMkoEjclZPIE5VFZvSdeCkCDRYYglugT7twcQcyqUBZSmnSkYcd24VUhH9EH7RuHExp14i2l9ys2HfbEWxNojReD2myOlVp9GT8vg7CqVYcpz3y3UG2N4fEIGNsPRpxoUZUWoxod+nl8BM3lCGt2E5+bUBl4UZYRG1AAAZeNxZelBf4JfZD7yZ8jgpu6Wth8+Qcer4g08XOXjEUOmslwrqMRjel/I7s1F2ixpjz2iRnXjvSmdf27N9bOenMa+sZCnMO+5MPf8+cEbFomkAGr6xQNK1wCdu6aQ68bvqGC36nBQvPw8s/xc+fvom5s3l7Az/O/oWU+1kIjFPA4BuCS8aPRbA3ZR6nEH7eUa0xevQF8DlOQUV3+BAK1P3oRuGwid9yIDw6VpxjkZiXTZaQIlImz8XENOuKIIOSehz2AIRGKk3IGWlZioCqDgmXytQkpbk4IB5NvWzCzDjsJjRpq5ju8rI8cU6XkQatJTYsOk55hq4EhSmlbyb7KLmYLGpuQZ5yIr4zwgxKyc5u80NkvDAHdJ8n9+hhS96n1Bb6NkIzH6Wvpd1hIPck8llYLPkkbsmY5GRDzXIQFNdM3XPA179qkERGWi509I0F2aoliGyPaKN4O+kCH8Q2U9RifnaOR/c4Du5Vorw5gMSuXvRx4T6qCa0V99jtlEYqrNAVFSBdnAF8EtuqidIBk1cojKIWEjiSmk0RyIiSI6qYDm2BxmbVPTYvJLRS1CLPrVaXtXF1DRuum+68Dy+/NUu4k5uFXY3Za+98hF9XbhLbeRcNp/BS25XqiKDgEIy7ciIuHnOpOC4qLECb9h3Ffqs27RAUEiL2TxqbBcau9E6TNyy/vS4Guxj736heJFg0UnrTBUVy0EJHaZlxZFFhhJ7V+WnzRFb5RYOBwqnywCLMmf2WYnc/fRcrV26h6Eiiimxy+orP8PMnmk1+Ez++/yUKjL4o2PQN5n2iPDPv8w+xccdhmE2nnuVwfCkRcwcS/iEwqvHG4QhGIBcmCZ4ihmO/LuUAhNbT6REfGqjaQErGjTVZaUFRvocR/Jx+kvYqtYUmPzQJMKppV4fGLZW0C0cR2TcKt5JipKlh5t2kPRXged9BfhNKcVvJl46kKAK2ocNhue+P97ExRW1ir0Mq0zfirceeRD7lD6cKT/1SXqKIRa/QaBHO7NfQRUCRAHaypxRKBgMsyfshLIdfNJpyQYHvtBvRVM0LKivyKTkq4VYDsvul6UqLEEKau9vZ1opaLOZ4SGHqKa8Nq57X/guoe7HIIVhRCq8nNsL72V3wfnQNfN+jAK4LdUuBWJi6BcUBXdC6cw+07NQTrTo1h5EFAGWkXPNSNR0HRXg6x01kepeEygJAOad3m7qjfqBSB0X4U/YJ8kMWO8ejJK+qk5wPjzhU8fGv6shaUshCzoFKdZSob6NIKiUrLuPaIh8/pYm4KDuT/KxmNBGTM1MpXhAQAJPzWQcC1f4Rtgoyt3RcVqAlJ/odf+W9jNnFbYV5yrvK1SlYTOQebVQyu8cvkMWZA6X0bbXVNnFzELtVQO81a57s4h47ZSR28v8KHi2o4htUJQ6MZrMzruSTSGQDX1as3KsPC4dRNS7snoDgMLFfQf5YW18gfrYoSxWaZi+ovSUJck+oYnAc9D4rlZYt5WWKYSP8QtWaC4Ljp1GNo3mZR8V3l6hiWhdMQtLpHn6nIhYtlHk19IypUUQUOnbphmYtW2Pu99+Q0eavV9yslYbrskRcHZEG1XfzX612VNk/td/kdzis5TD2vR6W7++HPq4T9NGqsGD8KVzpE237V1BOVe6sgdQ37soJAfaMPXCUFwmR2RCx5ychLceGVmR3W7RujrSlszD7x+3QkS0tStuKooBOqk3ugVZd2oPKw6jI2o1sXTzadOmBpk0isOXLZ/HT0jT1jSePw1qGIfd/hUfe/hoP330JKirVVKMrB5sahkd+cggW52gtJjp4U/rTUOyIQmlx7SvIcPop1NKuyQRvF3sToKZPtp0WCkfeNCHqF9bImcr1Br2zv2xeVnqDT5MCyhvzD20Bt97W5lyRv3LeqfqHyHO1+6rlp9Xv5evkmU7/ORV0vmG4962vRfjfOjrBReyVUCGB/5oQ4E+/QI4v0sLfz4/yAjWts+3V8iayu55qOtmeF2uVFlS4NLnYfaedLSU7S3895rVq/slwXvtvoGYudzqQ79n2LUflZ5Ng+fxGOIpzhAdb5j2Fslf6QFcXfe8p4AOb9kH7Hv3Qtns/tO/eBma9EZs/uBkrVvwPH702TUR0fVkSfnnjQcx86iGs2npINNnqjAZsm/sa3nn8Hqze/ge+fOFV9aX/LspL1dpCwnWuOgcZTS05WyoqOPVQxqmUmlhIOjNK+sOTeArKSuiQk4U7bPzKKcEwJrO3CBcFuttPLeZbbUIEVZZXleDFvRrkNi1KsGDiCMTiiRGJzekeB4xe3C5O0H3c77Am6pQRBM/Rx4bBia/qHjIONo6PLoMmuPOvEzJ+mussLFrpd3h6B8ab3uF8J7lHrxkGepetVvew1ynuYaPpzCz4Fb5KLSkfsHCxWar6tXn7aNcIMlpeqhC1lJFf0zuU+Qx1MJO7Xd2j095J/qcJz4aG5l62CewfT77wGspKS/Has086M5pTFWungxY2PCr6lPp20fdw3OLN0GW8OGUa+yKJPzUk+HvDQmEa/jisv09H6b3BsC77AMaLHhRpwHT+vbAfXI2yBxrBuvAF5ZkGiCkoVtjddn2GYuQ1NyJ/5SfIKSdBRN8X0KR3lU3u1QXe6uAd35gO4nyHgWMwdnxfJC/7EdZTXgqS7ENFqbBvFRVVaUafvgMHFDOGyNgEimVsCxTbxEHLc4JqOLx96KqCZmtqQA85C4kkesRLGI6aWvqkfSulXS6AKhcUG+GEnvHiZwkLubf+Y3UdY6/Emm9fwcwpd+LHHxbDavDF1i8fxG87bTBwITZtJd5+7jNUcv88u6Xq3u8XweKoI5lBtqGC8iMO/0qLKvTIj+37lkHIfu8ANPHhicYob3LmBS6ig22LryriOC/wECpsD7R5Yzl/cLOzWt5GNpvtvmtea3DNa72q5bX/AupWLFKarHhtAGw7f4N1/be03x8VJBItC6bCfNFDVDJU7zsNOOD0Zl94+dJGGbaRizb0v50Cb8PqfPS95BJhu+e++Rb8+9+A8dddjT0/vIodBd7I+vMl/L3HjJE33oWAQ1uR6aFkca5jU/t1MG6ZH4kWLTpzyUr4plpqMruKODrvjPjlFbBo1tUVOqcZW77Xmex4h94lHrHbRDMsNw1paKVtxkFuUyUp2SJKUByOTvd4Vb2T9ngeMwElvErl7W6wPefRf4ww8E7oLV7eSkSn8K6kBM+1ixosLJ2Q0dOOHCQS+fftak2uiY2Oi5DRmdW6QhIYtWY55CBtbr/qNY9sSMQZel0lucm1hGt0qQVx0DvM/GFMGbtHR36puF2Iead76Aq9U9xJfl1Z03saBAmJTfHlT4vQu78yQCgqNg5fz/sNk26/WzQFfz5nIVq360DBVHfpUgsD9qkKCtNSFhEcB9T5zzguxCc2EdOKPH7/HWJgzcliGnIPvO5aQGHgD0Or8+B1729igJ8Q+/f+DtOoZ+nH6b7xz8H78Y3wuuELeD+6GuYrXhMOMw67Vxx7Tf4a3i8m0bsW0sm6KFmfKXieV04pVmcU1Jt8nDbZzCP3tKipQfGYC64OO9mC6tdOBYMZXmYjSjL24KfP1dkcAnuiXetI8XpXIejWMkLpRkvjVovSZF0bmi3hFgv+T4ML3NrbLFxD7RJXeXR91bfpYNLSbnk5FXCV3XMRndEbKb+/hhS/Xrj0tnsRmTUff649gJi2nbB75SrYjWYUJq9BUO8h8NcZkfrHqzjk11PcG5WzEH9tSKnzEcHsJpPBgezdf+Orz5eKc6EtLoCvSRXoWt5UvfCn2UmRF3Ao1QKd1PIskT+42X31eRvZWfGnKq91+y0uBKq7Sl577lO3QUj+5ve5A6YL7odp3Cvw/dQB308c8PvCQQbxIbYtp43eYMK+LybhxTsm4tW7r8XfBwtg5NCj8Ox26Ti0bdmSwnYv0iobo2OzMJj8ItA4xhu7dyRh5+pUtBpwMWLjE9F5YC8Y1XVe/224iiFnjRZDRlMLcKeRU9MBN5u44nyOMlUWKbVhV9tf2KC6Qb8jznCmTH9cM383w02/4TxSM28W+ozumO6pDR2V8pV3eHQPwa93NfDV73UeamJCvdXdf8hHNAFIDvZUUWJXa21dg0BAz1a5hwS7izFya2KnB52P8nfTQZX/VHupi3uqvk6F3mMpLUBBTiYKC4rouvIsN5vyfFzOng2WIuTlKn1HzwRcwxrWKMI5lyHH05CwMERERonpbBpFRFIhQSs+KLjF35OEn73xjnuxeMVG8f6Hnpwq5lv09vFB81ZtsGj5BrTp0EkIxYXL1uOzH+Zj9PirSERY3MLkeOiiWgmRSB/IEQWGNheScqDCF/2+oc0F0Md25Cgj7KO+cRcYul0GfZNeVfaQz9Oxoes46AIiYGg/XLynoWGvLEFeVgbyjh7Esnmfw7fFKIT62SjqGXHg65tUmzwRX/91BCa1TGgtyUVedgZyDm3HokUrEdPhfBj0J+63HtnxKV69bxI+mjEN+9MLYQ5OwJUP3Ahfh5Ixc/82BR5c4hKHaF9LYVr3g9pwpt2qFKjgYkOPnXbpWHuU3lX7F+tQUZSDwhJyM7mrrCCT0iNtOdkoLVXb1RsABmMWtixLRaf2iSSIA9C8R2cc3LEfUU06w773HxSRLErZchDdezeij87E5qUp6Ny+CaU5f/XegySkXPzmNNEZvJC7+CFMe/BmfPXxZ8it1MM3fiAumzRcCS3ySy38lfzGxfe1vEDkTZ7joWr+3cOUb9eep4yBY49rXsu/68Q1nrnkN25Q/Cskm1zO3SnUfQ5/nreWz7m8rUFQdyGo4igjOzlxOpWmilB2XzzK7o1G+fSxlGA8B8zJ4KCElzjuNdzx3Ju49ZkZ6N04oOrVIlDIi205ZNiysXXJr9i09FfYwzsiMVyHUhKHzqYCiix146IGjmsEJrSj6oayeqbsPPQozqqoYVC1h0WCrPrNmlQ9WT1BCfe4/rD2Tk6knl+oUu0GV/dU+5jqGYl25BAKyvWa+ldDOxZGo/rF6lS77vo7LpkN4+ocxnnoapSI6n7u/A76wOruKd35Mz6Y+iA+ffVxfPLi/fj+x7Wi1tKSvgGfvfY08krIDToSJ2kL8PmbX8JxBgeMcc0yT1dT2wTZHAc2b1gnlqni7+HVBbZuXO+sJTgZ8sjgbqFnedu+ZZN4p1stcjW41jGhaTO88cpUXDv+Yixf8od65TRhC1stTM9VLDkHsfqP+Vi3dBlCetyI6284Dzor14xbkTD6FdUmv4nRfSOglcNLkldi1e/zsXHdVnS8fApGX9yxbrxD7x6WftHtEeJ7AgLbJYF5zMSr4+pg1+erpd3qideZRqvbEg0S2dt/fg3f/UFiyuSDDV8/QenxcXz26mP48IUnsC3LUSU4zyI6RxFKKED3r16Cjf8swvZD3mjTMhKGRvFoYkpGUdZWJGX4o6m3kfy0mO61K/cuXYxtyV5o0yrS88jjU4IK60b3lrD4Nh3hq3e3kbWihZGaNx2XamF6rOfdbbKrja/9l/TWQsyZ8Ti2HSyAo7IYP7xJYU/h/+krj+LD519AmkXtetVAqHOxyFgXviFGQfPKBYbe14qpIXiVA2e97GliMPnC26eqGbpakqUbvGA3NsaQa27ERZdPwtAJN6F761CY6V6r1l+NAr1aNPjX4Nb07GrQaF87cjbVqp5QvenPaQgNRo/+pNW21TCalDjEGfJjkVe6lCrd761KcDzwSPkr/tAr6D7XH3a6x4DaKybIsGpN3NXdQ98mzpB7RN9Vl9Ki1gwvoOe0R3lEnXinq3uc0Eu0G8ndnhZFdLqn+nXNfwgeUOMqWO2ubmf3qLvchYAPWNMx1f3ceUwOdl8UUYe/Fy1CQNtLxZyMEy69AIUp/6C8gl9Gv+uaG/Gxi1vqEi6hi+X+pjyAq8cOx8N33YKtmzYozenE/r27MWJgDzx69y3YsXUL9u/ZhdHn96X7bsbBfXvd/OhEWLtyOR6hZ3l78PbJGHfRQEx/4RnRvUGj+jv//v1XLJz3IwadfxEaJzZVz5461n/eReWnN8Dy46Owp29Xz567eMd2wshrbsOIiZPRrWtbuA5s1pt9nDbZJJp6FII7jMGoa2/D8CuvRZvm8dXi5mkQ0hLte/RH0+aJwsbk7VqA956dhpxyxVE8+EKh2u9ROtbOuNUaVYMHRzpxfYVmSwgeJOkah9xthEtaprTrcelY8Q5130aiZ/xMPDL9HXSPK8Ff85aLfvZnHZ2Jws2MbmOuFvnpRZdfjwv7t0GFNRQ9+oRj3z8LUBLWCQa2JTqjcu9o13vbwlqHapHFl1dcT3To0Qex0TzQ0IE9v83Ex+/9oJhl+scZftXspLO2gDzdc+hz+Ct/3ewsh5MW/sLO8n1V4eNW/UTPaUfu3aLc4fxOi0Pczfe8ez/H3U8/g2B9KtYta1gT9B/Lv04Z246FMPS9HuYr34R5/CvwuvMXWNd84czoziwUKXVtEGpZh1Xb81BRXobUjWuQY/dF0zZBSNm1RTQxFB89AusxjMW5DDf3abiJQLutqieAEAksVJRDq0vfCz7vfI78qFYxRKe039H6fzmhd4kn1ASp56UeVdyayOk3nO5hQUkPaaORa7hHbRZS3FMTTtPaYB534Uvvc7qHHqd/XBOvNsBHQC9xcw+hTYvj2u+S4RpuAbtHvLw6jir3VDdY9C7NF4RYdImHrr/Dv+xswCL3cIbD63sybu5Wv1FA7lVczPBeFjIyLOgwdCx4TsZGPa/CrQ8+Ah/31t5q2MXavZx2lM19KclTgWv2brhiNDasXoV+A4fgyOFUIeS2bFwnDDLPr8jNwdxk3HfgYPy+aL54bv7fa0Q/xuri+HgYKJNlMTD7u5+xZMNOnHfhMLHe9NEjacI4c1PzoaQDyM3JEfGFt907topnrrr+RsQnuIxkPlkoPZQ/10ms0mLf+Qcsf89E+bP0DYXK8oQuAeS+38DhmjirtVL4nXsa4/RgEWmW+3BxHNaCi2sduf+geOZEw9BW6RL3lK2G1mjUCedfej1G3fIUbrh2hHKueBdWrdwo7INb32jXmh1yj5b2ON15cpGWdqvHOx2lO+1tbKrc066LzaLnnG0yLoVlDVtlOSorKmv8vt1SBosuEAktEoDyEvFb1gr6fvoGC/21WOit9A2cPq3VxGndQFaGw8wZljby+xg0bVKJZWuTKBzLUZJ3CIcy80Q8jxo0DNtXbEFkt0EiS3G910b3luaniHtPJprbyU5VD3+3TyX3+TS/EEMum4wrHp6GSwcpabVwz5/YUVghwr8qb2IfdPl1+iYRfiJv8iDh6aTW/7C63WfbLWC7TX9c81q3muoaea0rDjUsq72b4LDW+UQhONBL7DMW7vNKSpLD3MaFHUqDleKcuFxv1IzFdYC++QDYeI3Tr++EZc5jqJh5CYydxwrlfLrYKkuhzZigwcFmrSCPVgNLp/PBxddfiT2f3o/3pz6IJev3QmdxoOmohxFfuhzvPPMg/tqa4VYy/jfhOqLWTZxRRNfMmTaQQovsFm3uCYYTvWb4uKaglkjJ5SYfdQQu38uGU8B/tdFfVLrjxgJeTUDDTeTQvuYegxjtTAJL7bPG7nGVPTyASUD3mTk114Dco45UcwpLFR25RzxBxTgvcqhJ7TPHuI2IpASuuUfn7QsdGXyTutA9T5HhWovAA3LEO8kfXYfiOKFT2vQJjmpiWkfvUnZ0MJP4cx1F56z5Zuj3LVpm5e0n3MNTg/DLeQkvt1oNzT30Lm+nc+i6IwWlCEFknGrIKNNxn7uQ3EBhzN0zvL0Ud+hKjuK9p+/GLG17bxGcndBOkdnvzRQG+IOvf8RNd9+Pdz79BgGBQfjh68+xcunfWLaERBWFBS+799rUp/D7gp/FczdOGOdxveYTgQ04Zxj9zztfHPPoa26ivvKSC3DL1Zdh4uiLMOPFZ5CTnYX/fT5b3HvFxedj5/Zall48EcjL7enbYE/bCtNlr8P7tRT4vk4Zq9ELFa8NhI6iRMW7Y2HbNAeV392L8tcvVGodq4KyTuABqKc86LgGlKmSga3wMKrTTplX8pyHMfPJu/HeU3dj5uOPIK3SBw4SPhUn2y+cC5Y7P6mKe+q2Nl0dNOcGWSFKW4HdrkD3aOXM4QP7ufGBkkvVyGQ3YcvCVd312C2B0pmPOsUXC003wailM8KL3KrUYCkuE7MsaI6kmyxabk722ODyClvacnzw1F1474lbsPWgMmpXgwcK6Uv3Y+3yA4jp2k3MS7nqrbvxw0dP4V3y2w9feRZz33hUpM9P3l0Aq0vNVl1gJ9G/96s78Y4IS/r74tcoJzvTaeKTMG+YhXeeugdffUB5u5V/l8LWvy/YIrftqQg2e6UVna5+CuaNszCT7v1y1ueo4HtF5l/q9DuPGLywf/4LNcL/SKlrs7MKhQsv2hB38YNoJLKYcmxZlyVqBbW8oHqhWqflcyTyeXqn2uC8jWvIGR6cUmVnKR2Q7RbfwHaW/rjntVW/paM8sXpey+j0JhRt+ECE5cypz6mLSFRhoryy/OgGpGVUILZ1a7q/HN8+dx++f18J8+8+ex/fPHMH7d+F3/7eoT5VP5wRuWQe+ySMg26DbdfvsG78EfqmfWG+bjalHvWGU8RhKUXnm7/CFX3MJAzVk4SNEmnvR77Gec2inKXG4JYXYfKLn+D+Vz/AtTdOQKDRBrshGBfe9ToemvYhxg3vQkbO5SX/Irxd5jJ0XVvXLqbBUTCR6OJEoJWgC/NcJ3PWidKcgAWhq7FU4SYXH39lEXgrZcD8jIIOFm2OKhKifNbLOVUMZZTiXgU7ZT5alNDmXOSl5JjifJ6/UH0n/a1Qp+lh8Vqre+icrzqHmo3e6xSa9MequYesCNfkaQKQEaNjVRwkplVToEyVQ+/UjEZ5ocvADzI0liJ1jjZ+V03niGf9ghT32KkE6cxwhHvUBRZpnwUUC2T1zSjm31ERk9CqGZ23v+IeLROs5Kk9XPzHUqi+U7xLcxBdp9K9jcwaa73KjJ3Yu2U99m3bhGLKxMXT9gp88vjVeOXOy/HK64oodPjH4uG3vsYTM99Bc/q5IVddCEMtpeCT4XBKspgQOyAgUJTWeZCJf0AA0lIPIbFpU8TExgtROHLcZeg3aAgaN1GWWuAVXmqU7k8Q9q/vv/4M7854Ba888wQaJzZByzZt8fTD91KweeOfjbvwwOPP4s/FCxAW3gg33XkvBa1B1ER26qosMXnSUEZlW6uMqDb2uYYOaMfbBGOvCbBn7oejhE5tnouKWePhOLobjtTNohayLrrosDg0l+YhfusvaP/r62i5fDZCD2+F7fR0Pr3YDt9+j+Lhh26sUcPHNrn9pE/xyNtf4MHXP8eDb3xO++8h3pCH6DEzcfPYds7+iyeMa02gCsdobpk6smsNxd8NSM0oclbY2G0GhEcr6aKc0gUPPvMNUGwTxwGu1dSwu6R3zdZUh39Lm4+Rp8ZxTbs2LX1SmuPaaxacWjIs1tIgwSKzXC2UeYk0W5Um96xZAV1EP9w97Q2E67hQrF6h96X+eCemPfEsjgZ0w+j+EbDaHFzGRVnIONz74E1kdzIQdcnjmHDlYJQe3oBSS91l4RyW/e7ieSwpHEVYfomHX7oR5opKGAMSMObhmXhg2ie47bEn0CTSj76RnzLhlrdmo7lRs+tU4PdvjDEPqfdOeRJN6V5TXC9679sI0R9fBNTWx48HWdqtpTi4fT3ZsLXILOZ6QfWaw4vEoRLJeYAI4xug5gWcjzk9mMyhlheQ3XUtbLvCeZu3WtA/pp1le+ya17oUpuxlVcKY81oNvb4AK35ej8Sh9+DuR2+B1cUJvAztX69fi/ff+BAB3a9F39ZKxYleb0VQ10dx06Wdkbn7APo9/hH6NAtBZupB56fVB2dELPKANF7OyvvRVcoUEVe/D0dF1XxEp45O1CzWlm/Z6P1u1fKi2rZUTPLsWt3L1f/lJJqs/1KhyOgjY5zzFxYUFzojFAtCjQCejJoif7Ba62dLOUglSCU6cCIqVgVNSKPoWhMvWWh4R8cp787LRp7aHMPNMpmHlYX+hSijd+nCI6j0qVCYn+N0j+ukuEE82SklvkBt4vDUJJSo7+SmwQIxyaoOAWGNKDHX5h47zLGNlQhN782hH+HfYdGYkaa4h6f74D4mPKG1lsRLtOXDCI4vWsYQ0iiKrQb86V5BegqKuMhKcF+lnEylSZEn9a7Vf+g9xjilPxXovTl0j/LdOmQdUdY+5Pdwnz0dGSZt/Y5yuqbFYq6xtas1vGERsUI8+oarq97Q7xdo7iH/yUpX3unlx/Nlil2Cdkw831c5ZdhGFG37AYu+fh8Lv/oER0tYUBN6MyY88T7ueXU27rntArKmlFboBTzP2IG/vkOSrh1aRPg7m95OFRvFF9FkpxpejmPsbgtl5PEJTRAdGwcvii+XjLscfQee5+wzOJbEovU0xOKyv37H/DnfiUITrw5TkJ8v+k7m5mRjcLe2mP7C0+LelOQkdYJ6B4qLiqrVvp4E9Hn2QiXD0vmqE75TMPDa0QK1ZsPQcwK8H14M09iX6Lodjhx1QvlThX43+MgujH+yFQbNvgZd5j+LXt/fj4tf7YcLZ44X108HpWaxtoFGik3m+eaqtlKKL5S5W8pQebJK0U5h3fE23PPyB25b3zjyN4M3tvz8EcXf97F07SFRg8jwpzkLFBSnuGbIEB2v6G+KA3kUl7XPz3fxZ1+1sFsDTrvxiaJPGtck5ti0KXaq0i4fm9m+UWEyVL1anpYivpvhWiarRREP4ZGUdrU0SfE+nwSLb3wHujMIcU3InqmXHFYbYke9ijsffwxRJRvw6XfbqLxNaYZuSOjUAt5U0OIegc0jfGH2j6R3kZCt02ysah5L51amCSAS3RVlIu/kGmbn9xCVZWXO71bglo9q91L6Ly8tc36rR2wVaDXu+RrhH+dXRsKvCH/+732yYR9i40GyJy4/qeUJXNPL+2YqfIrLlI/luticTDUv4PkXa1tMQUBu9WX7z2QdQX6tdjaAvsVRLa+lgoq6X5hfLa9V0ZWXIIOSUXxcBIy+sQhwKSTaLQ4MuO09XHfbJJRu+ByLlit5EyeJxm3jERTfGCAh3iJQh7AwL8VGuXr7GcaDb50e1r/fQemtBpTdF4ay+5Wt4rn2VMJWb2gAWHxaYuilo9WjhgZFQjM3DfqJkaMniz24NaLVPml796bA20ylMBIFh5P2KScRiPAYkm+UWGIjVNmUswy5RRTz6JzZshlpIp7qEdcslNJOLUmcxLhXZFtlfWrrQWzaZ1Nq7ZCNjZuVgoGvf4xI0PaAJohX1WLKgb3w4vZ/vRdy0rQOvL6ITlBq8CIj1RVMilYgLZtfroOXbQcOHlJORzdu5ME9dhgiOsGLY7TtCNbvtlBmwgNaSrBpk1KaNJljyEjoYfeNQaKqSbOSt8LEBpncU5y1lV7D7/ZCXHN/2rchNFJdHqxsHQ6ks2vIPY592LVHMU7hMZEe/UcX3hn+7B57PjbsKqPfIYGks2DrFiXD0utj4eVrgMMrFE3Uzy48vE6ISBZx1sKNPM0lYULjViQCyWr4R6rLE1Zuw45DPIUPZVpIxdZtiqgMDosi46y5h/7qmsAPeUg7WInwoVMxZdpT8KfSHBs6DddaWA2dyYF1f/6DNpfdCh/XNrRTJIxEfnFRVcGF+0SVUyYTyuLfJedhg+7mDj4+Rdi4v/vp/zDtvdniPf/88Zvoy8biPrFpM8yc/TXe+OAzzJj1CSKjuFB0+t/J3qqPVpfyy04Sf1l12DOUtKfzr2YEjWpCpbh2OgRm7MfIl3rBwP1xxHfQRn8dnMZ3/oZuP005/RrG+kTEA5eNYGHkH0QfQd+VvXMTLGoLgcmUg4N7FBEeGBJG99lhD22HCP5eemjnngxhc3iKn4N7FLFAMRIhEYpt5ZG1bGu5SVHUVvIPUdoNZI1gL8LGXcUwi7Rrw45tSgau08XCx5/ikjkYTRop8aYkbQ05jV6gN9FjG0HRmzBS2g1yi1vCxrDSpT+ufR4VdDCHtsHA0f3I5PyNAreO/oo/KLju/wupJfwNBhO0wZIpG1fBwYN/yH+M+hQU5Cn2ODIunkyvBaaIDjDxY7ZUbNhjBQ++MeoKsHGTUgni5RNDwpJvcMlrvdW8lmy3f2RzZb9yB7YnK3bW5DiMLVuVAlNgCNtZih6uee2+qrw2rXpeq0EPcfCLvvm0VQ99uoKQJn3ROjEUmds3VFlpxQucVDusF2q6tQ6wbZkHfduL4Pt2CXxnlorNeyp5ntpdoCFgN4ajRbs26lHDQmfyxd7PrsUrd03Aqy+9JSL6yWCzhqNlF2VJuewVVEJZtgnJG3/GP39vE+cQNxjxfiwudGjZo4NyDsVY/O1XOLx/C+ZMn6msq0ol+dYxAR5mPbLDN7AJfNW1izd9/DQJqN1Y/f3HOKQWRkNb9RKR2mYNRvs+iugq2Pozfv5rHVK3LsJvP68Q5xDRG00D2D0OJLZvp5yDBX999T6Jyx2Y9+ZMiCROiat5fIRH95jMCQgMUFLuzk+exJbtu7F54efYW6hkxIFtBsGkp8Rq9UengYoxKD64DHN/W4m0HX9g/heLlE7DIR3RKphrKhyIbtZaTZgOLPtsBpIO7MKi994lSayQkNjEQ0djOqmPQ6MIxVDs/+oZrNm8Czv/+gbbjypi2rvNBfA1cB9CH3Q+jwpTRHnmdsxd9DfSdi/DnPe+U7pVBDRD21Ab2Rk7QqNbOFss185+AQf27cGST2bhiOqG6ObtXdzDO2GIjPHCtkU/oMLCtR3qYJ9jQRlY5fbPsN/YF0O7BNKh4bSN0/DR41BRXo4PZs7A0fQ0LP5lrugn2H/wEPc+ZXWFMMoOUbPRqk17REXHYPast8SUPeOvuhbJBw9g8fy52LJpPaY9/xQVbPzFM6ctGCnaGPtMEruWRS/BUZoHe9IOYRMNnalweiYKzBQ4HX59WdmpBRaMHcktZpcuIOciPKgsqplqs3OX4tvZ8yhT3oulH87AAdXmxLdoKQpvNmskmrbl+noHjvz+Lv5YtQVJ637Cyg0HxH26Jhcg0ptsDtmUwn+eF7b2lbsn4IhoZeaiVCyiYpTuM0nfvYCVG3diz9JvsTlFFRttLoK/kfvDeqHzYGVt8cq8vZi74E+k7VmJOTO/UrrY+CWgXTjdp0Uril/+/gGoPHoIDr0VuZlZ7qFGaU2vs6KQzsPko8whLBEYvH0R5askoLJdn+Cfv9Yg/cAmLJj2MgqF//qhc2d/Cn87icFE+PsopaNts5/Etp27sX7epzigNnAGte6vzIxBee2+z65T8toX3lTzWjuCI1tQIVxh3cdTsX/vHvzz+ftIV01VdAsedKfkta26KksIcl67cKmS1/69RO3zHDdIzWsVHFTACaEfzskvgL28EEXVyoiiZtRahkIqaRjcFso4+5wRsWga+SwcR3aRqN9M2xax2TP2nqFf+3dioNIOcyo1ixzZmvW/Uj2qxJY5MzH3mx9RIiK6ERdePgi6CqXZxtjyUvRursiP3J2/48cP3sL+bCVy+8RdhMggZa3V2tD5NMIlgxqLfUcFCYCPp2HZarXTraktBl+kGHae/DmaMlBFV1qxa/4szPniGxSoLUf9Rg+BXnWPPuFCDGmvJJLCpJX46YPXseuwuvRW+AVIjAv2LHZM3hg6WM1M7Nn449Np+POvtcqxPhFDx3Ymx9D/tgqE9LoFQT5sGGzY/+vH+OHTz5GjpulOF1wIo+aeqF64uLtSDVl2dAvmfTAdW/arTVmBA9CurbJihCcGDe6h7hVi6RfT8euif5SMQxeFS67sCR0f2C3w63YbooMUQ5W85Av88PFHyFALV837DIWX2m1CF9IKo/or65NW5u/DLx9Ow9ptarWrd3f06J2g7DtxYMglw1G07xd89MxdePPZGSjhhHgMR+tt+fj5f+Rv+evxzsO34a1HHkBq+ekZLl4L+pmXZ2D+nO8x6fJReGf6y7jmxlsx7sqrxXVuUnHtW3bKzcAqQcGhaNuuo+gHyaP1X3zjPURGxWDhvDm46rrJYoLulf8swWI6vvXeh0RtVFhEpFhJ5nRqMxldYARMFz8B64qPUfZwjBgJrQuJFSu0ODvpcu2V+KsGxGmIVJ53NOSwWhD0gN1gRsJmZdDQOYvDihY9L+CFwgRHN/6AH2a9htVb1fhvaoWevdtRCqJbbeVoN1BrOSrHhu/fwrzvfkY5X9T54uIJ/aFTR0ryJM/KX5NSs8hQ+PQb3E89KMLyr2Zg4S9/KgVVXSOMnEAFYe7AySNzu96KxqFK2k1d+jV++OgDHFG7fCd0vwg+bqVbB1q2b4OSQ/Mx67FbcSCnqrpXZ9TjyILH8faU2/HLH3vR4rKx8D3FLhj/Rhx6Hwy/VAsTYNP89/H9+29jd4aSqAKaDUKit0mEP7wCMWKwWjtozcTvn0zD3yTkBIbmuHBke0WkU7rjmkXGrNUsErrgZhg1QKlwsRQewPyPpmHNFrWlwLsrevZR+lRXz2u3/uSa15pwwWWDnXktY9eFonffcGz/YQZmTX+Vsx8nPLZrxYd3YdazD2H/0TK0PX/gaRfS6xJDRGTUM+r+MeHOm3G9hmOvuaV6xjPWNV+L0X62FbNp+1hs9l1/wDj8LlHyrg0jXehavpk807XavX6xw4ARPnNR6vDD0ooLKKBO3YAfG3qzrRjr/viLvtqB6N4j0djfZVgCGa1sMoT7jtph84lCn77dq+UlOlhKjmDdShZCNiQMHIsoL/fM1RgQjXYJ/shKP4zCYkV1+IQlovuoW9ClZbTztziTjG3fG5bcVORm5whjqDMHILHbJRg/aQzMx1mjMaDVIIQiF5lHj6ojH40Ib9YdF998EyKoaKb9jsE7GO2ahyHnSBryC5UaDu/gOHQafhN6dW4mEi3D7olsPxAoOIycrCxlIJPRD/GdLsJlN18Jn+O4x69pH/KLImSmH0FZJd+rR0hCZwy94RbE+lKpTbmNDLMP2rSMRd7RVOQXKMVNcyD52QWTMKh/e3aIOMfuCW1/Hswl6cjOyFA66+u9EdN+MMbfeg38XVN7Lfg07obGARXISE9HaTkbNR2C4tpjyDW3okmwyzhqivct2zRDQQa5J69InDf6NULrwVfjwqEkKp3iwo6gtufBrzITWeTnlVa6U2dGZOt+GHPrJITo1XnAXDA1ak8l7pYICIlCVLN26HL+pWgWFSpqnEwBYYhNbCqayNkNOn+6JyIYFUZfNG7WCjFNmtPWArFNmsKL3u2JVqZdaGrcj6Xl5yE6tpnoG+oK19glNGmG8ROuweALhuHqybegz4DBQhSyOOvaszeGjx4PP39/UdPYoXNXXDL2Mvj4VQ2O0uD78wuLkJ2vDFYwGw1oHB3hJvJ4MMsl4y8Xi/vzb/PI60uvuhbNuOaJ3t+8VWtMuP5G4R7uL8n3tGrTDpeMu8xjTWfKkSxY1FWCDBTuG7y7ebRXhvZDYOh6lViZxdj/BpivepcClBIEvVof342uj4AuIIr8uxEMLQdBH9uBHqoSDhpB9kK0qtyLdT5aoaMmPPK57ZL34FWqdt6vBb3DhvR2FyKncVf1TE0ibFlobFH6ZJ1peBoQMXjM3bAdH99odG4fg6KcbBTl5yv2yuSP+A4DMfLmmxFmror/JrJ3rWPMZAvSUFSiVD36NWqGXuNuRbv4MOU+ijMVh5Zh055skbbaDRgFf1Uz8LySTYKtyDySjpIyRZAExrTFoIm3olkorxmsoUeLtq1QRGk3L7dQSbu+4Wg58CoMu7if8HtXvGLaIIHSWEjLi0jctkZgeDyiQn1ErVJIbAvENW+PjueNQ992UWKqFD2JyJC4llS4NcHgFYToxGYwm43wDmyEmITGMOqqXHIsuA+ir3+AiOtnG06rvO6+6Pd5EhgadUGTKBPyKW8oLlIGkbCdbNlvDBW+R8Osq/Jr/xYDEGEsoPA7oqySQqk2tElXDL/xFkR7K9MmcV6bs+kH7OW81juyKq+lf4LaDIG/JQNZZPcrRUZkRkSrPhh96w0INVR15DEGRqFd4+PntQKKYwGtByAswBeJPUejWVwEwhOaw9/XBKOXL4VtC8S37oKeoyahTRQVdB060b8yMrE5REWpbyTi4qOFrfCPbIrICLUv9HFg/y4pLIB/YDAOblUrUAjWdSdaIaVr16Gz27d4oqiwEL3vfhPz/S9Rz3im4u0R5IPe8L5vDv2Cck7kdTwRsHaiGl6OckzO/wQWnUuPz3rGSiWBmSHXI8sWgamFL5EJ8Jw5nj7KqFwdJXQbJRq3wiehN3mDu2RwX6bKyqoaFyfct5BH89HzVnq+qunRHQNlUNpSS8qcZyxPa8L9ebg/F+e33NwpBld4eml1yC08KlCZI9FBTuZ5umoXUXrVPeJO+jZPzaLu7uGmYwsZzhMMD3aPkdyjdEA6jnvIAPOgF9oX7qHfqc2W8qThPM2Q9o1iDrITnWiWnjHSd2tzNvL0FB7dQ8aLR1mKX6Fw4Kl96tw9Z4CRPj/ifK/FmJr/LLr0vIjig9aIU/ew4Us+nI5dycogIz9vM/p3bSfOnyk4Di7fuAMl6lwXZkclPgi+6YzaKw52Fm+jin/BOyG3KydrgbvJDXn/CsTuWKyeqYmpohg/TN2Hoka1TzbOv9Wucif6la5UTpxhivJzERgaTmnu1OJs9XTCo5Zrtw86MbDNoPYNtJMNtFWzgTqDGSZeU5jCmKfIck9v/DzZLGfaZVtSe4G1upt42pUTNaH1AS/VGBYZ7bEwVJ9wWuXR437qqPWTg0eik33X8hHh1x7m8TyBvOlYea2OCoMG04nZWfe81nPedjZg/844fAiRcQn4/YuZ6llF1wUEqh34j4PyZXWMsf+NsCetgeXvz2n7krYvYFu/kHxTSXASRpmYkyfXrC4UGbulXFyrVSgylEAq1eePZZBsPIEniUneeFS4p1tZSLKhFPdVkpE7GSvHoqayQv2dCo9CiOE52XgORcU9nhOTu3sqTlwoMuwey4m6x+LuHg8OEonf5RtPSpjRS6vcU35s95CQdLqHwuGMuEfyr4IrlnYNuk0IQk8kdxmP/JjTX5WmoVA9nXi2D5TBk2hzpr1abKDDxpMcky2l6zXTGz/vmnY9t2xUd1NDEor/Lli0ueQjwq89Gsrj5k3HymsdjhO3s+55bcMRinXFGalZrPx8smiGJl9WTlBA6ht3hteTVGpVOyJXpyHVLBbbA7CofBSVWmRql0hOhA6mzWhl3KnWLF4oBsWcMaiUfPhoJnYmnd2axfeDb4ZNd0bK2yo6xFjSMaZ43jFrFhmrmQe5zESPHx8Br/vtYP8nNxus5chp3A2/370QFdpUPrXAlq6+axbFZPSeMnlJnVNSVCBqlhpKzWJu5lG3BRskZxDyb05zUfGJp1yzeEbEoqiv5Phop1IY99rU7Okx4mhDEotSI0okp8ZLRVNxxKqMDjyTsCzUxOHZEIvMme2mUoXBYcO7IbepR8eAPt+nIAO9vr0HkfuXo8IvDNsvvB/7+l0H3XGcWt9ikTmT4SWpnYbQX1FDhn/9w+H/x5fvqEcNQCw6Mvai/JW+cJTkwDRqqlj6ytD6fBjPu8Vt9I8rDUEs8izxXDviODOt8xLJvxwHDtmaotJx5vor1kZdiEV+tqSoEH4BPKl5TZNYm1isL0wOy4mJRYa8wE7mi/sxMjwm6XhCkTkbYlEikdQ/DUosVrwzCigvhKHbpbDnHoax++WoeGsYfGdmgjRhrTQEsSigTKOitC5Wm5FI/sVQOmE9IoyHKq54dCuLqrAgbSmwMwT9Nve/LVZXlzhVscj388ouPMo9OysDZaXFaBQZg4ioaPhXE43VxWJ9fSePFi8rLjpxsXiK8GfUp1jkgQKuUyVJzgC1pVEPy7eeDXiVKMmZQ7OHmh3jY7O3T8MSi5XvXwZ7USaMfa+HI+cQHMU5sO/9B94vbm3QfRYZnlE/Ky0F4dHqyh0SicQNOwmYXBJXFRXl8PXzRzCvzlKQh8CQcFisVgzr0/GsjIbmFVtOFDagJSXFWLnkd7EfHRtPArQSRUWFKCspQfM27dCiVVunoeW/rmLRSn4wtHcHmM7gxLn8nUczM7Ftz0G89y8Ti2I0NK+2ovqvpG7h5Q85jfLgQK4tDwoNb3ijoQvy4Rd4KqOhJceDF0DIy86E3WFHEKUzf/LnjNTk0xoNfUbmWdQ37w/r/GdhW/c/IRLtyWvhdd8f0Pl57svUEOZZZDgSlxYVwJcSmEQicYdXRzhKhSkfEomBISEoIpHIzbe8xjUvlybmMIyPRPV5FusSTqNu8yyajIiNCMWCH/+Hfbt3Yu+u7Z63nduRknxArOiy9I/FaNmmPbr17o/I2DjxDe07dUNIWDi2b1pP32JDWCNlYl7GdZ5FHn3ZPC4ShlrmRqwrRIZaUorMnDysV+dZ5OZl/+IUeJXnwFyRB1NFAaxmf9h5GpHT1F31Ps9iA6rl+jdhozjKaZRFYkBwCArycqgAVCymmmlQ8yxWnvw8i5LjU15WipzMdASHhol5arnQwOmMp2E7nXkW675zHr1RFxgJn7dy4HX/X/C67Sf4zrJDF9pYvUEikZyrFOZTuvb2FqXVsuJiYfRZIHIT7onAtX/axs+64npN204Gnndy/ITrMfqKqz1vV16N4aMvxbbNGxAVE4emLVsLd/BURGK+PvobGt4IXXv1w8F9e8S0HCdEtW9x4um8B9gt/B2esJMGb7NxGjqtehKdV05Bl5WPov+vE9H4wC/OfoqS/zAUf/JzMkU3ioDgUBQXFIhR5zx/rIWEgeTfDdtMrlGMiI4joRiAgtxcUUDgkfDV7e3JUrdikWycZe5TKLs/HGUPN4E+vjMM3cag8qtbUckTdddvv/cGj44nDDV7nfz0k2KiUTNM9KzJXDURaG3wpNPKfV7KJNfq+erwJM88U7y41zmJ6QlC7uGJa0/IPYaTcY/6TvqrTWh9QnCGeyruMZ2ge+idJ+UeeitP2FrlHs+1bjqDUcQJxT0m/pTaOYk4UJdwpsO/m5PJffxKEBWXKI65afp4FBUWYMHcH2j7Hgvn/YDNG9aKb2R4tZ6ff/yfuKZti3+eI+LIycDzm3FfuGNt3ESTefQIuvXq67GWJSo2DgFUCj96JJ28+th+W0Yl+YK8PNEs7wr/ViGdLy1RRPWJsG71Ctx01VhUHkOk2vVm2IzeWDPkA2wcMAOlfjFI3PsNAgqS1Tv4HkVYVheQfMzn+fq5DK92oqUTxT54+iBlAmclnbDNOdka72pp9xjPn3DaPYPwT1qsleQOM7IzjojCTlRsY+FfDaH5uW6oFqbCrz149knkTbVyBvLaM43NZhVuzkhPEfEgPCK6Tirw67TPoj1lI8pf6AZjn+vhKEiD/fA2sZA+Y75sBozn396gR0MzZ7zPos5Axg3I2rcR29ctp20zOt3/AfpF6U5oEle9wYINP32ETRu3oqjMSu8zI6JFD1w08VqEq0sYMTperHzLIvz5219Iz1DCwCc0AR0vuhq9uzZxaf6h3y07gn++/wx79uwHL2OpMwWgcZcLMeKK0TBrc2V6wGCyY+svn2Dduo0oKOZ7TQhv2hnnT5iE6ABTlXsoMefv+Qt/LvoNqenZ4hwv99fmvCsxsG9bijxaxNDBYcnF8h9mY+fOPSivpDcY/RDXYTBGTLgMvvZjT3ZK2g+7f/0cq1atQ14hZ94GhDRuj0GXT0KTRn5Vk52Qe4qTVuLP+fNxKDVTvNMcEIWWAy/H+UO6sCpS7iP36FCC1T98hK1bd6K0gtyp90F0274YPnECAmtZXs8Vg0mHg0u+wbJlq5CTzx26dQiKbYO+4yahVbV1rsvSN+PPeT8hOTldJBNexqp533G4aFgf6Eikaej1ldgw92NspDhQLOKAFyJbKnEgzOvMzg5aWlIkmjV4hZzI2AQxEa1olvbxRXhU3DH7LB7ctxd3TLoKvn5+8PLyRl5uDkLDwjH7u3nYsXUzHr/vDlEjYiYDxyKO7/nfgj9IlLp3hOe45NZn0ccLfTq2wm+/zMHISycIY+kJ7peYnpqCpP17RPOzloFyrWJ+Xq5wDycNLgwcPpSMYhK47bv2oO/zwbINtfdZfPPlqVg8f65YqnD+P2tRXlYmMrCXnnwUf/22EN1798Orb39QQ0zWxp+/LsC0qU9h7h8r4E2/eTQzC9v2HHD2WbSRdu7x94OiCXr1+R+R+NMhLHMj2m14BXvb3YKjjYcgLGMDEvZ9D++yDBQFN8eejnfCYg6iZwrQYvt7CMjbC4tXEA43HYMj8YPEiGmOM/XeZ/FUVnDRG1GRsgy/zluIlJSjIp3ozP6Ibt6V0vg1iPIhU6LcSbfqkbF+Hv764x8czSoQ5/zCm6Lz8GvQvX08HR07pRhMeiQv/R+W/bMSWXnKoMfA6NboPWYS2iaGujytQ3nGNvxFBaGDSWlikQVe7q9ZnzG46OIB0FOcq0+Ki/KRn5MtRAsLxYryMmQeOSzSUyQdN5g+i6eygovBjCPrvsc/fy5DRrYSpka/cCR2HIzBY0fCz1Hl1waTAzsXfYbVq9cjv4hrVQ0ITeyI8664AY1DvY878ZUzr91EeW3p8fPavyivTTtmXnvmYX/NyToqmqJ9fP0RFhElWoO4qxDnZBz+DWIFF0cOlWwpMZsnfwLzdZ/AUZwF45C74PdROYzneRaK/xkoQyoggfK/52/HZ+/OxAYSihUUgU+0sMORcu+Xj2Lpio2KUGQocWTuXYEvp32OcrWWhu5E2aE1+OKLH51CkSnLPYQ1/3sV+zKL6A4FFnvLPngSW3coQpFxWIpwaO0cfD5rMezHqEGjeImk75/GH0tWq0KRsSD74Dp8O+MjlLq4pzJnD76Y/bVTKDLl+Yex6adp2HIg0xkRWeyt/+gRbNy8WxGKjLUEhzctwOw358J6rL5w5J60Ba9h4a/LVKHI2JCXsgVz33oXBSRwFBSB/L+PZiNZFYpMZdFRbF/wFlZsSHb6D08Tum32Q1i9bpsiFBl7GY5s/xOzp3+HyuPUfGX8/T7m/vKnKhQZBwrSdmLRe28hl9diFufoX3sh5nz4Dg6oQpGxlmRh9+/v47e/dlS5h+LAni8fEXFACEXGUYGMPcvxxbQvUOH08zODn3+Q6AvFgizjcLIQitwkfSKT67IhYx584jn8+OtSzJg1G7mUqc37/n9CfDLPT38bP/62FD/8+g++mvdrDaF4unBtHzeZs/0uJgNaUqxtRULkFRcViWO+xsKyUtzPQkELgZpwjQNTUlyMbZs2iH2D3iCEIn+zF2XavJKsyCDpvfzNXMuqwef5mMUz9zc7UYxWEqXWckQcXspvR0lwMxgtpWi7aTp0DgsONb8cfoWH0HnV47BSNG2zeQYCSSgebjqSjn3RYtu78CtSBPe5gr5wBz5+ezaSVKHIOCqLkb5zKb55/i0U6avSeNHu3/H1Nz87hSJTkn0QK76ahpTiimOEqEL2ik8xZ+7vTqHIFB7Zjd8+fB3ZDmWpOYZCFfM+eBP7DipCkbGWZmPPnx9h4cLNyol6JCAwhISCH8X1ShxJSRJCkQehcQ3suQ0VhJO/xXffzncKRcZako39q37Atx/+5FIZAKTMfQGLf1+hCkXGhtzkTfjxzVkoOo6dVPJaxc4Koch4ymtT1oq8VhOKjMhrv3XPa+sDLmQHhzaCXqdHGRXs05L3o4AL5eFRfFG969SoU7FIlk78safvhf3oHnKcHYYWA2FL2g5H5gERgP9lbGV5+O6jj3A45/g1DLVhzdqLxZsLxb4ppBXG3D4F/bo2F8coWoG169PErs7kg91/fy32AS90veJ+XHrdlfAXOsuCRXNXUQFNEV0lm7/G5nSxi/COw3HFHQ+idaTS4bUk6RfkFHju52IrzsSv6zPFvt4nHpfcOgXn9e8ojlG6EUv+ThK77J7kJR+ohtSE9mPvwuWTr0WImt7+XvAP9Kp7yncvwMpkJVIHNR+Iy+58BB0SlNKnLW0+UtKLxH5tOCrL8McaimeMIQJDb5qCoRf1UeJd5V4sWrhb7OuMXjjy11soEZV1RrS65FZcefNkRKj9fNf/+QcVIhX3VB5aiT/3KELYN7Ybxt/xGLq3poTHZP+KXXtzlP3acOiwbMUm9SAEQ254DBePOp8SMh1aUzHvp23kcVTeI4Wc/c8byBa6yICmF92AK2+9DbG+fAzsXvmrGMDAWDJ3YfEWdWBHaGuMpTjQt4u6jFvhMqzboAbmGYJr4ELCIkSNRVhkDKLjExEQFCKM1ImjGAIeSMJ4ebPHK8+zWOKmM87oeFqbuoYz0Wat2oqm4caJTRETl6huCQgLj0BsfII4jk9oKpq0uV9jeKPI434f14iyaFy2hOIOib9f5nyL4JBQUYvKQpHF8NeffoQrLr4AE0cPxYRRF+Gbzz4Wzac/k1i+4uLzxblZb7ymvvHY6Cgcui57AN2X3ouQ7M1IaX4pioISEH9wHnmlDQfa3YTciK7IiuknBGRQbjICc3chk45TWozFjm6PIbXZOOjt59L0NQYc2rKCLJhCVNcrcOVdj6JLSzU9Wrdhx3ZF/OqM3tj6D/mFwAc9JzyI8RPHw4eTkb0EP/+wFnpeD9oTVJBbsWK1ehCEwdc/ilHjhsLIz1uPYu6Pm+kWEowkTnMp7R4VSVKPxCHX4crb7kCcHx8DB9Ytgu2kuqycPhxXwyKiRS2SkkabUPwMOsk02vDQ6Sqw7Ifl6gHQfcyduOr2uxDvr5wqOrQcJZVKEcJRVojf1qqDtczRGH7zY7hgiDJIDOU78Ntv+5R9D1izOa9V8hpTcEuMue0x9Ovmkteuq8pr9yz5SuyLvPZyJa8N4KhFBTbXvLa+YJvCYc/9FsOjYkX4m71PfyBRnYpFXs+XV20pf6oVKl4/n2OtmHOx/NkOqJhxHvvlfxtKq94h0WjZZyTG3jkFgSdV0DMgL2MH7MLu6NDnxseRmNgE/a+5BfFq5Vb6nm0iGzbqk7F3m1Iajhw0CRf2aoe49sNx3nmdxTnH/r9xuIKVmh171muJJgjDLrsSUQltMPqBeyAqpq1l2J1Z7KFPpQGlBTtQYVHKct1vfg4tmjZF93GT0UyNl1nbVwsJYDSkYcdapSQY2mUMRgzojOjW5+OiMYPEOaSuxsFy9gwdknZQIUPgjfMn3oSY+Ba4+O57EEpneJ3O/YczPLhHDysZgeJixVh0vOl5tG/ZFO2HXoO2QUpizd/yNyzkgQZ9NrasyBLnApoPxsjBPRBJhZqLrx2lCLmMLdhbwv6jR/rBXeI+FpWDrr8X8Y2b4YKb74I2rv9QUpJH9zjsO5GToxSgWl//DLq1a4aWAy5H5xjFupVs+h2ldh7IUYDNSxXD5hPZCaMu6IfIpr0w+raruRswkLcPO4sMZCwNyD2yUy0969H3xilIoDgw4NrbEKfao7S925VvOMMofYa4D8+xa1ZrY/Z7b+KOSRMw+YoxiGuciFHjrxTzCTIP3H4DLurTGUP7dsWvv/xEv3Py7z8eXAvK4m7X9q3kp3yGY6myKRmqA4UF+chIOyzcdyLNdtwP9ZIxl+LvP34F9/nl2tLuvfuK2kZu/snOzMDnH76LIRcNx2+rtqBXvwHi2Gq14vtvPhfCdcGy9Rg+epz6xuOhQ1rTkSgJaEx7dhKBA8RoaO/STCpYeKPllrfRcc3TCMtYj0qvIJgr8+kRHSp8Gon7rF7+ONjmChQHnkMDD8mPc9OUAihMHTB60ihExjXH0MnXQdULyM5IE5maQX8ASXvLaE+HuOF34rzubRDf+RL079lC3Gfb9QcyLZ7iFoWYnYT1UZalOrSY+CR6dmiOZn0vRdcEZcnE0k2/ocjGYrEYm5YdEue8Qttg5NBBiGzSA2PumkTFYqIgGTsLKY3XQ5qsDhdQlDRav2KlVnR64ZbT8gYqPCYXKxUtxqhL0HdAN0QkdsPl91yp2MnKYhwisainvKmidAfKypV02+WmqWjTohk6X3wdWqkRJXfrcmctcE0MyD+6U625prz2pieQ2KQp+l99q0teS7aD/rrltQOvx4W9Oa8dhvO4KxPh2L9EzWvrFy6wir6WtIn+vHVQUKhTsWjsNQG+Hzlq3bxfSSFFr954GrAg5TmkuBlM/D2JZpuzjcEvDNc+9DyGjxmN2MgA9ewJojegOP2AEubeHdA2zi72Kx3R6NBRUeEFOWQoKUT1R/dAa1xq3ixWCDqHvRIxTZqpZzOReYREDL0gTZ1+BBEDEOJHicthR4W+HWKi+aQNKfvzRdNnDcg9FYd3KQnK1BwdE0l60vssjhB07qJ8W2lxinCjPjsZ2oQccU1aoJIFJrknNLqVejYP6YcqOYYjI0dtpg7uh5gQfjsVOHQt0SRRcUN6Sg4Zv9rdY03dpkzjaYxB12Z62OwO2nzQqUuYuKWyIokyZwf0BelIVlsWGiW2h4UXhyf3+Ia2JZvG7y5GyoEK2meBrpQg4dcDTSNsLCfoNxLRuo1igDOPZJCf1+IeMo5I2QJhRgwh6NLcDAv9tt1hRPtOitS02w+gvNQOXUkuktTW1oDG3cXcWFwqNQR0gJcXv7sMyZTx6cjoFx85qNxIcaB1rEsc6KDEgXyKA4oAarhExcSKia9ZhF1/yx3CsGm8MOMdzP1zBX76fRnOHzFKpPG6hgfjtGrXAft370B+bq44x/6owe5at2oZlcxjxMjvE4Gbt6+58TZkZRzFjm2bkZKchMEXDFOvUgzPzRFGu9eAgfR+G0aOv0Kc37trh6hBbd6qNQkKHZq10NLEseG+imkJw3Gw9bWw602IS1JGQ5f5RcNgK8fO7o9gzZBZWDfoLWwcMB0FFLcZvyKywwRPudNqy4cIKFDj0/GggppibxXby1MoadRmk9k7nee1Z06zrxwPCOQJyjmC65q0QpCVUzvZHO94xKq9IMpLS0V80qfvgCgO0jNtmjdSbaAViS0SxH1UrEJuloe8g9Nu6haIeiV9ADq38EElp10q2LXtIAwjxZcD5BY79GUFSFJbqX3je9FvK2lX59sBvr4cr8uRtIfdpNzT0HFwOLmkhbqiMm09pt33CPLtpy6cON1a1TgU0KojDNzP3WGFNbAt/IWSsaCokOwp2UlL6nalBtrUGF2a6kReYHX4o1NXrnbgCcGT6X0ePlTNawVueW1UVV6bq9hZzmu1tpzmzePUeGZBdKKW12Ypee2/gDoVi8JCcPqrbTs9OyHgKt+d39yHD16fgXkfv4G5H7+OH2b/gnJz3dc+nClOukO3Cg+8Kc1RasMQHolA9T1sgBtFK7UDZcXcRK1DZbbSNMwE+QWIYGECghTRxBTl5ZBjHChWO92b4hPhxSKF4NoVv0ClBJ2bmU6ZWM1oItyTdVQ5CAlFsOoe/r5GsaQcCZ5LjX/DkpftDH6e90tzj69/VcfafNXNPFGyIDYBvi7fGBTG8905xH21jU4VGclRVdj5ByCEfoR/h8VdhOoeG2XowuAUFTibsvzJLzW4xkkTLrkZZALod0oK88UxouPg53SPDaERMWK/mPxREZjVoHNlRw8r+/TeEHKf8t0OhEdz53raYwNGQsFWWgKtZ55vZKyz9M21anq1Zi2b3sXitSRXjQONotzigPbOMu7I3MBzpuEjx+GhJ59DEMWFrz75QAwG0eA5v3iwjDdtxjNYIxIT1xjtu3THir9/x7qVy5B66CBysjKxffMG/LFgLgICAtG5e2/soGOOW8fDRnGC42XXHr3x3GMPKsKw3wD1KqUvszJis6y4RNSwpB1Wik883yPXAJXxoBj6e7Kjv0v9KYPyjUBk2hJ4leYhtdlYVJoD0X7dC2i7cbqYYqfb0vtg5dGRcechNGMd2q1/DR3WPY/o1N9R4d1IfdMx4LS1/l3MfOIhzJ39Bn6a9QLef+YBrNxfCqPZB3u+ux/vz5jutMk/zvocReYAZP76JN556QXMo2fmvPMM3p/6JHZmaqn/5HHYKtHqwpsxetLdGDOsByxqqwbbPC3K86hfpoLsloAuBFP60341OKwqvTvTdnXomXIt7VJYhVC6c6bdKGXgoxAPFWWwkY3T0q4P2QgtlXNtHo/CZbKPUNpt4GmS4fx17ce3YfF2bn1RT9YV4vtPLz3rzH64aMIdFP534YKeMcJ+qlfE/yxnTGbep/jK9psJDEYwBxbB+ZqWF/Bk5aJQXgsib8tV81CPeW2RCFOPeW2wIkoZkdf+C6jrKHHG4QBqPPRhTLh7Cq6483FMvONS+JDRKDq8EwWFGUhLUpop9KhA9qE9OLRvDwpLK9W4RJlt1iGk7KV7ybAeOag2aZwL0Hdrc9mZKVIKa8XQX6M2ooz7eNF9PGJVg0fEaeh8fJwBXlFeKhIPL7vF+AeFimMFh3PAgl0tydeAf4eECWOkjJ2fUSD3UAIV0Lv5rOsgBV4STkNHbtNa4svFt+lEImb8XfvB0V+zj9oJSL2vBuQenkuKMZi96Xe1ZynYA1T3UGLnBM9Tp2h4+2oNWARl1t7qu7lzMMe1CsrEGW/2Yxf3mDgMGBbEtfgPNz3ySFqGp1RwZhb0CoMaXsL/Wby6jJb01cKSYHHoowrjMjFPFnda5moM3THjAA92aIhoYSKm3yFRNHHSzUjavw9L//jV6T9cO10fcDyIT2iCgecPFb6VvH8v0lMPiebnth27oEffgWKAy6GD+8VUJMdCmZ/RLmoXB15wkWhyvur6G0XYMpwpxZI4jY6Nw7uvv4JP338H7814BS1at6W8KAqJTZth5T9/Yfast/D+2zPEM57gJuSSwEQUB6n9pwge7VwU1AIxKTwgzYStvaeiOCAR5vI8MWH39u6PQ09O2df2RuRE9YapsoAEZTA29p+OSi81Hh8TilEUF72b9cWEu6bgyvtfwVUTBmHdRzNR4DCKeBl/4QNOmzzh/psRbKsQfXEjel+Hq++ZgqsenIYLugZh+TffnHq9AfljSHxbJLZqj8axoc64YqhMw1HVxIQ2iqD3sy1QbBPHK4NLYUTHE4GrVHoYne6edvn7qtKuXktn9NvchYDDXEuHfpqdYchPfMjPGF7kgd96LsBi21OTeWFGEg5R3pmZmcs3oih9D3LJHPHttooCpOxPcw6ILFLvzeB76+rbuQa9RXsktu6ImDAeNEaQP+tK9qKUk5reF3GBJOwpvHggGWPgSb+V4BF/DVoYUdqsyu+qQc8rdvbYeS3X5HvMa7193fLafwPnnFjkiOcg421VO8FbLVYqERmxf/7r+Oylp7Do93/oHgfWffkS5vz0Ow5tno9PXpiOfBMFZOpP+Gjaq9i2fRsWvP0cfvh+jvLKcwA2YPzNDM+d5CrsdF4+SnKkTJillqWyygjqXecF4z4s6q5NnaBVq+l06wBL7+Y+aQISS5Za0jq7h2fgZ/heF+eImjTFPTbhHptF+S2Ga0+ckCHWxKKdBRw9ZFe7FbB7nIKP/urpmwV0X63uoXOiJpOo0c+N3iUeYaFIDrW7TEPDtTxOSJg53VNGYpr+srBheKUBV+OiI0Eq3klGQy2KuEMO0twj+oy44NDCi95XYbfBdY5Ck+ts+vQOExlDxkGCm42gVfVLdrd7HFDdQ5lXRS3OaQhEkDB68MmpaN2ug3D7mMuvwiNPvyCmoUls0hz3PvqUEHAejXgdw7/Dy2B17zsAA84fhs49+qDvoPMRR27QhB6HwfG8s2nzlujdb6AQwP0GDkHPPv1x4YiR4h1cu9i6XXsRlz746kdcPOYy/EPieNjIMZj+7mwhNl6c8Q6dvxRrVy7DnQ88is7delBeXHstDIu+PR3vIAH4KB0pLiv1i8XWXk8jueWV4rjMNwo7uj9GovE57Oj2CMp9lVVoHHoj9na4je59Dtt7TEGJf7wQnycK2wphcytKERDekk4kU0FQjZ82S5VNrqRCIidIPm+3KAOWyFY0bt6UCoWplAzrLoKyUN218BcodYTeaNqmhfBri4sQ1KuiTcD9uNRdIfRqg5ynpV1+v1MsEg4tnRGVLDi4KVTFzGlX809Ou1q6J1tiq7tPrn90RpQkzcfnsz5H8p61mPv6E9ieVoj8fYvx01/7yd6akX9gPn5Zkw4vsu8lyQvwmXrvPHFv7hkTGkZDBZZ99A3ZYAr9sASEq7bfUlFbXkCBo+VNFHYVHuI+p3it0uLYeS3f5xLPXNMsFVCq57XnOnUahuyl8byCk3J4ZqCEn7n2Cyz+9hP89u1n2JddpnwE/WjzSx/HnXfdTIGbg40HA3Djc1Mx/MaX0LNJJlZvzMOGuX8iYchNlElNxA23jIajwoOxaIhQDNX6WNTISLQ2AzLmbLo0wcW4NSGT8dKeVEQiyTG1mF99oIKzHx73YVGShzvsHvV33IwxoxlJerlwj5bxEq5NyJyhaEfcV4ZRtWst7lHv5H5RtbmH4L5RjKtx52+klylPUKK30zE3I2u4uZ2ecx6p73Kot1b3cx4JKaBv85QRaKLU3T0EPat9N9eOuHZNcP0dDm3nEX03l2Q1px8rDlS9rQqDyRtePjy/oVeV75F48Pb15c9Wj3nJPpcMr44JIGF2EYmoyGilCZ/F1PnDLsZ5Fw5DSFgYRoweh5BQ1xru+oPjl+vSfifDJeOvwFMvzyC/8yHxGYiX3pyFcHoXv/PF19/FhOtvEsKE48Gt9z2ET7//RQhjbppmOA7c99hT+PCrOeg3+HxMn/WJGCTjGQ6wanGqlnMOkfar3+f5/PHgSad5SUcvLyNSd64AvDoigPs56wzIWvulapNnY92eQuegLx6V7O3rB7PBhm0bNsMnpA35Sx2Eb+ZG/Eq/Nfe9pzF/yTZxqtOVU5AQoKQ5zRYwbumPwkRLeyz0PPmC1uJSI+26PF8z7VazWepfFhae4GZ8LzEq2wGjl5/wK+6CYTK5v+tsYjBXYv0P8zH6sRdwyTUPY/J1XbF2xV7EtOyJ4g1/o5TCOHPLVnQe2Insezk2UPwe/Sjf+xBuvL4b1q46SAWpk49vHiG7VbZ3EX7/9kN8/cpj2JDOYR2MgRNvVkarU6hq4a/kfy7xjeykcAmFHfesrdVVdPJE8loOede81q17FP2u9qRrHHFHJ2yyUSQWZZ/D34vsiFH7nQZEnbmIuw882Q24kgqcJnqrN/kU/61zKJC9QhMQFZ8oNn+vqsAMCfehEgVFEvsB2Et2451bxuCl28djY1IZKosykZNvRWhktJg42GEwoy5sVn2i5aFuBozPkeDREgBHy6oaOcL1XorA2pEmmLQ7qws+529w6VnZq0Gt7mHcxFnVfYzbvbSvRZHqCUokPO05/qs9x4m02s9pOEVGdfdo/kMvEjbA1T2ubS70nPaoVmOg3epmCPisdqwajdqoalL15B6+R91RcRP3Lu7hcGCqPtHlPjrHzYTKPgv0ar9nzcPy2VPw6t0T8MbUF3EwSynpVib9hVfumojMAn4BZU4HZuOVe16Bw+dYQuXU4fDh5lqOA5r4Z8HIm3aNV0NxjQvcZaC+xOOp/g5nTM5lAekdPGCF38XfKVaUcREuLBr5OscNzQ/4Lx9zszcXrHi91oZI+b7FeJHiy6v3TcaiFUdwyQO3wtfB3+ZikxsnIjTA6Ew3Gb89h+dvn4BpD9+JjUfCMOqGy+om08k/gN0bVyE56bD4rdajp+C8bjEUl5RfrgrL6mnPxQY676mJW1xwJkLiGM+7iwVOy+qdwoa6vENDb8LKD27DG//bBgMJxT9fm0Dpkba7J+Krz76DNo3q2Uavy0RGtg0/PT0JL9w2Fu9+sYXicTGCYpohsHwdCguzsC+pEp2juW9nJo7yvc/wvePwzueb6d5S9hz1bacP276K9I3YuXEtjmRynbIPht3zDNrHqq1j5NXO8HMNO8Yp/pS8yRNVj7s8z+c02002ii2ya17r1gZB+Yp25Fo54YrekouZZJNXbMuBvaIAb92jhP+r99yMBX+sp3zOPU8+29RJCLLH/jgMeIzE4iNdgINX03YN8EBngPsgc35cPVM8ZSgzDGoxCJ37DUHHfoMRHWCuGej0W+VBvXDHS+/gtmfexM1PvYERvSKFQ92E1DmGM95WM1LsJwK6gW9xFxIu99J92pF2j/ZO7nflivMxF+NYHU1o1fBTLbOnl/OvuItJV/dUPam9y8092mP8V3MQv7Paz2k4BVN19zi/jZ7ld7m4xy1TcHOPu/84f19D+0Z6oadEVCXAaz6rnVE+29U9nsOBcfqPa6ync06Bxf5T7fdWf/UGNhwy44oHX0CXmGL8/M4LKOW2fJ5xXG9W30nPUOYFb7PYPRNwM+2GNSvx8btv4s9fF7o1EXF85NVdrh49DBvWrkZpSQlunjge44cNwv49u+h6lR+dC3ANbvLB/cjMOCpWpNHgb16/eiVuuHwUvvj4ffFdi36eg2vHjcB3X35SswtFA8KcOBh3PPcmbnuWbOojT6BZkGrXKc4GNh+g2OS+56NZjK8zeYQPvAd3P/8Wbn3mDdz44H2INNeREK42P+SeX17DF1+vIkcq/ldlC6rhko6PFafcnq9mIzTE467vqJ52tYQk0q7LO1zg/tVmrlWhy6xjoi58ApPuvh3WHYvw9cLdMDWIGiauhfPCFQ9PE/nprU+9hkmX9kWpMQbdmwNZ235Fpr4pvFUhJu59yP3eSkvtgunU4K5orvGoDL/NfAiL1SmMOIxqtHZpaBGT8wJ1rzacWahr2DNaGFO48y2uea1bPkjPaUdu+bEbOh4/ReGu5Nuc9Htd+xIuu3oEDi5+D0s2Vi1g0RA4ln+dEGwsxjcDRqgzEvjQB4eRwOe/xZSeuVuImX7lvUFKTWM1rz81OAC1rQZ0zhAPn4J9OOoIhLdfAHRcsvfyRqMwE/LYeJtM0NssHmuoGiT0WdoUNlwD44RPiZIr7ysR2HVerepiyJlUFNXEjwicfbRUnKJFiMVa/Jm9Wf2dGtXsVJLS3MOvd63Kt7uUGnTkHuevauJVjZF2q/s73d1TO9q6rVWj5Bi6m75Nexu/XqvRYVynAGGcj6oO0W519x/yEac4OwH3uDqH0fyHYB9yrd10dQ/7j/OIHUIPOeNANXfzOwWqn1dRgQP70tFu/IOIjohA3/G3YdiV18HLUO15V+gdZm8fMchJ2Vyark8RFoq8nN/j998pJq5+9dnHxTyLLAqZj96ZgQN79+CG2+9GyzZthYBKPZSMybfdLZqt3eJxA4bFHq95Pbx/d9x6zeVCBN408VLkqVNCpSYdxBMP3Cn6byY0aYr8vDy88fJUhIY3QlR0XIP+Th0VLjg+cP9d5xq5asTga/zt3H2E+yVrdkVv9BJxifvzuUTzY2Mwu8Q9Zauhmdpehwde+xCTH3gU3dvFU3q0IGfTx1i5IU04qWoNZ8q0Xf2U0q2Wko8lFqvSbrXwoHSmpRxO+a7vsLmmSXrMaUtIuLj/kk4RiV7V5h2k+w0+QQhp0g+DzmuC4qQDsJCnGb34+w0w0V9unuaJwNlPlebLuocHJnE/dN54LW0HwhDuV4FDJXr4BwRQnuoNh45sE2Wrbc8fhDULFyGg9WARvg6EohHdm1yic7v3ZNCbvGqEv2vccdgqEDr0Zdz38ru4+rbb0SLCi4LFgp0L3kJWpdKuovXVV+y0y8POvJL/dznvCt1wInktH3rMa+k57Um31iuBTgnL6rO40ONmv1DEth+K2Egv5KUrI/JN3t5k/g0izDnd6Y1m0af/hNNTHVE9CZ407OAfD5IY3KEc88o4hZXAn6nAqERg3RW0Pxq4thWweCQQ6jKe4FRgve4SJG4o57nCPxrt2/rgp+cfwl8/zcanLz6MTYfN6DbuYqT+9RHm/O9zfDrrJzi8zkxz25mAv9pERpoRo2edRoqECzd78S5FXP4iE0UqDdf+gtx3RiuP8whd8Vctgbl21OV3Ovv8mL1gqMXD2T0ceRm+1xlveaeiXHEPCRzhHpdRYlpfIAG5zekeLmLRQ9rAGoulnF5V9Y12rTO6yYyqRq4qOJ1ynw+mRrU/fZvTPeRv2pQWjJt76DntSCc6qztEB2dGDCxxyRgcFAbindyRuaZzxLOae3gycVd03AwpdkhEkZtca5O0ASwCeodFM0DcsZ72OaNmPMcBI8xO93DyPoAiiy+atPIXfmT3iUCr1s0o86n6FoFq/MRuSTqm33M1XnVuTyHX4DLw5hT46duvsHbVcjw/4x18/fNv+OzHBUhPSxUTdOdkZWH7lk2UuQQKYchzEm5cp6yewYNHgkOrpnxq6BTm5+Oxe24T3/HHmq34cu5iMcr62UcfEBnP1s3KcoC33/8oevbtj907lP52k265E30GDnZPrw2O2iI6QQWmrHVfiT6Ev38/G4u/+Qq5VkrHFOG06HvCcG33pjdd4p6yLUupGlgiIHHI5Un/iGYYfMsDaKYmoX1bNwphafaumnXBrTDLgyPVXU53tTqPTlalXW4FqLrLmXYJTrtKQVhxmWIjxC7BaVe9k4Wyyw8ZkI8/pt+KaU+8iJyKaoKBXsBLNeZlZMIUGQ1vswF/Pns11uxbhk8fvhoffbQQRzd8hRnkJz+v5Hl1q6Xj04RF/9GVs5Ww/O5j/Dp3BSpsgeh1+flY8/Zj+Om7L/Djy/dg0ZpUsqU2GJoMhaPYiha9eohPt1b60b0XYO3MKc57F65OVfsSnkBkIDuz69uHaoR/SrHLAEyCp1Gy60wIS+yGix98SFlEwlaAVVtL2cyTuVTCn+f3dEPLCyjOmsjBtblI5G0k5hmPdpbiDucMHvNa+l1n3qbmaQr0jrID+OKxq/HhrO9qpg/6LbulDGWlFfANDSdnluMDsidb9i3G6+QPf67Zi73zpuK1e27BlpT6HWV92mKRYa+8fzlw3Z/AC2QLIz4B7lsB9IkCukcAncPph+im3pEkHi8HQk4x3+Gq56bDHsSA1ia4FuJYSLS69HF0jA5RM2Ed+l37GCbefCNadxmIyx6djh7RFtijhuGmKU+iR6++GHvDWBjPpQEuFKu44zPD07k4S7T0x67NTUiRkqOlj2roGLcRfxUVzlK1kQQcv0Obx6+0SJkqRkB/nEut+VBpprYkRe7hhcoZMfJQe5YTg+YeVby6Tpdjce2PRQlROxJTHNDvaHPulYope8SueLdFHZ3II5uNteVAdM7XT3EPj8p0KzUWq+6h9xhpE6MWVXjBdSdWG9RfgUE1Apo446kUqvyHxLRYL5ggMVmbe9jg+PkHiH0xSbF2D73C6T90wCMmnSPPCWUdYhXK5MrVjM5A4cBLvCl+6agWB8jAqDV0LF7dsh8LzykZCD8/KkSZfJQO9L6+MGjPUqa76OMX8L83n8U336+liEGh7R2OK+9+AhMffAJtyAq3uGoSGjlcwu0U2LhuDQKDgtG+UxexBnNYeCOE07Zv9y7s37cbyQcPiCmWPpn1NhbOm0Pnd4rnZr05jT7J1dg2bFYv59kYoIzypkIUD5rp0ac/UpIPiv6Xb77yvLh+41Vj8fyUh/DMI/eKcHzojhvFutKutd4NBoq75jaXYfy4izhKusE2OeHC+3HxiEFo3a0/2nbvj/Y9e8HXUYbQPrdhWJ94IepOChaM1dA0kcnHXxkw47JUn83aCImtlDiSn5MlBJSvaps42bkJhjJVLBC8wkVtiLSrTo0lapa0KkKRdtV0Rvs8D6hIu6rbypzpmqBntLSrpzSr3kLocOjPr7E1JwSjLuuK9D1HnNd4PeLMpW/gi1cewMr0BFwxujPFITvZamDVvL3oOWwI8nd+j+VHYtGvb3Psm/sliuxV/nC6cFi2HfUwhl3UD20oHNv26I92nZtDT+cDW1+JGx55DN269cKA657CqH5NYBH+EobR9z6LDjFqn12yJwGtr3De25/uHd2/CXShrXDlXbfAX19NvNWC3lA9vas1syTwtEEgVcFPYt6RCHVaYKQnHxLpyTUvcELnHVpewDW1LqHiBkUaHsjFHCuvZbvvnte6/Fa1vFZDb7JiwwfTUJIwHP27+ovWVw1RTvr+BXz5+pOwJozEEEo7jLdXMbautmJAl0hs+f51HGo0HE1C7di2fJmnLzgj1Jll4sT8/QHg/R0UtLTPfRX35gP7C4CkQk6ASo3jHWRL804136HM0ie0MYJ9KdDVUwIKNN9GifA3V5UUHTovBEfGIzIuAUEBPsJo8PPeQZHiXICPy3Qv5wBcOvajkoYgP0c0TzDcH6IwJ0PsGynisijxokxYo7S8SnyUi0m7FcScYJQI/NSIzJOY2tREwe8sV+eP8gtpJN5ZHXaPbyN1gtuiAlQ63aNDQbYyWbeeS2d0bAoOdUbqUhc3VLgItUB1wnA/1chbM4/Cpmac7J7SQmWRdi+6r7aO6VwD4BupjLLlqSqc08e4uEdHCZxrUo3+gULEMqUFVYu/c82A9q1BoVTKYT/X5kTMzoRV8x9yV1G+0qxo8g+u1X/oJHwiY5V9Et5qeZTQOcOLmyc4w+J5KjU5XaJNvE6IwR/c1kMEh0WJjMsvRK1ly6sWB3K1OMA1iC7uEW4mg0qWKPOn25UO9HdNxM7cYjXx6xBI7w5uFIWQEHIFP6s3oVFsAoLLDmJXURgGtok6+Qy/GtzcrDRFKm7m5hv+9oKCfAwYfD669exLcSAIH371Ix5+air6n3eBuO+reYuFyDoR+LuPpKXiaHpanWy8GsvJwrWi3OQu1oRmv6SN51fkgTv8zc+88oa4b96fKzF91my89dEX4r5Pvv8Z3agQ69bs1YDQ+zZCo0ah7naXYZsaEofI+CaI0raEBJh1NhgDYxAaxFNOqfeeCHxzUHM079gDrbr0ElvLDt0R7mOD3suA7x+6SsThj+Zsg7bkLos7Z4FUFYbeEep60fS+Mq3gS2h2hNEKuzWgZ3yi1LRLAqCcvlFBhyJ1smYujHKLCRdynWmXbIT2qRyOWqtFSHiUCGON9LQ0BDW7EIltL0IbLo05cZA9aYTgcLI9Rak4eKRICF/++bYXX44u3bryr2JAv+5o2rYb3V9IYlIzdHUA29AwyjOdYdkUUXHhokWD8QuNFtfCGoWRO6oIjY6ByelHCtq94eq9OpMv5bsxtVc8uELvCYjr4Ax7Ef4de8LXaEdlQTJeu1sZBPLzVtf5IKumehO1u/wdEcpKOyBx55o3FWp5ExVAnSKwGiJvO05ea1BFomtey2lco0Zeq6KvzMfeI1Z06NMHLTpdBG8XXcze7BsciaCQUAr+HTiap4hPG/3pNOpK9Bzck25oiWEDu6Jds2Cyi2UcEeuNOi3Gsru1EVw8SWq37+kjvwX6/6QIxR4/AL9q676ddSi5e4gsDRKKwN6RcUren78PyeVK6VtvKEPybmWGeN9ARbjYIhOovKeQnpmtTmOhQ9YRdVUCIiiMRBC9rBFlaoKkDSiwaeIsDzkZioENj4kUiacGdM4Uk6hMD1Ccgv2lSulPp6/AwR3K7PnePgHinD2cDIc4A3JDqprIScTlaAslkcGJJBeT20OC1ISVthFZFiU30BsKcDSV6/x0dB+JVw/u0cc1U0RgWSb2lij9N/U6Cw7uVJc4I4PFGbY9OBxqVoKC1H3Cjfzu0qKjTqPeKIaMABsusXIMkbUVaZWKnxv0xTh8QBHTQWEkXj24xxHfHKJesrIQ+wops6Mf0lF5M3m34h69zhsmLxPsfkGIVjO+skM71IoMnsMrkzbl3ZFx5IMkHn0i1Ewsf49LHCildyrL1vmR/1VlTPTX2IjckIXcTDsaXTIdD7/0GPwo1JyGlkRkvzGTMeyqmzH0gvb0G+q36AxYv2QxQvtcC3+e2uA04WlleMSw5lcshHkOS19fP1EDx7U/7G5eyaSCS+VqNwjXCd2PCz2/ae1KbFm/uk62Xds2Kxb8JOCBLUIouDRJFReTMOeCD/m5VnNcXFwkvq1UPeY1pGs0mf0X4S4b8efh4ok3Y9iVN4pt+NW3oHmohZKjGQHqwhhFuUdFoY3RkzDNyVAm0fbyCxDxyB7TBMKSUBpOyS5wTuVzJKUqA/IPVmoPa0DPc9oVItBSgv0FFvE8r8F9aK+SdqHjfnVecFDhLFqdFqYieStsPL8Vp3JrJmXmShyIjHMRi2RzK0mAGvxJqFJB0OxNhQrlivj0kK4TcMkNj+GSC+Kx8vO5KFX73un1VHCkv3ykdAFUfudfh92CqG7jnGEvwn/iDQjxIj8zUKFarQzOPXJI+KUCCfpSRZgHhVL+QGnPENtUaWEpTcc+yguEb+kqcUDLC7z8nPGnBpR+nQV9ymuTaslr/QKDRJi657VZnvNaDbJrXLfN81E66GaxIqQKh3+rCyZj1I2PoIl/Blb9utIZN/R6C4U/3Uxu1pGNPhvSxYNv1S0sIFt/DaRUTXZ+1qkI6Id7pj6hHjUsdAYzMlZ9gl8+eweLF/2lZuxWhEa0pQjKB7lY9tV8OIxmZK77CdqgqfC4VmznKFK1RIsmSmza/dtcpBZTQFdmYPUypR8YTF3ROIpNjx6tO6i1cdiL9St3wmjSY+/PM5HOlTk6M1q38GeNUgtWEiYdSWvw7xRh2ac/UAnOC/k7/8AaVQP6R3USkdrmaIK2bZQEd2j1IiTlWWG052HdH4vFOejboFk8Z5QONG2pLMdEsQWrf18Lg9mIpMUf4CDnqfSyZk3DPbjHBqNPZ241J0qx/ONvUEruLzm0BquSlEzY3KgHt9KSGItBpy5KM3PGriXYm1kGk64YGxZ+K9YQha4J2jTh5g0bYhJaiPvoTqycu4RKyCak/vMFdip5E+IS49y6RFRBCdrUBcGi4qACKz/9BoWU2VVmbsfKPUqpUxfSF37ePIglFF16KCK5IG0Vdh0uhNlQgc1zP0aF+NZotG9BGZjDirAoZY1fjgPLv1mgxIG1P2KTuqJUo7gWIg4o8A5lmoEO7Fy+XamlUC4cG/JnU/FarN9txsgxnUXmebp07dELBfl52L51k2iOzso8itzsLLRs3bZ2sX0ykPu4EDDq8okYMfbyOt1GXjaB3q3E3ROhWcvW4ns2rVsjhDCLx327diA0LJz8//RF938Z7hPWKE6xV9adc7F8eyZl+l7I3vQd1qsaMDK+Md3Hg1jaIUGszGfHlnk/4EgZZbJlaVi1Zru4D959EB3GiUuH8r0LMPeTmZj/5fsoEP1QKO0buiBMCFMLVn/+DfKsJlhzd2PlTsXYOoL7IcCP024QpV2lDbQ4cy12JOXCbKzElp8+EP33KUWiA89friUh2uHR8TZeYYTiVUVpcS2STwczF5rLCsjK1rz6X8VIYe3Di2sQOcs+QEpOJbzMOhz8YyYyRJnLiFadIyn8LVRo6Mzd24kSLJv9LcopLyjavwyr1QHTPhHdKF2TT7vmtQv/dOa1IRHtxH1KXvsL7NXz2liXvLapEka7f5/nzGvXLFslzoHyACWvVSGRyNN6V1BBmUVfaS2mlUfi+5i9YFVXbGso1ItY5AyPaxadtRkNAmV5rgYJRZbS9G04uHMzkg+mUN6teJx3dAt0DFMyruyt3+KtB67Dl18tUgWAD9r37i727ZVWtBh0iTiLkv34/rmb8PqTjyNZnV+v+ehRCFD7V4T3G4tYtSp860+vYvr9k7Hgn/3i2BAQj8SQQPKp2jEFRaJztNKUU7TvF7z70LX45KPvKAExJnS6YJDYs1da0OzCy5XIVp6GuS/dhumPPUSiSKk1ir9oOILVJdWCulyAJmoXj32/zcSM+ybhp8VblBOmCBKVMR7dYzD7o1OiUmdYnvoH3n/4OnzwNgkuYan16DJyBAy0z31cE4Zfq6zWUpmNhdPvxrSH78Wm/UppJrLvYISp7vFv1ROt1Naq1JWz8cb91+O7n1YoJyijaNWm5TEEmBEd2yhi05qxHB8/eh3enfYWisWatjp0uXSMaL5xWG2IGzEJoo7XWoQ/Zj6A1x68A6t2KLWFIR17IkIdQe1NRqpDqCI6sjb/T4kDX/8qjjkOtOvZrZp79OjUqT1S/3odq9dsQtLO3Uo/Uc+OpnRqxZqvPoNf604oT9qOwwf2o8J+eqbiimsmCWH4xP13YtyF/THpslFi9ZTJd95LRpfCpFpt3KkISNFsfwa2k6ELieLO3XrinRkv48WnHsW9t1yPfXt2YczlE0TztNPb1R0RNQXHCBCJgt2CxI791IMyrJz9GKbdey0+/3yB0+a079JFzKVqt9jQps8QcRaFO/DN05PxxjPPID1fsfltLh0LX24mJtNqzT2IQ7u3kL3dAjKdClQo79BeEQy27NX4ZMr1mPnydBSI2kIdul4+DmZOkxQ/YintBrCJtpViyayH8doDt2P5VkVVBLXuCpIvLqHrQGxcHAr2/4b9m+Zj116XGhR6R0XOQaRsX4K/floJb0r3AadbkPoX4TD5o18Hxb47ytPx48u349X7bsQvv+8S5wzBTdAlnIQ4ebbBLxid45Vq6NLkXzGL8oKP3vuCpD+HhAFdRlyk5EfcxSl9u8hrk5Jc89rmzrw2Z+t3eNstr/VG+z49xD7ntS0HjRRnXfPapEwlr202arQzr2Xs5mC0jDViy7Kl2LV+EcpdJAj/dOGRvdi/doEodIS3asdRosFQL2JRUjfY7L4YfP8ziNA6yTjRo8+NT6FZkBbzbAhrdzGGdqpazFzDK2YwLugWK/qUMpW2KIy4ZZJy4EYoLr77MfgYq8xcdewOM/rd+TQS1JZjV7pc+Sjah2uW1wa/uEG4uLdate+CLqQnhg1qB20aLos1FEPvvkeMVHPHH8PvewYh3p4zbwcZge43PIY2jWomsVYj7kK3aHXaAzLexqBuGDmktThyw7cDRlw8wOk/VmsgLrj/cQS49C1R8MKQe59DjJ/2jbXT7rJ70DWuZo1S/IAb0DdBpzY5U2bi1RYjR/YU19wwt8AlV4xRJhMnbDaOA8+iUY04YEDfm55BU2ccqKLVyHswdlRPbP75Xfzw9SLE9xmPhEBf+m36SLtV9RPyM24HIeFamXsYKw+UoXDnr/j2vdfw4wfTcLSiqpP2qVBeXo43PvgMM97/BMNGjcPTL8/A5z/OR0BAoDDQY6+YiDseeFTsc7P08JFjcc8jT5y0WDvbcP/K52fMFCu0HNy3G9z8/PbHX2L8VdeI6zywp1vP3lCWayQxERyMTl27OwdUSI6Fg8TXUIwf2ko9dsVINvAFtIrW4qkN0b0ux5A2NfslBjQbjiHtQ47bD7fVqNvRM6FGwkdMr6sxINGgpl0q6BhbYeTYAeKaG8amuOTqK9X7qmg8ZCI6RxZj8aI0tO6eSO6gGzj50bXsFe/hh0+/gr7dKEy6spdYIYQnd+B+2twMbqX/RAFDTbv/KUjANxk/Bd1b1pLh6CNw8W0Pw6T2N3A4jOh1y5NoobURu9BuzAPoHHFsv1Py2mdrz2snP+2W14a29ZzXXtQ9zpmXMHaLAV1veQRBR/7EhmQ/RFDWIFqz+BptW+ZOx4Jf/kbLUfdieH9lPkK2/aJFUdhncjfZSDsVnNymaqoHdO06dFZcehyKCgvR++43Md9frbGqY7wc5Zic/wksupqJsz7hfgxZaSkIjxZtGGcMh70Mu9YsRwVFnugeQxDtQ+fUazx9Qf7eJTh4tBLGwGh07MTNz+pFUfzMRfLe3SgsKoPe7Ifwxm0QHan0oXCF55rK2r8ZR49mw+owwD+8MZq0aQm9WmumwdXelrxkJB1IRmmZBSa/EMS27IAQP2MNQ1cTco+1CCm7dyC/sER0ZA6Na4242FD6RvfIzCOvc5O2Ii09gzSJHn5hcUhs2xomm1Lec0KlPXthGg7uP4CSUvIDnyBEN2+P8CCvE3KPjvw2dfc25OZTqd3ojZDYVmjcOELUArjC7ilI2Y7Uw0dJpAI+IdFo0rYdzA5NQGno4CjNRNK+fSgqKYfBKwCRTdshMpQFl3rLMdBReTZtz1bk5BbAofdCUHQLJDSJISvgbrDYPcVpu5CSkk7xwgHvoAjynw7w1mkiV0ONA3soDhRzHPBHeALFgYjAGnFAg5dqM3Jzqs5B/kBZDmVC3C/RbDaBp00Sj1G8Mxt5zW+raN5TzC7jgLWiasqQ2ijKz0VgSLhYHWlYn45i8EptsHji5lgWqq5TTfB5FoqaOFSO9XRc06jzfcmH07Er+Yg49vM2o39XKoXT+TMF++vyjTtQUq6kHV7PemjvDiT6lNHy1RHzDZqM4jlexUVLC/xdPOKf+2/+n72zAGzqasPwG29TV9xKcXd3dx0M2wZjxjbmY+7yjzlzfGMMhm64uzPcKW2xUureePKf7yQtLbSQtmmbNudhd03uvTn3HvvOe5yu0Xea7a23fc8J+ed2bBzOXArHL37P2M4WD/TkRvrz6JR5wHqimOHpxT/wHhthD7QOYFr0Zdy6cRMaHUural9UrNUAgb7uXFTlhNbLiwk7iZjYBFboKuAVXBO16tWGJIcNNNw+hdNhcXwoQ73WPeCeI+lKWN67dekU4hOS+aRJ70q1UbN2NZYAclfKKO9m3LqIa9eiWN41w807GDVY3lVL897hSaagyV5MCJpp+0AjyzdmviWndT1JJkBZ+qJKE7+X0phRx0SFhOVLJd9nm/IurblIq0vknePvJSkuBgEVKhWq1d7RUNpOT03OnkBYEGRSC2IiLiAuLo63BLt5B6F6vYbw4EOMbDdxWFlgysD1S2eRlJwOidwdflXroVo167hGfgezeSmsrA2nstaLlbXNi7estSKxzpAmsc/shMVAcYtsm0tuU1d6lhikJfNMeg1LRwq+gDvZClq/VMbSj4EKLjug8I65eY1P7t266EfbWauu8/LOOckqf5xGLCqhw9Sk+S4jFgWC8oS9YtERkOG7Wyx2atGQny8uyIDvP3HebrHoCMg/WWLxJ38mFu1VBYWkkf4COmdmDbEoXooiFgWFo7yIRUHBofAuUbE49Nl3oJHcWYTS0XiZ05g9LD6Dbw9WsXgDwVWqFbdtFgjKDalJCfD2DeBicUDHZsUuFiNvRGWLRfquUtg/CaWw6FgtPqtFwSoWm2avw1kckL+iY2Jx4tI1pMnsM+iFhXyltBjgZrFvmaKikpaUyJeI4UMhBMUPi+DEuGgEBDuPWMxIS4GHdx5dygKHQ+F9+3pkyYnFEdPetH0rv1CgUsF3dzOzQCC4HxL4+AfAxAqi2lUCWf4p3kpfplaL2KTSmy1I21bWrlr8/tQbDLgVb5t6X47QazW5F8QXFDtUtnn7BThJ2UblrG1qsaBEoN2GPL39sO3PkmhZfOp12zeBQCAQCAQCQVli55JfbZ+KUSzOXvSX7ZtAIBAIBAKBoCzxyrNP2z4Vo1jcvnef7ZtAIBAIBAJngLqYBSVLWR2qNnzQQNsnIRYFAoFAIHAZ0tPSxDj7EoTCmvayL4sIsSgQCAQCgQtC5bOvhxpKlUqIxmKE2m9p0plWr4fCrfhWhilOhFgUCAQCgcAFofLZnxX6c+f8hooVrVviCRwPLZnVqVNnuHt4QKXmG7SWOYRYFAgEAoHABaHy2Uetxj///oMJkyaJ1sVigrr7E+IToPb0hDs7yiKFFYtib2iBQCAQCMo4RrOJiUSxyHlxQhLcZDY6xcLmJY0QiwKBQCAQlGUkEpiMriliShSLhYWzySV3HhJiUSAQCASCMg6NpxPdz8WPiYWzaFkUCAQCgUBQpqBZukYjE4uiZbFY4d3QJMqFWBQIBAKBQFDWIBFjEi2LxY7RZOZ7w7saQiwKBAKBQFDGMRqNomWxBBDd0AKBQCAQCMokXMSIlsXihSa4CLEoEAgEAoGgLELdo2KCS/HCxywyoeiKolyIRYFAIBAIyjgmkxFmkxCLxY1oWRQIBAKBQFAm4bOhLSbbt7yRyuSQKxRQ5DikNJW6gMjlOdyQy2xnC4ZcLrd9Kjwy23uQWzJZweWMjP0u568ofGSS+wcIF+VCLAoEAoFAIChrcBFzn+5RmZsXlkxrhNrVq6BuaC2EVq+M6sE+WHPFzXaHfegzYtG7WRWEVKuMWsytwC6vQeWhtF21D6lCglE9hyJRXbDf5UTpocZ7fQO4f2rXaYApb8/l3cT2IpWr8GLvlliV7MGXHpKpPLDp5Sb4dOdlsNfLF9GyKBAIBAKBoExinQ2dv1wy6TIw5MON2LnvEDpVUGHailPYe/gEetXQ2e6wE4sZ10ztseHEMezasw9Hl86APtNgu2gfpMWSEhNhfkAr3n1hv41PVWHe7n3YteVftE79Cw8vuAj3+ym9HJiZuG7X3Be/zD0GiVQClfE8fvzzOnrVrgZDfsFIE1xoBxchFgUCgUAgEJQ1TLT+3/22oWPX1P6VUblKVagVMvhUrIYqVavBXV7wcY4WqQeq1KiOqtWqo1pFv1KbWGORyFGhShVUqRaKUU8/jz2rtsNsb/e2xYT+gwfh8u8/Is0iQeLxAzjqNhChNbxsN9wL+ZJPcBHrLAoEAoFAIChr0HZ/JSViPJLXo1u9hmjXqgU+/PcklEVoICwKFiZhvHx94eujxL4/f0TTPt0gM95/3GZOKvYaghap65GcZMHh/ZvQaNq7CJIabVfzxrpEkWhZFAgEAoFAUMagMYuWEhIxmV5d8fv6tVi6fCWm9WyQf7dtMeNmTMDoFs3QslUnrNMNxKoXGiPTYH8Y6CTNMG2MH7YlarB/60W8/lwTmI339wyJRbHdn0AgEAgEgrKFRMJnQ5fU+n8WmSeqh9RCjZo1EeipKtDEEkeik/th4a492LlzB+Z++RI8CvgiJq0WLZ96Gv+sWoKTqSEY4qXHg2SgtQVXiEWBQCAQCARlCOoFLskWL6kpFVcuXMTly5dwMeIWLIVYf0dq1iDi4kWEMTcuX71FerdQ0HjJwo+ZNMC34lDcmD8D8vYjYHhAqyI9h48NFWMWBQKBQCAQlDV4y6JdIsaCui3aoZLq/mPz8kMiU6JHo3S8OXkqXnz+OTz1xjwY3BS2q/ZBoqtDcy98+PgTeIG5Mf2TOVAUcJ1ECxPH9Vp1hDsTmUWRbnIvfzzVtSeGjhrwwFZFwlWXzpE0atLcrnBOS03F9r37bN8EAoFAIBA4Axnp6Thy+AjOnTmFN996qwgtbYL7kZSUhI2bNqNWrRA0adbUdrZsMXzQQNsnq67z8va2fbs/omVRIBAIBIIyDo2lEyKx+HHV2dCiZVEgEAgEgjIMtSzu3bsX506fwtPPPCNEYzGRmpKCA4ePoHbt2mjRsqXtbNmisC2LQiwKBAKBQFCGIbG4bdt2GAy0k4oQisWJUqlClSpV0Kp1K9uZsoXTiEVJUbbvETgdrlBDFWn2Ds4Y3yJ+7lDU+HGGsCwPfnAWssIyPS0Nly5dhlRq78gyiwjHHBQ0SXp7e6F2aKjtW9nCKcQiJb6U5GTr/pRlMR2y15YrFLAublrA1FNOoYRkvwEqe5T5NOtg1B4eULA84Czw+ElKEm0lNjy9vCCTyWzfCgaNtSJRUdp4+/gUWqjo9XpoMjJFXmUZQiqTwouFJSmdAodnVr4S5RzHm8q5Auarshp2TiUWz587bztTdqBN2CtXqcwXGSU/uCkVUNi7x2Q5hARi+NXrCK0TWu7FIo1DMRkM8FC72866HhQOEdduoHbtEMicKN3TeyUmJEDJDLmS5UlXRSph+fFa0fKjmYnFK1fCEVKjWqkUdPTekTdu8vFeBRY3Nowsn0ZERCKkOvODC1chUtPSoXJ355WHwkDhnxAfD3elEnJ54Sof5QFKk9zuhdYu1+VcTpxKLF68cBErV65ASGgd2xXnhUzWjevX0L//ADRt3ozXMCgT+Xh6QKvRID4uBq62/qaciYVQFndnLl5mf8t3JqI0S2JRxgoeqhxERd10udo2xW+dOnVxlsW3s4pFT3c3JhT0uH07hp11rfihlkSKnzMXLjlELDZtWB/hYZehkpbUjE4L9FAihIlEnsaYTSmKWIyMvIpG9eogjPnB1da7o7Wvq1argQyNFlKWT4sqFn1ZOZeZmYm4uFjbFdfBWs6FsjQZJsSiHRSbWDxw8CAenvSo7YrzQt0yxw7tR+fOXVCpShVmmKU8E3l7qHH54nlU6zQYzX3NLiMYNWYpfpz1LSaOn4Az5y+W+0yUJRYlTCCmp6agbr26CPTzdSnBOHf+AgweMhSnzp53WrHowcRiZEQ4y6ed4aV2d5n4IV/O+uEHjH14PI8fR4jFFk0a4Yt5y/Bb4LQSWTtNzwTOx4lf4pFHHsXpi5eK3LJIYrEJE7z/bN6BZyaNsV0p/9Ca1buvZkKdeIUJRQVkCkWRxaI3E4vnz55B3379oFYpXcjuSfDNd99i3PiJLlHO5aSwYtE1Qicf9Hod1q1egUaNGsPP358lljsGjDKNiSnEhp4GpLNaXKbWNQ6pUQsZGQxXW0eK+Zm2ylIyoZSh0eQZNuX1oFTv9Bvjs7xI76iQy1wqfrQ6PVeMxRE/hZNrBac4nkPh4SMzIdOFbHNappaVR1pmqlhacJSoY+FI47XlTIm6Ur7S6fXc305v95wIlxWL1LVz5OABtG7ZChUqBsP9rvFqXC+xI0Ojg0ard5kjkx0klF0tD5GfyfxmssI5r3Apzwd15Tn7Xqdmih/2ipQ+8/JD+T103O+uuBft/aC0YGTp1tXya6bOwHu5HJUastxytXxF6YbbfEcFpAvgsmLx8sWLSI6PQ3ClivD28b2nWySr9sYNtYsd1kzkWmqRpCL5mQunu8KjvB9lIr7ZO9LhivFD/nZ0/JRUq2JxQeHBW4buCqvyf1C5xPzOPjsE7h5z19XyFfOvK5ZzRaGci0UpPGipCUnujEWJ5OjBfWjZqhWCgoKgVCptV+7AbgFLTrZvrgX5mjKUK8Hj2zWjm8e3c0e3xGrgXTY/UqFm++IAeCFZwmFJcWe1KY6RqeSW5S677irw1kAHJQhyy2XzFUuKrlbOFYViF4vUYqdLi8etG9cRl5iW3YInkUqLvXar0N9AvzrV8V+Sp+2Mtft549p/ULdOXSYUg+Hh6ZHnYGte48hDPZgyEhAZGYnIiAhcu34TKRqT7UrRkLCYSLh5FVoHKRaLQYNrV2/BmFcoaxJwPTo+//CnDORqmYj7uaC1TAlio67iamQETw+R4VcQnZpniOeGRXbCretIM0lgSo/D7YQM24VCwtzTJ9/C7VQDS8u2cwWBR7eT17ApfgqdNySwpMfiZhzZH+v3lNgbiEu3uWfIxFVbXqHrqdFXkZih4/GoS0vEjWuRLK9HIUNvtsWtBdHXI5CsswU2C39tYhRi0015hr9El4xrN28XvkjOip9CRa5zQG/u0Lfn+dX2OT9YeOmToxCTos0RdBIW3QmIz2Bxxb+bEBd9g8X/NcQmpfPrObGYDDz+k9L1tjMM5pgx5RYirt6GKcc49/thzojHjegE27ccMLcMKdGITtbxmc4PhPzM82qhU1Nu8innigzZOJaPuG1k5eWtmEQmzih/SZEWm8NmsuNGgiZPv8ey8jAlK48VB1wpO7ndcyKKXSwaw1ZjzJCJ2LR1Mz6aOhjf7E2FXKXG6veexEGWMYv3BSRwl3nwZVGyOHv6FMwGI6rXrAEfXx++dU9eUM0tr1pHwpZP0bHbaPz666/4fPpYtO4+DEmaomc2pYcEnwxtg+OskHJEmOhvHEH7NuNw05LbfyTSD88chXa9noRUnveTeCtOHn4vz1jj2/bFTiRyBV5mcfbqd/Mw57df8NvPP2D92Qw8aFKdVOmOz8d2w+pkJW4tfxLj3lxlu1I4FGo3LHikMVo89Rc83As+k/lOq4/zwt+xkAWkTCnHltc6oM3Ij6Cm8JHIsemrxzDyhzOQs1Iq9tgqdGjTFmFJMmab0vFxl5ZYdiQWmfHH0b15fTwx43N8/OJING7zBGLcPJiAMGFyv9Z47L01/I0kSjWOfzcCr66Ng1seS9adnT8d7TuNYGKzcBVLV8yPD4LC40Gta1KFGld+HY1pv5/IjheJ0hP7Zo7H5sRMqDwUWDu9E9oNeAyff/AiOjRqir9O3GLlxR0M8eHo1bEVpv+wEXKbbpGrZPhrcmN0avMs4rzsW5s1efP76DtpJkx3vbLcXYUljzdCy8cXsLxr3zqiZKcclRxIKlnTlmNFmYzlic8ebo0Xvp6DuT/OxMgOdTF+9iW4e3rj7xc64IlPfsC82b9g9q8/4699N6CQ5X6+BZmY2Lklps2/kEPoOxbytau2qhaGYhaLEuxevhz+42Zh2jPP4stPXsD+n2bjzI4l2HH8PDbPm414jRQWfRK2rvgdf6/YgHijgv2KGfALe7HzdAT+XbwQ249cBKWlyP1rse/keSz743fsPx8FBXt7mRI4tXUZ/lq0FDdSDcxDEsjMydi6bCH+2Xwol0ExGg3479ABNG7SGIEBAXBXq21X7oX/Lq8cyd7Dq0YHzPz2e/y9bx+GpB/A9vgkUBEtVajg4ekFD1Z4Z6dviQzuHp7w9PTIlSHoXk9+r3t2JNAK8jKFG18OQe2mzHbjHnfZa7kxN+V0Lzvv7nbHyMhV1oVa3VgBmZcUlxhTMWtFLGp4xmFelJyHa1642iwxiu/CtK6Z9O4Y9+nP+Pb7Wfj2p9/wTBdfmJgzPB5Y3OSKR5nCGo/uSshsLeuh03fh3Iqn2ScJPDzcoWBC0tPTE8psIS+Byt2Dn1Mo3VgauLdy45awFfMOsvS17RfsSSv4wuL0Hs7esphvfrQDeWY4Zq4ywT96L5bGqSGxGNGoeQvc2r4DGqkSYRcPw8tXjqtRtyFLjsPONKBhw6bYO/MxVHl1Ow5tWozFG45ioGw13v35OHeTBP+ZDZ8hhpXcFH4Sls/zbBli77zwn4toUFeNeVdN3GYVBkfmx0IGY5Fx3GNZXrUrPNgTKV5yRIy7IhKL1kZhaJAH0g7NwZN/A4dO7MeiFTtxfusLeO3pb2Dyyj0sSSr1wL5d21hZY5WR8sTj+G4vu0dFkWn1lcJNfY/dJpRZeVfObHseCUSVtA8/7VZDtXcBtqXal3fJ7w8SyvbiSLdywyo4RjeM+IDZxp//wKZV32PXW88gwsjCwKJAn1e+wixmM7/5/ke8O6o+dMYc7yBl5dmlHyCtFopLf/8MvTmvjOUAmL/FxDH7KaTpshcL6jZvjOurvkB4bDIU9Ufi3xWvo2bjrqgT5IVGvfvBz9sNK14fil3JQVDf/BeTHn4XWosM0ae34IPn34Bb5SCseONRrIoDwrf9hY8++AEVqnriu0fHYafOAzfmP4JPVkeiVnASJkz8GCZfNTa/1htrwixQpl/GTbO1u4EyxF8LF6BOaB3e/UwZO6+xillYW+fzSUjMTZ1Oh4yMFOhMUmYzWMEvs+Dwb0+jpr8nGnQahys6M29yT7+5D30bV0XFSvXx9dbrVKrwbZqOzn0K1f3cEdJqOM5nmHhEsNtxcs5TqOShRPuH3kGKgQQGcGT2M9zd+h3HIkxjgruPGVPrqvDnT0+iBvNvr6k/QssylEymx7IXe8OPGahHPllhM2M5kUCTHI0jpq746K12+GbmljxbF8nbxWNAnBfu50KUx1TrNeoM0Gp10Gm1MJgsLM5MWPT6IAT7eKHdQx8iUUZVCQnCNnyNED8V6nd/FjdNbvz3x95vitr9v2EPv4Gaof0x/+PBCPQLwgdL/2NCnsWpJB6v9g2Fr181du0h1Oz2Mv9dTk6uWY2M9i/j6SYx+Hd9wXdPsi4hYfvirLB3LJxhlyD64ilcqDgBb44PxM8/76VTaNCoKTTh25FmVuHM3gi892Fv7L5yE7q4GESb26BuXS12bL+JR0bXRHpyBjRaM77afh6fjKzGXdVl+OCxx1th8veXoLyPArSY07D7Zg18+vUw/PjVRlYZLHjLr3UiB39tB8EimwZslSSOtCncLetRUDJ3LMSRwEfg5ibHiYOH4d36EQQo9MhMZ+VT3adR/dpGHEjPWSGzwGhsjzq6I/g3w9qQEXZoD27XnAI/P2opZuFo1uGrqV0R4OGBzuM+QazJKiplsiS8M6gefH2q4MddEbjX1EqYQN2IhKbT8VzbFCxbedp2Pn/Iy9zfhfB7XljDkf2vWJIDCztWTuq0GfD0rsSeEY3MTOsVo14HLV3TaaE35jY+MoUE//7vBwz+8lOE3NiGNJ3RdsWxcL8LsWg3+Vs5B1Fj0AzM/Ww0fn5hJEaMnIJjSTJ4BldjgkaJwBq14K3fiTVnK+OjxwdizDtfo23mOqSk6WA2aFGNZbzBfUfhuRf6YOXKK5CatWj96Hvo0Xsspg6vgn/XnMO8BSfxzPtfYcDol9BatxeHIqKwdKcezz37FAY99BiqsoKakkNGejpLtBpUqVoVcqUCKjc3aybJBzM1UOd5XYq0K5sxqE8PdGzQAhd6/YgBlf1wc89cjP0qGav/u4DPR8nR78WN8GBCbtbkURizcDOOb34PC8b2wa1UE2L3/YrhX6TjH3bv7Gmh6NvvK2hVzBDp9bhW7UkcOHcOwzLm4pNtUUg+OB9jZiZiFbt35lg39H9pIxO5MqiYKNmKh7D/9HZ4b34HR2+lIWzdN3j2Hx9sOnkaLwyofm/+l6mQ+t9PqDZ2EoY364a4ZZ/gpjavrg/X6/ZiPuZHQVGqtfh6VHv07d0TXUa/AguLmzM/jsXPV9rg4IkTGKRZiie+O8mCPhpTp/6MD3eewTp2PS0qkf9eIldBxVssJPCM3oO4tl/i0P6f8dfb7yHVS4E1z/TBoUpTcfTINrjFRUGttorMbKRyrF23HT2ffg7PPdkR29b+m91dZi8U03yWpRNDsUP/ClyqydxwefcitJ32DB4d2A3n//4OmSYJfBo2RrX0M9Dpk3DohhYPjRyJ83uuIDX5CszNB6CWIgWpmXJ4M8FulsiZWPdD5ZAGqFXZ1+quidmih95E1GfDcfC2VRzcg1QBy5nvIe06HL2qdEHmms9xJpcQsRMJ5UdHxk+xKIMShcLDmh4KggR//7kOvZ6fDmr/y0hPgyzA7063MwsWpVsGUpJzh4/ZmIi+vWrjm1kneIvy4c3/Ytj7T8JNa2TCRoqNL7bGDq8xOHb2JKb7rsSYV+ZCJbdg7bMDsdVzPA4f3YkGbiY+BCgXLH1s27gB3Z99HtOmdMbuf5baNW7R6nfHpAfqUSiuhgELq5C4+7jDz0uFNYu+YzW0x1CTZR+p3Ii/pw1Ez5490XvAcFxNsq71moUy9TxmbtSibR1WdvaRY+5FA5QOVyoSnn6Kmq/k7m6YP70Xhg/oi9FjJmD+RqqsS3Br7x8YOXQghrHzQ/t0xZTfzkJBq6pnI0PSja2Y8OEGqFQFr0CWBsUsFlmgRV6Bb9Nh+Hr5QXz1SGVMf+RL6FiO4BmdJVJJUgIy3bx5q4HR7IdgfyM0ZutAcrrLbDJCpfZFclIi+87Ost+YzSZ4eXkiJSEeSVI3zHqyAwb27o1EHz+o0jKRLHGHglXjqIk9y4O0SnnFylVw+dIlaFn1JjPjAZMKKP/kmYksUFZqgXc//AQfvPc6dBvfwMm4TFTt9QKijn2KW8f3ISLWhIyICL4bSu16lTH32z9xNrMVrlhiUNVbhXMnDsGtWT1cObIX0alKGC6tQ7RWBjMTDsP7NEZQcE08/ORQ7Nkdhmq9pyPqxGeIZu6Gx1jdpVGNZoUKT09siwpVO6FrQxPC9SZEnD2KKuNfQsvqFdG4aSvb+95B4WbGill/Y+ojTeHVohv6yY7jfOS9E13IeLhcjYuSYyHshlGnwKBXPsHb77yLD1+eBAmrJTd/fTu2fTsEp44cRDqLq5SbUZAk7sD1Kn3weJNqqFS7AxrU8LC5cAedXxc8PrIBKtcejprma7gq0WLrrmj0GTkGlSpVRZ+OdWC4uxauzMSWo3I8PyEYIVNegX7/Ruht3WX2Q563fXRW6P3I63YUpjlRqo1Y/dcRvPx4LQT1H4emcbsRl6mD0b8RulfJQNL1ZYi1NIRK0QsxFw7h2u3jaDJwINwspuxg8UzcixBfP/gwFd79mb+yX0ES0BiLZ1TEt/PXwi0PSypXWrBy5q8YObYT3Gs2wmj/MOw7erWgXuBmyJEFOrnkONfsw9HP4/apoI5KpFh+0hvTx/hbwyCP3/MyJlcE0ZdU9Og/FBdnf4VMpQZrdybjjSEW6Aws/5mj8fvSKDwydiQCAytj7JesArFrJxMGRmzddxPdR09ElcqV0b3dvXlX7qbFxt2ZeOnRyqj5yAtQHt8MbX7jgnJCXi+o3/OBu+PAtJUTlYcO77cKRmU/Dzy7OA0Htr0DFSunzCYZOk59A++9+y7eefNVBHmwSpXtNxTe188eQaT/RDSvze57dALmfL0GEkcLKhbMVr9bPxcW2vUl7MJVPP/dD/h0xiPY9v4I7InNhD7+CsLRDTN//Alf/zQb742szdcFzULCKh1hq7/DiXmf4FhG/j2czkSxi8WdP76CL9ffgl6Tiko16kCSEg8DO08zkCmeTNUbIDjtJgtIC+TGy7hw3RNeSgX7qQQmo5Hlbznib1xGjZq1WORaYDIxI84y/dUbt1AjNBQ1FAZM+GgFFq9ai9l/LkH7uirUlbFCIDmNpwadLRnSb0eMeRi3oqMRGxvHWxr1Oh2/lhdU46D6271YWCYIRvuOndBz7Gv4eJQ35u2Ph/n836hUvQOOxspQsQKrPtH7azPx8I9H8NsoP7w+oinqdn4JmRYZE6rprDDSIzExCWnKyvjfzJfhb2GWh7lNu8bQYy3u7jBRU/35FahcvT2OxMhQidzNqnoy/xiyxnnQH3baZDTAw9Zimlfh4nZ7J2Yd1uGVdjWZyKiFzRkSLD9yBap7tIWjWzKcHz5gvhC1dTJ89Tr2RrfuPdCzY3NyCImrnkJIx8cRL/NFAKtV8/EFOj0UKiWMPF4ofK2/z4XFCAMlb/6Z/cfupfSrUFhbf+9p7ZXIID/zI07Fh6M7q3orPfvgZtxxzA3PfyxqXjiihl3cWPNjwd/RLWIpll1OxcOVvSFVNsN/memYf4ZJeFMg+veqhFV//A73Fj15WDZMC8efW8LRb0BNGAwe8PMw4iaLEI1fBxxnld5vR9WEgmyTDTO71mwGq+j98TnOqdzvKXMUSacxc6sG345pBZV7JSyLs2DznoMFbiWh+LFvjJ6dWJNgycLTs+1zESFnrOm1IA7KIDVugia0D5oaNey7hTcgmFhZkL1+AXtBrc4Lfn65w1oCPbw6DkEvwxYkbv8OFwO7o4Zey2w1K8dYeaRhP1fIrenC6OUDhV7PfsPsM0uvWUOdaF2/XDCboDz/Cw7F3EAfdynk6u6ITLyAOWEsTz8g75Lf87LvhYFaFqmcK4C5sBt9phIztkci4sZGVE2Kh0RBM8rZkywSVGvRFd179ED3rp3hkbNyK3PDmT2rgLg/UJNllNbDvkD6ps9xPKUQLfIPhPmdp6Oi+Z5ZaFSvUwf12w3Hm4+3wJr/tFBILZCpKyC0bj3UqVsfNYNoi1LbDxhubtfx1/IYvNMzHlu2XrSddW6KWSyaMfadr+G76UlMGDkMz3y1E2/+MgNqltGadG2EmcMfwqWYxnj9wyF4/OERGDlgOuq9NocZaZZ4pAqk/Pc7pk8ciO93qvHW6GCW+RSI2PIDnh0/CJs0nfFcn2BM+3UmDswczX4/EtPeWIgUSTW8+tNz+OLxfnjilY+gNWWyAtqaGIxMfHbs1g3Hjx9DQmIi30A9X1gayrd1TSqDSuUGLy/g0rk4VKqkwn97NkPa40t8+NJ4tKgTxNKfBG7qKLw3aTpqDX0Nl2JPouKBn3EjLhXBFasgPSMQU198Cc+/8CweGjcWPlIjzZZAkkUNTx93xB0+hMq1a+H43k2wdJ2Jj19h7tYL5iI7z6RtNqFitVBc37cPFrUnZPcIQAlObFqHjBqTsOvoMRw4chK7N72P9b+thtk9d82G8g/PQ64Ey8mF9XPu+DBi2ey16PnCT3jqoSGo7suMBP2r2Aaqa6cR4+kND08ldJn5V1SyYYazcTUlIiOu8b2RdRkaHv9ZSGVmrPz8F/R46RccPvIfj9Ovp7XFT1+sgyVXl8cDuF9adwLIy9Y0WfB33DH/D/h3fQ37Dh1l4XMKq+ZOwYIvV8MkB5oO6IkFPx9Bmz4kFqXo3zwdv6+MwcBQGTRaNQY/3BSzPtsH9wBvuHuo+fN5ZTUHZpM33hjtg9e+v8jqcTlTggThxw/gpu9QbDt+ij37OI7u/xrH/v4XRjtnvWZDfndo9FBCL+n4puc57pkUHgUJE9pL+fKsj9B2SHdo9fRDM1p16ojUYwsRr5fDw8sXmjOzEBU6GJ3ccyyTY0NrqIqXnqmHic9/glZDJ2bPajYpgtA5BDh17Rbfs9y0ZxsstWqx63I0rqpGxMUwqFkFXq/V5cq7EqkZ/8z8BW2f+A6HDlPePYUfX+uOn/63linP+/cMFKpVNR94OBZj3qdx+1p5b7w+WY1HPv6PVbZsdim30cxG6aHFqkWH8d2BYzxcDh/dhX4+17B7f1h+Pyk0WTalqO4yWQgvXz94IRpLVpxAh0ZKmJhWSTv3B555dBIee/Q1XJXLcj0nY/dfOKAcgIdfeQx7NmyyzpVycor9FSU+dfH2wk34Z8sOrP73b/Sv6wkLE0Utxn2JfTs3orpnBkJ6Tse/W3ZizY6deGlYPRqiw+/x7/g05v2zHWtW/IJKclb/MepQd8jr+H3tLqyY8x582D2K6n3xy+qdWL5xOxb/9CzctZnwb/sc1h/4D38sWIQdV26gjT+tn2WlfsPGUHt44vq1a0hJSYGOZeK84PWtvKwRqyGmhe/B809Pxej2jfBVQms81zQQtZp3h/vBGRg6qB8eeWE2EB2NNHMdtKp8Fh37PoRJQ57EjQa9EOStRKfhj6NOxGfoN2gMxvZqi1ZjvoZexQoQ9riP+vbBhOGdMPj7NLw1pjKqN+oGz8NvYsjA/pj47K+w3IoGkwwwGvTcXlACNDOdabYY0WHAJFS59B76Dx6DR5+Yzq4b7tgUJr7XrlmP1s+8ioY1a6FmzWoIbfokqlxcgJVRdxdeJG+oQHEduKArhFqkeMhasc2KHH0e6oNDP07GmFH98L/1p2CIj4XB2BJT+qWhea3OmNCnJf69KmMhLOHruGV1TxkMLCK5UxL22cCEiRIvfD0Dmz4cjTGPPILxX++GWnnnWZKMG/hibQKGDR6KarY4HTx0FGKXfowojf1Zm8e2Y9WIw6H0WODWFJYn5qw8ip6Tn0KtkBAWPlXRssNkSPZ+gb2xgKpFX+gsHujcuQYLTAl696rP/qpQhxVwJn062jy9CFUPTUOLjkMwcVhvvLHLhDEP9WDvQnGlZ2FGDzFj5Iy3UMeohSFnocuE/uHNi1HnqdfRqmZ19uwaqNbwKTTPWI/5EbkLjgdhjR/Xyo8PwppXH5QerPnLyJSdQnIL//s+DL3bN2f51Yqy9RT8PtUfnZq3w8gBbRDa73/49LvpkORcU5E9g+VQmPVmhDz6Ei5FAqPGduNxQnnUaHTDW8t/wrLpIzDh8YloPOZvvPz6s9DoZXjuC1ZJ+ephlncfxeRvt7N3uFPRkGhiMXPVLQwZORrVmbiktNlvwBgkrfoI4RkPEIu2f46A8pSjWilzw8ooI7WtsmcY0tHnkTcRNmsSTiRae8Dy1qcSyC7Nx9rURhhfpxYPl+ohrfDq1DpYsX57MYxbdEw4uhmTMKBGFVSu3BAnGr6NkdU9YTAZ4V6zD154fQZen/EkKpqo/TYLCf5dsh71xk+FV9dpMJ/YgBQq/50cSaMmze0KrbTUVGzfu8/2LW+o5pSSnIyLFy7iwMGDeHjSo7YrBUWGYwufwxfpT2PV9Ia8i5oidt1rA7Cr7Tx89VAV622FxKDXY+WSxejarRtCateCD6sVZNX66G9CfDwrZ0y4dPECBg4exFskszDrM5GcnrXIqxQqtSfUfDyFBZr0VFYDtcCN1SS1WiN8/b1YzjAgPS2d1TQl/F53W5O7UZeB9ExmlKQyqD29oJJLkJGcBIWbEhnsvIyWUPGgpXLI3TTmrhlu7sxdDXM3wBOZSUlQeftCIZVCk5oAidoXbjIp9Jp0pGsNUKpYbVZngI+fD3tLCj/mfmoipGp/uMvvRHlaShLkHn7snPU7jcH45aefMGLkKETFxKJ27RB+rrxC8Z3KKg2ZLI6SkhLRvEVzyOX2j49JZ3Gm9PGHMsduEhJWHKWnpkFvlrL4BnQmBXy83Jmo1yEtPZMLCTn0kHv6Qq5LQYZRBW9PBcs7GfD28+aVpTTmrtrPOvhel56MTAN71rrnMXJ1Qxxd+Yb1QWYTklJS4cWeL5dany8xG5CYkg5vlqbt7YpeuuQv9OrVBzdYRYTiW1YA/xc3FD9JiYksv+gRGRGO3qwydXfr3v1IZeGo8vKHSmaLHyYyyEa5e/uzvGNCShIL8wCWR1iBKWGCLzHDAD8flm9tmPQalk+1XNgr3TzgYVumKpXlP3df5gZFFgtnbQp7RzdfeLESjT+Jvbc2LQlmlS/UOcqBzNQkwN0v17n7Qf6f89tvGDpsOKJux6B2aO088yPdR+eztjHLCzMLtytXwtGkYT18NX8l5gQ/S69e7BjYQz6I/wITJj2Ci2HhzOaG8PctDEYm0CIiIlG1UkUc2L8Pw0eOtF3JC5YTNSzvSDygvLELNcfswrWLM6HU5BCDFpZX09JgYelj0+u98NrJDjh8YB4qWLTW6yyPJaekwZPlRTm7N5nyqL83Sy9GJCdl2j5boMtMQ6bOCHm23WawtKFNS4WGlQlqlm40LCB8vW3LtbF0mJycAg+Wd6nLkpCwWn8ie5a3D8u7+Zhc6g0LD7sCN7Wa5XsfvqpHYaDw5+UcSxMXzp3DkGFDufh1GMz9jOREyCnvkf942Fn9a85k+YLlFfe8+tsNrHzVWFg45RjTbchAslYKP2ZD807ZBYc25/jphx8wctRo3GLlHKXJwpRzSg81Xu5YHY+tO42gbZ+g53daHN3yJW6ufgejl9XG0eVTIKO11HIikWNaryrYFqlg5YOEz594Zk0CXmuhu2cdzuJg+KCBtk9WXUfDMezBSVWACW2f+A3rXm5kE4qEBMN/2IMfx1uXrigKCqUSTVq0xMkTJ1iGSWSi6t5uB2oxyKt1TapUw9/fH35+dLCCIHvgrQTunj78nDsTdX5+nsxWsAJIKmeZ2he+vj7ZQpGQqzz4DEtfH28oWalO9l3NjITCdt4ry+Bwd72t7jIRyt1lr+XB7pWzDEkFgxsvDK2FlMLdk93jx9dv9GPCw1Z0MSzw8CZRmDs1ejF37l3Hmd3jYi0ZvIZZCD97MlGWUygS1C3hwYS8n683M+reXCgSUrmKV0zou4eXD1TsdzI3byYUaTyOlF3z4mmGXPDy9WWuMAFwaQ7e+no1blw9j89/3oSmPfpztzisokFxnSUUCYtUwc8VZMwi973Tx3fe+fFBkGjOFoqEhIUzy7uUFWltRF9bYU9Y5Cx/5RCKBFXaKM78WHxkCUXCm4UxF4oE++PGxKdnllAkKF+yysDdolDN8qC9QvEO5Or9/X7i2DE8OfkRrPh7afYY13yxDcsp21CYZId2PrD85e4DLzc53Or1R/rlL6GkCnpOWBrwZHnVi1WYH55zEj+8NgpekjuNA5THfJnt5WtqsLTj6+dlSy90PuszoFLTWMecdpvBwtnNVibQWqnZQpHgbrE0lCvvyq159wGlsrU97EF+txOW7wuTrx4ICxcqo7hQJCivsXxHq0ypPKnMyScNKtS5hSKhYGHnQKF4B8fZPTnLc9UeegP9NStxJJ6moObztjTOPH09TsqG4/Cxg9i8cx/mzhiKxV/OhSFHxKdd2o4NB64j9dxaHIlMRuTeFbimodkepYeTikVqkNMiU587Io3aTN7C5giat2rNCgIlbkdHIzU1xXb2DqRRi3MshzNDApS8Xh6KFHux+tnJ4psZMkmTyWiHPXj80ecgfehPLHytje2i4yBvO/vitC6fH+9j9qiVaNHv87Fty2a88epLD47L0qoYODB/kR8L4prFbERahu6+Rs3Eypshw3tCTeN6nBjKB44KSlfPV0X1O7nhE1SJb8qh0fji+f9NxRe/HIaHrz8qBnjck9wkMjki/16Ibo+NR7BfECpWrICB4yYh8PrfSMq4c3fs6U1Yv+sSbh1Zhr0XY3FhyyJcSDbYtbRSceG0YrG4oSb3Tl274/Dhw0iIT4BWa+t2yIJqXCwhkCF2tYN7v7QKlNKCrK8TxrdZL8e4D//AiXOn8Our/WHWGvO8r0gH97qTx7ctP7IXvvf9y/nBvX+f+FGpVNi0fh369h/Av/+7agX/W57h4WEr5/MKs/J88JZAyguOgIej65Vz7H9W7xexVdWQqcHbf+9BLVoO0KJHtS5vY8MHXRHU61Vs/nUMpHd1QdO8i2pTl+GLCe1hsEVhhn9nbDuwEQGqO8NrQsd8jV/f6YsGj/+F1wbWw6BP12FAJXWJdFPnh5OOWSwZaNzC6RPHoUlLQZu27RBcMRhSqYyP5TBodbh8+SJatWoFk8m5a5qOhGavrVyxHMNHjEJcYlKhx3KUFSjN0pjF1OQUJCcmoErVyjxduBKbN29G3779cTsu3mnHLNLaqFcjItCkaWM+Ls9VIP+vXrUKQ4eNQGxC4j1jFimtLl/6F2a88hKOnDqHAT27olHTZlj455I8Zm5bxyw2ql8XXy9chbklOGbxvfgvMHHiJFy6ElHgMYtUSXB3d+cV+qwxixUCA7F79w50796DuWW70QWgMEhOTuVb1fr6+xd5zKJBp2Pl9Xm0adPGpco5ykPLly3nY/NdoZzLSWHHLBabWNx/YD8eGj/JdsWJYYZo07o1aN+uDWrVrgPaw5laGg3aTGZYw2zN9PYPqC/rUBxeunQJD41+CHFJKa4hFplQTE1JQkpSEuIT4m1XXIdIJsKGjxiJmHgmRpxVLGZk4Pq1q9DTLGQXE4u0kcDoh8YwsZh0j1iUSCVo3aQh6tVvgCUrVuP9t9/EooXzcTHyxj2VnmyxWM8mFiuUnFh8P+4LTCCxGF5wsejh4YGBQ0dgxdLFfHKiVSz6Y82//6BGzZq2u1wDI4vDalWr2cRiQNHFolaDsMuX2Qnq2netfHXp4kWer+JdoJzLiVOJxTOnz+DatWtMh5WNxEetaUFBQWjQqAGqVKnKCqck6DIzcTP8At5IGwAP852ld8o7RsjRP2o+Jj00AglMRLmKWExJTkIyEyUGmYoZTdepHLAAwPkT/2HwoEG8hu2sYjEzPR3Xr0ZCHVCRCQY71qgsJ9AWcScP7cMIJubjk5LvEYsR4eEY2Ls7b0WkBaBp5QYq9B8ePxGff/VN7pUcssViHXz9O7UsPleCYvF/XCxeDI9Es2ZNuM21F6rAN2reGg3q18PCub/h+LETCPL3w9erD+B0cD8WSLYbyzvUcGGx4Nt64VCqPeEfUHSxqNMwsXjxAvyq1IRed9dQrHKMlFWkju/fzVsWE1NSi62cs4orC0uiEsjYX1qLM5OFud5C31nadldBYzBCbyy5MsepxGIyO6QFMAbOAS24a0ZQhWDotFpoMtIRdeUCHtM9hrsmEJdrzMzwPh7xMSaNHoKklDQXEYsszSYlMVGSADe/CtyQuBJHdm9D//79EJ/IxIiTisWMtDRcuxqBCiEN4NDdTJwc8v+eTWswbNgwVnlLzSUWadbzl//7DD99/y3m/v4n1B5qyGRyfP3F5zh14jiOnj4Hd/c7M3BLUyy+x8QidUNfuXod8/9YdO8Y8ftAQ4POnT8PvV6Pp594HI0aNECgvy8+/+c4tlR9jN3hKmoRcDel489a+5lY9IJ/YGCRxSIN77jMxGKNhi1ca7gVy0O71q/iPSrFWc55KGSQszyZotVBKZXA18uTz5dISM+Er9oNbqyCl6rRQssEo5tcAhrimGu91mLAKcRiecCaiRKgSWdiMfw8Jusnu5xYnBL+ESaNGoLktHSXEYskSEgsuvtXdDmxeHj3VvTv24+3JDurWExn9udaZAQqhTZ0ue6y3Rv/xbChw5HIwiCnWKRxfFWD/NC5azfeBZ0lwNb9+w9een4alq76F63btOWtUUSWWGxoE4vzSlgsUsvi5fBIblPIX/ZC3dDtO3fD/Dm/oUrlSogIj0CArw8+X3MCW11QLC6quY+JRW8EBBVdLGoyMrhYrNmopcuNWdyxbiWGDx9ZrOWcHxOEtG7vzVu3cCXiKhIT42G0tSJSHAT4+6FqtRoICg6Aj9qD9xAka4q356ScrbNY+tDCDFlG1tUgX9PqW64E+dZl45t52+l3cGHvR/9cEfJ1Xvtip7MKLbUezl7wR66WuoFDhuK/M+fRqHGTvNM0P1UKYVnINKbT6fD+u2+jVs0a2W7w9FoKXnAG+Dh6B3me56tCxktZx2KRONzuUbXFx00JTyVVuCW4cDkMazduwp59+3H7djRol66sMKdKb2xcPP777yh2bN+JYydOQqu3CnZaj1JRmuvk5IEQi/ngypmIedxqkVwE7lNXjm8KAWcfX0zx40JpMjd5+50msPj6+t2zCDe1kPj4+PKdpPKmNMKx8M+kcZddO3fK1aJsHQ/vgumBvGxb7sYRuHQ5x5cgcqzdo8W4qSVRxvLg6RP/8eETtOsO5dW8WtPpHF2jNB5x9So2b90CvSYDvh4e8Fa7O1WbudOKRQrE0joInolc0RgxyN/O3tLkaMi/rmo0ydvOrsPo/VyttTsLSpeOzI+lFYqOfC5Psy6YHsjHVltl/V5UHJ22yhI8DTnS68xBE5N3aekZ2HvgAO9Szm83JQr3e5a2YpUh2uktIS4OGq0WBrruRGrRKcUiCTYao0Qzkkv6SE9N4c/nq+Q7ewlaXDBvF/ckAsosNBZJrVY/8KD7il3IMfeL/RnOCvndyccB8pYkl86P7H+2iqxDKI2gdNQzWXrlrYyumhyobHKQreLuuLrdc0C2oq0/A7w8oGKKasfuPUhJTeMt/B4e6lwNUJRuSSTK5TIEBwbCj4lDmlhL1A6phdBatXiPwPGTJ3ErJg4GvYHPn8hyozRx2pZFuUwGlUIOi8lYYgc9z7o2GUtEtn+uSEn43MvLC206dMaQ4aPuf4wYhZbtOsLbzkG4hcVqM101vq2tFc4MvZ1rxk6W32n5DQdRGnHNH+m457psxY6RlR4cAYVj8Vt754R8bbV7RctZFIZqlYqLw7CwK9DrdXzmfkZ6BpRKFTyZYKRlrYICA9C0UQN07dgendq1QZtWzdG3V3cEBwWgapXKCPT3h8FkQEpKKhKTk3Hq5Akkx8UiIzXFKZY1cuIxixY+aDsxMZHve1/cR0xsLJ/Sbs03Lt6ySJX24m5pYhlsQP9+WPH3X/c9Vi1binp16xZ74cCNpiu3XBVz+BYZlh5dacmcXHBb5KJ+zweeXp09zRYTPC04yO+ubfesfmfFf5GgVr8UrR7Xb0XjUlhY9jmtTofU1FT07tEN3Tq1h1GnwR+/L8QXM2fi008/w4cffoRFixZzARkY4I/UtDTExMThdkwMNLScDtM/SSkpcHN3h1yed3d2SeK0YpEUv9lihq+fHwIDg4r98PX1hYkKJFsmZMko+3NBoV8ZWciaCnNYnShVaOYlhX1xQ0aPmuQNty9i/eZt2LBxE9Zv2IR1GzbjXLyWXTdZFxUuZDwUBB7fPOYKB7VI08Dmgh5SJ5jxZk3rzi1GaHxaUeKHeiryCv8HHc7Q/UP+dmTLL7lU/DkqN5S6HPVM/v4svRY2PZCNzdP2PuAwln5S4BQtJ+SGi8UipK2ynK+sKahodo9Czk0mhYodkZGRtp7JO1A3M01wWbr0b/y5+C8++5lWMchg55KSk7Fl61YsZALSU+3OhWFMbBxftJvihMLo5q0oePkHQHKXu6WBU66zSIGUwZ5nYUJCwiIhODjYdqUoWLjwyJkvaBcBGjtAREXdhEqhgoVqBHoDEuLjcOvKeTwjewbyAqanQEkaeoV9yxKJpkC1FlrmKb3+MGySt0dprXRH6yxOuvgexg7txxcHDQmpxZvXHQWN2SD3PD088M77H+KN11+FKv0kJk79EY+9+xoqKKQsjiTwr14Lwe4sblh8PP7kM1i6+A+eyRwJZUh6F1pIPub2bT6w2L9KzQKvs0iCd+2WHUhISuZp117ozvatm/Pt13LO9Cxp9m/bhB49uvN07yzrLGYZSzponcV4ZkSvRoYjpHHLAocV9Ris3rgNaQUc+0P3du/YBrVr1HCoWCsI9A7b1qzEgIED+S4PhVkPjtInFWJZ6yzWD62Nb/5YjfkVny9yq4o90DqL78Z8jvETJuLK1WsFXmcxJ7Q3dHh4BNxVSnyz6Rx21pzKztrvloEdQ7XboAjbbi3p7YRkhbu3P9bXfAEZUNnOljxuxnTMrrgNam9fVKpcucjrLCYmJPAdXOq37ghTjt1+7IG6Wldt2MqFT0HzVa8u7VGjalWez0sDykObV/+NgYMGw8jKuVqFLOeowSPIx4v7Y93GTXxiSk46tm+DXTt2YMfOXbYz96JUqXgX9IwZr2Pbrr3WHs4c1AkNZeldBZ+AQCjY36JSrhblpsRE/fQmgxEyhYyJxQq2K4XHrEnClzNnQhcfiV+WHsC4KRMRWK0h3npuIr9OYlEhY4WkVAYde25CXCxflHuabFqBxWJQwgksH+oJtZub3fYoK6t98+Mv+LPRZwV+pqMgsTjx4rt4eEg/GNlbbWI1n8TEJNvVohN59SpaNG+Od9+agTfeepeLRUjlSLm0FU99eQg//Pw+ghU0HMBae6a08Oz0l/hivLQvqqOgDEk1u8W/z2ci5CpioqN5BcGvSq17aocPIjklFYF+3qgUHFSQ8of78ceFSzB22CDomOEtLfZt24ie3ZlYZOn+5JkzuHTZ2pVSmqSlpTPjLcEvP36Pa0xgxMXG4hoXi60KLBav3ohC84Z14eWhLlD8UJ78/Ke5mDJuNCsYcxvwkoLS/9Y1KzBgwEAYTGbs3LMHt2NibVcfDBWA+w8cxOxffkSlChW40KofGsLE4j+lIBYn8B1cHCEW3ZQKfLv5fMHFIsva0699gscefYR9s+93/F1ZXo1j4mrsoYpId69ku1LyuBnTMLvCNiZcfVG5SpUCi8UwVllo0riRdYgXE4qJzE+0KHeDNp0KLBYvXolA59bN4F6Aco6gUP/k+98wdeLYe4RRSUH5YtPqpRg4cDBM7OULKxYpXSjlMsglFvy7fiNfMicLKkdaNGmEL774AoYHhC2lsSemPo5mzZpj/eatuWxcNRbPfr6+cPfwhCf7W1SBXe7EYlpKMhOLBj71PJgZuaIjYW7J4RW1GaoWH+Fc1BFUkOuzIzHq5k2eWKRyOfQGEyucYkAti88qni14y2L8Cfw7ytf27cGQfy9HXEXdkJr49ufZWNKEicW7dBEfW2n7LC1aWrkvXCxeeAdjmFi0SKT46rvvEXUr2nbVMVBGePH5Z3H85Cm89vKL/JyEhXv8ru/xweFq+HnGcGa4rIFOYTP95VdxlQkGR0NuU0vaB2+/iVtRUbxlMaBaSIHFYhITi5WC/OHrXfBa/q+LluUpFikt0vuxqitMxTymaN/WDejOxCK1XK1asxYHDx22XSldyP/t2rbBs089gdssDVLLYmjT1gUWi5HXb6Jts0YsXgtWGFAczPx5PqaMv1csZsUPdYeaizF+6Blb/12Ofv0H8O7Tn3+bg/CISOvFAkBjvxctnAe9VmcTi9SyOL3ExOI7MZ9hAm9ZdIxYpMmI35FYrPUEO2u/WyQWn2Ni8REmXO2B3pNsc6C/H5Qs/YzYG4gMdW6xmNM2M81QrGFKYvHX4K1Qe/uhStUqfH9oEiz2copVBp957gVs2bAW6WlpiGc2j1oWG7btXCix2L19K9s3+6F8+OmsOXgiD7FYUvmKnrNp5RIMGDQYZhZjdevVzSX07MVkNvHZzIkJiTj+3xHubhY0q9lbrcLceQugZJUbgnzkr9JCJTUgWuPNnmz1IwnA7t27YcL48cwGr+fnsqhYsSLq1K/PJ8s4oiW2/O3gwsKkoIXC/bHwhEkrqGd/vitzUERkx0XOz8UICZMd+49gxfqtUOTb/ZeBxhE/oO+pj9Hu+j6+AXlxQv52RKK8Hw0a1OfdY1lIWJZNuH4D3sFBkDo03vOH/FgxR0XE2pZZ+kikJhzfvx0L/lqBf/acQaaleLMp+bq447sw0DvVqF7NZgcoUVrPlzoSPQ7u2sLiZyXWHbgIHamFYuRO/BT+OTS0grqziNIKRkc+l8KjJPyRnpGJ1Ru340rk9TyDn6LeJ2Ejepz5AL0uzEEFVqkobutlTQvWYVV9Bg7BoOGj7D7eevd9+Pj4YDD7TEuSMcds7jkBFi327diM+UtWYsOhy9CXUL4igffktOfyDK8HHX//9TeS42KQEh+bqwJENqs6E/M0hCbnuHSTRYZhFQ4iUHscBnPukpzupTGL98QHc1epciv1eHLalsXUpCQYdEyBu7ujgkNaFq14RW2BZ9tPcfLqAVSg7k4bN2/e4KlHrlDy7p6Y29GglsXnVc8Xa8tiTFwCfl30Nx4ZPRShtWrg6x9/zdWyaEIqWl/4H8b0GI7m1QJx6PgaXE5pi91eHXGrGNIOtSyOP/82HhrUBxKZHDejo/kAXUexc9duDBs6BAP79cWb77xn7YaWueHm/jl4e5Macz4eD3fQ2FJrzZLSwtPPTseY0SP57DJHQeNJ4+Pj8cpLL/BWxVs3o1gtOxZBNUJLtWVRCgP2b1gDSYM+GNkyGBGn92BNhDem9KiHdIqcYmDv1vXo2qUr745Jy0jng7BLm+jbt/m41scemcTjJ6tlsW7ztgWuRDqyZVEOHbavWYug9kPQu643Lh3bge1J1TGpbVWkFUP8UPrf8s8y9O3Xn7f0346N5WMv7YV6Zv438yv8u3IZb+kIvxKOerVD8O2ikm9ZHD9+IsKvOaZlUc4K4FlbL2JXyJPsrP1uFaRlUcnCbu7SVTAZTXh83Eg+s3XkXS2LHimb0Ck2Bq880gWXoqJxjAnLq63ewk6tvFhaYqhl8efAzfDwoT2Fq1l73QogIk6ePo2nmD1dvWwpzCYjYmNieMti4/Ys/5diy6IcGpbO16N69+HoUlONC0e3Y29mHYxvWQFpJsenUsrbG1b8hf4DBvJyrmHDBgW2+0RSQgLSkpN4nqQdWLLSNe3/PIrZ9QMHDmDBgoV8rCFdkbDnVvHMgFqqR1iKHztjFetk07p26YxWrdvyLQJzEhgQgKqVKkHJtJCXn3+RRWO564ZOYSpbp9VC7aEuGbF44waPMLlSxbv9bkffQlT4BbxQjGKREuys+YtRMTAADw8fyAXS1z/+lkssKjMOYeD1k3hv+tNosJaFjVKPrme+xpSn3sTze+KZG2pITRksEaqRqWA1xSJC5d24c0wsDu4DKctEhR7LkQ+03hTt9erl6Zk9wUURtxdDH5+Nya88DnemWCgzqKo2Q48GgVzAFMcEF0pjdNCzaIILDUMgsRhco06pikVDejz++PcUPvt0Kq6cvgKJSoZNyzZg1GvjkXLuJrRQMkukg1mqgJeHm0MK+z1bmFjs2hXU6+MsE1wozWUZRapxR9+6xcRiBOqVsljUJVzDn9uu45t3x+LMuRssPwKrluzElLdGI/7sDRikzH4YdLBIlSx+rAVEUaA0upmJxT59+7E8LuNCq6D5kVqQMjIymDiwTnCpV7sWE4s0ZrGkxeJ4JhZvOkQsymxicXchxeKjTCw+qOA7fOIMduw/jFefepSLbrI/OcUiNfjXZhXrV157D3v3qzA/DqgX+xmm1xmEt5MbQWHWQic1QsnCXa/wY2lDWuTwJrH4Y8AmePr4o1r1agUes3j23Hm0bNGMp2cas0gT+y5fuoimpSwWtTFh+GtfAr5/YxiOn78FicKM5Uv24cm3RiCO5SuTXAWjXsd+rISnuuj5ivLQeptYLEo5Z6ZuaCYM9VoNF4ZZZQrZqI7tWiM1JQWzZ88hScjuZmUO/cj28ndrvuHDhkJnNCM1LR1SKp8ovbB7q1SuguCgQKjc3OHp65dtFwtLueuGtgY4KaaiBUxB4IWQLSJ4hBSwUMoJJRoSAPczijSTjGZTjRrUx7pETB646RMh8a2FP86x2pcb+84KIR0yoWflea2bP6D3pZ/QRbcLAy99hh7KTMeEFhOtxbWuG82guztM9D4t8cv8b9GuYSM0adIYTZs2QYPKXkwoFl/cZ2XoLOh7cfnZfiTMeKbD7B0Kc1oirUsBiUUOb7UO1zICkXBmP/5auxXHI6KwY/M6HEtg122/LBrO4PfcUNzkNIpFzY+OQQKNhhly3zpITUhmBRqFvwKeqlREawJw4+gOLF67Hacjb2Lj+rW4lOIg0V3EtElCMSfFl6vujyOfy8MjR/ooCFRk0+p6+dlcgq5t3rUPA3t05kIxL8wSPTyMcrT3BLbFAmomRGOVFRBrTsJE99tof/l/6HxrDZ7T/YahGYdRyVGlLbPPhfU7TW4hoZhlg50lX2VkpkPhVxvxscmQsnwlZflKrUhCnM4PkYe2YvGa7TgbeQNr165FZFrBWwDzxAHlnJRV4BRKJROFqUzM6qHVZPKDFtHevXc/C1oLGjZsyMObB3kOg03fsw5qPAkKCsLt2zHQMeGpZYcmM5Mf5L5PYBDU3j7W+ColnFcs0j8KGEeHjYUZCH16ns7mXLuLnl3o8bUs9lPTMvC/n+YjOvbeLj1KONT9fPL8JQzt24N/zw8JGQZWE4thr50dWRIL/0w/69J/EJ7t+xCSK3ijryoc3mRHrHcVGm4/ijtRspc/e/4CFi1egj+Xr8HmzVuxacs27Nq9F5u3bMXGNSvxx59L+PVb0dH3DSNHYPWz7UspQmmQVb15bTULKYtvg4nWZLSgdrMeeG1kF/RrUhEx1xKhdMA6jSUS30WkSPnRgVgsLF7kUj5UJQuJxAwjE/USFk8tewzGy8M7o28dTyQlprEir+iQv53B784EpdfCBgmlpZ//WIp12/fkOU6crs/+ayUahIagTfMmtrN5YeJ2SZ4pRVafh1ki52mjqgerWJgr4n+vPIJzDZ5Dws0T+LQtSyu2+4oCTw+F9D0vU3PgLPmKV9xZOafP8TJSlq9MZgXPVx0GjsQLw7qgb4gb0tI1kN/lj8JAThR1Eg3Ff1JsDDQZaXwZvqxKLg9X9vnkmbNo0qQJqlaukmuMfhZ0j5enFwYOHICkZNpq2Hre6oZ1HWLqETCzNFXcZeCDcF6xyCIxa89ER5JWbQiS08+hUo4uaIJMj4l3gdq+8w+FfD77rZenGs0b1sGSf9bfM5GGaq1zlqxAz07tEFKjmu1s3tA4JfaD3G9ikVKjEydY6YZn9wInDFKY5QY0Zq9dtORPMBeK2YJQl87yJX9i6pTHso8nHp+MK1eu4MmpU7LPPT75UWzfvAFpaWm2XxYTFN8k1Eoda3znNCtmiwSssk2f4O6mwNkrcchkr2o2GOHBDEhZiO+ikmU8Sxtam5VlaD5cIwtaF1TBLakF3ioLTl+Jh55dp+EsnpSs+F1FgRxxoN/phUo6uul5jow+bp8L5wkqdCc/NAwnz17AoROncxXC1P13nJ2n5bAG9uoKva2bNG+k7A0syLmOAVXuqYuccqVF6YNTN4H1N9XQaAxw83OMWORpgfu/6PByzlnyFbN7OX1lzlHO+aqMOBOeAD1lPxaKlK+KCsVdUW0KuaF0V8OdHbSBiFU33IG+X7t5E3369kHHjp2gUir5MCc6qMW6QYMGGD58GCpXrozYuLhcXeH0W5qMpGIVmvSkRDphu1I63HkzJ4OChRcQ1q+Ow2LiW+nk5W7Ori/6W9Tyc3j/3kw0euCPFWuyx0tRItm0cx9fZLNT6+Z51jZyolWwBJgSCSW7jb+OxAi53h0Vg+gdredkWRaI/XVEAz25W9iaa0GgsYtZBxnsl16dgQOHDqPfoGF8HTA6sq4XN5TSSl8vMcOj8IA0NQLJBmublERGY1jkqFGJ1S5tCiVH2eaQwqek4rsocFvgBPHj7uYJc3IEtEZrTqOZ6+mZHqha4c6C/znjxGHx41DPk1slHZjsebSujIPgLYuFdI7yulrtjlGD+mL9tj18H94sbsfFY+3WXXzCIe3pez+kFhUypTpc0EpAo8VZnQE+mbfh7+uDJFqbmX3PWcDmzLdFgeyUo5KDI8q5omOBh9oDxuRIGEy2EkxiQqbWE5WDsvKVbbyfDYcEJYuwIucr9nO1pycqVKmKGiG14ZbHotm0AsuFy1fQqmULTJ48GQ+PHcuPUSNHoX79BrgRFY3D/x1HJtMlOaGdbmrWCoEnE4y0xqLDElAhcV6xSImYmqYpNkoC9hja4o6LRRYn/G9Rax3MjfHDByE2PhE79x/hWyNdDo/E4VNnMXXcKJ4YHoTGowFipTfgH38OXpoYVLw1F9VbtEP1FDMMxRY0zJzysC85zp2/gAsXL3IxTfH+2htvs9qau+1q8eOI+HYEKk8f1PVPxs4D1taNa6f2IL5CI7Q1JkNXbK9X8vFdYJwkftQBFVDTPQaHz0Wy+ElB5IndMNZvgya6JD4Zq3hwbPzQaxbbq+YDvb0jn2kNj8K7SPm9VZOGaN2sIeb8tTJ7gtmydZvRpF4dVK1UwWoT7oOEvUJ8pU5YuWA5QqWx8Ek7iXoxOrSsVw8bmP4stqKd8sED3s1erH50XNoqLF4VqqCKLArHw67zfBXB8pWsWUc00CYVY1p1TDhSQwdNRjGzNFSRbyByb8zTRJ6zFy4hITERt2PjcTEsnB83om7xmdQ0lj8nFC8BAQHw8fWDP3PTrZA79TgSJxaLtD/x/VvdHAnPMswAUSRRVFM3uCPKJg9Wg31szHBs3nMQ5y+HY/WmHejZsS18vK1bBD0ImcQXh+u/AVPaZvS+8jO6+4Rg1iNd8PQOKe+qzEqWjsxQ9F7FuSBqXjSoVzdbPFM8vP3m67xlsaSgqHAGvWSWKNFl0FAEaiKwdtN2nE6thM+eH4jTl2LZtbtq1w4qjZzF7/eD0mPpt4AAJok7eg0bAknMRazZtBOXjbXxvykdcPJSPMuDDoqQu+C2yAn8XhQcHTKUFooaJtTF3K97Z6jVaqzasA27DhxFanomHhrcz3bHg0nyHYy0Om5oeOUHdI/Zh8dfexHJyWqEMVOWy8/si0PCwJZX7Sk77IHSljPkfaPEA32HDYb2xln8y/JVpLQ+/jexBU6FJdxTtjnM7jF/83LOAe6RWFTKFfD28UKNGtVZ/NwbqDTRLOKqVQwT1NuY3zhEf19fBDChaOJlIHtHJzAATiwWWURSVb3EwogZZBojaYsU9o3VO4qeiyhTV6kYhP7dOmHx6vVcJPbs1NZ21T5MFh/MrfQytEM/hKZhX3ReqcABphQja3+IPwy1ECsD4iq/hn88WuACi9Gipn0KAfK/K0GZm2Lc6vtSxiJH3TY98eqzUzB1cEtcu3gZ8QYJarUfhEEtAkDmI6B+F0zoVxvpzNIXPb6tqd2Z4e/oiNqbQ1CiSed+eP3ZyXi0TyNcPHcFSSYp6vUcjQ7VPaBjBUCFFgMxpHUlpLHIKXL8SBzsd7JxJZ3M6XmF9ALZUFpzMyeOCg/atWPqwyNxMzoGe48cw6RRQ3hasxdaDGdr+ggc6fYxpH2fw8KzPph0glXq5FVxteskzLvA3JLIcanXC5hztCAu5w393mqriuqSFXLHafK+RIXm3QdiBrN7E3rUxzmWr5JZvmrYZyyaBSmhZRmpcuuh6NMgAOkOUIzc7w7MV96BAahcIwRVqtdAtarVbWcLBqX1SpWroFaduvBhgtHT14edLbpfHYFTd0ObWEFYkCxBXQlnzpzFiRMn2d9z2Ws4SWQyRJ3dh7NRmdnj+yRSOW6eP4DTNzLAJ5SyB9FSLVlJh2pcRclDOWsMVHvp2bkd6tcJwYQRA621mTzJf7KCNgPYGgn8exW4pqNFTK3jE3ddl0DDHkWfj96QIIF9vvPkQsJegvvfheDlZxG8nF8NsbAY9VrExichOj4FGXqrIKSZuImJqeDTpdjLpiQlQ+eIaCoD8V30+LF9KDB5P9Sg0yCG4ichFRqjLX7MRsQnpYGvIcwKoaSkFNxveoTdsFdwZEu/41wqCGRbC/dkLy9PdOnZh8X/nd/z9FqEBJEzObiplHz8YqN6dVCzaqVcz8lJfnmcypRz0cA/4cDuOAmMttuiYoBDydYvKYnADnat8G98h6LmhTuw96FwLGw5x35aOLtHv8nbAwYt5atE3Ob5KquXj/JVunVSGctXiUmpfO3OImMLx9z9NYWHNvRQublB7a6Gt6cnalavDjWv5DzYfUpzNDO/cqXK8PfxQVCFCqhQrTrcaKyik+DUYjG/TJsXNAni4TFj4GE6gs71TkNz/QsMHTKcTyBRsAhc+iKrkTz6MyRqJb/fzesapncbjKd/D4NSbg0GPkbS9kxrfatwuYim0NPSOLQXNXWt0kF+mTRyMLyZ4cs6d/dBz3dXKbJeodTgfndgjassUJRaJs2gjEtI4js+5BWv+R3UqkGz3+jZpY2zx7e1NaUI+TE+ocDxww04KwBKP3rKR37MKjJpYf4CHSwOaAWJISNG89mhBB9fzj8VDPqN3JbvcsZ13ZDqeGhwXyZ+cp/POijtxCXQ1m2lX2Ra/e6YRGnNVYXNV/J7yjl7DiqTVUqaCFK6Gau4yjl3tTv8/P0RWKESGjRshFo1qrNy3zrmMEvXZB1U5qvd3REaWgf1GzZEgL8fv1chJx1Q6oYnF067g0t0VBSSk5JQpUplVKqUe+P2uyFDMm7sCGxf8SyUbnLKTUw9HkVaUhx6TjqPDTv3YGYPdyw86oPvLsWgl78Ghl2vo8ZDf6HWC2tx7MOWuHQlkm8G7uPnB6VKhfArV3Ar/ALe8JtR4B1c3CVGVIw7BL0u96DVB0GiA5Wb4DoCHVTXKThUext94lUM6dOdN4M7egeX/CBjPHTUGN4aTMZk0cJ58GPPL24ordEOLhTftJtBrYZNIZM9eOJRTihTXw6/ivRMWvzY/pijO0NqVoMfLbZaioZz+/p/0K5tOz6rz1l2cMmC4od2cKFt6q5GhKNFp+7WSl0BoPih8cJanW2Kqp1QdqTdTjzU958VW5yQ/9cu+xPduvWAFxNKhdnBJYusHVxCa9bA93/+iwWVXygRO0OtQG9Hf4KHx43H9Vu3cezkKWaz7W9zpSVG5i34nY/5+u7rL6Fm9pkWK569NxL76z3L7rDfF5RyapqiYI65xNKF9Zy9KN09cDOgDQzFvFf7/VAZ0vCl+0r4BAQjtE5ogXdwyYLSVQKrQEWyPBV26SLa9+zPy9GCQPnq3KUr0NHOKgXMV/VDQ7hIKi0oD63+awF69OwNXz9/1KxV06HlHE3AonGMep0OUZERfPk8FRORNA4/g2kpas30YsJQn5EJqUwKb18/BNBOdUy7yJn4ljGxWFyUu+3+bt28yQqJBFSrWhWVKle2Xcmb5cuXo039DLRvVZVSsPWk5iQL+Dj8uzUGye6Tcea7cfCr5IfTbRZj1hNN8ePQ5tgX2g/X/CbiOBeLEYhjtSSqEVBT8pWwML7d31v+bxRYLJZlSCyOPP4qhvbpysIiwOGZKD9KWyxSfN++HY3ajZoXWCyWdbat+wdt27ZhBY+304pFip+rERFo2blHgcViWYb8v+bvP9G1WzdeqBWl8laaYvEtEosPj8e1qFsF3u6Ptivs0KUHVi1fAnfb/taZGemYs+8aDhRQLJZ1SCx+4bYCvkws1qlbp8hiMTz8CsIuXkTH3gMKLBbLMpSHVi1egO49esE/oBjLOaZHMtPT+K4snj5+7HM6UpiuIUHoGxgEvUbLtzFUe3pBbadoKyrldLs/+6p+6ekatO9U645QJONhzuAqfdjAikhN08BiNKPVW28hcv0KyA06/H6zNab0zTFomv2UagNZTb/8b7Z7roa1idyV4N511ejmEyic2/PW6HHVCHJk/PDlokslJAv7VGpF/OuPBfBhhVqWLHQ1+5QL5neHxaBLG74SyAlMlKtZJdwvqALfts/bzw9Va4WgYrUaUHt4wicwAAGVKpeYUCwKTisWCS7ebJ/vB9UIrp4/y36gZQIxHdCetv5lluXihTQolXJ2zYR0n3EIwUlcStqMqqMeQ01dqs0FKzkX6CRjRN9dp856BwoGRw6oLwtkxbcrUhbimwbiu6pA4PHjon4nyO/BwUG54p8+u2qQUHg4Ki+QW65s96zrdZYc1KIrlcmsrZgSKTw8vKAifVIGcFqxSAmYZifbw9BhgzD2qb+BjN3s2A8YotlZq8yb8NI59Ovbk382afUY2qMKHh39JSaPaoYM/R336RPNvs7KOFR4utqM4Cy4cHJBsVjShsNpIL/bmddKC1dMk1lY06aD/E5mkZwq6aB08DO5fXbyNFs8WP3tKK/zSpgL56uStCl84e0crU/mhEuoE+CN1+YddO5WOxvO+44UkSZadvrBkRkYEIiPPpuFgVOO43JkJuApx7mwNPR/7Bi+/OZn+Pn5Q5tmhsFsQO9+fXDlfAZa16zEIi8Dqdqshb8p0zCxkCMXsjO2T64G+du1/O56Pr4DJXlnL3j5+zn5OxYfVoHgKMiulbRtsz7NgX7g4VGyfnAWHJUXrPWGkk8LzgKFY3H6PT0tHT999yN++f5nfrw3411s27jVelGqxK3Tf0Mrl2H9v2vhrnR+uei0b8gjkmcK24n7QBMimjdvgW9+XoWZi4Mx5nkLvl9WCT/M/heNGjeGJiUZn56yoH9VH5gajIfGEIHKqkx0fGwxrn/dln0nkUi11TtjFvnyBA7IkGUSW1i4FJTeXLVlkUW4sy/Nkm0PXBDytiMXDy4dHFssu6xtZvC84KDQdOXhHURxtqrShKGIKxGICLcepFPWrF6DY0eOQeUpwaqZP2P0wn9R678lWJGkcvrWRacWiwVZlJvu9/XxxSeffIBZ3/4PH338Pry8bFvqSSTQpiXByBKGxGxAcnIac1cCoz4TqRpTds9MLoHI/rpqJiJ/l/3CqWDwdfwovl0wysnLzp7WrWnSlfOja/o9P6z51fbFxeBpwUGeZynLZdOWNV+VbDlHYxabt2oO2dm/8MP5CpjetjUGDg7GFx+soe2EbHc5J87dsljCLT20vWBWvnHkIOKyBvna1YaxUFS7anxThDu731lu5HnSVXGo30spGCX03BxjtoqCK9tn8rtD7DOLC17Oumg4kreL06aoPdSY8OgEjH9kPMaxw93dHTPefQMymQz/LFoJKEwY17stlh1Lx+0NnyGOlul1YpxaLJb0gHbeDZ1lSSkR5UxItJ/e3aGV8zYAYkoAAOpdSURBVBwZQfpOR5ZBpGs5f1NWlu+j2partSzSv1yGQ8LXG6QdB6R8P8h8YDVFQ2oUolMM9DEbWlRVbtsxhC+2ng8SqQVRkVdKq/y2wdK9k3fBW+Pm7lCSsPClDGdFKqOwtn6WsM93tvaUZVfarTt0ZMVLznM5MqeE3e9EtXzeiubA+Mm2cSWMI1OYtfuwdHNNqcFts2P8zvMVz1v526jyCwvHXDbfsdDuQy3btEKL1i3Rkh0zv//Suma0xIS/1uxCpzfW4vDJMzh18E94pV3C9ogYyJ04GpzHIt6FVSyaijUyc0HPI6Nsex4J1exahwrQfyCBbl/cnRBjZZTuQyV0u65Z81ncTvY9FJq3O8N4PZnfYt42FtrfV/DPSNsCzQuhsGQ6ZLfYYoV87WozT3OP3ZHArIvGl889hNFDR2DJvmgmOFgkM1Hh5qbMbValSsQf+RXz9ycga4yynNUgf3ysGYZ2b4exYyZhw3GWbvJB4W7Er++84tCCtKBYLMy/pfkCdsDjJ1ealDJxeAGTH32fhbeC5Ucl/nxjAtbedmdaT4n9c57FrMMsLtjnS5s+wHv/JEKpckPMf3/giWHdMGHC0zgYbbZu1XhiFUYPewUpYO5Imcg8+jle/2VLdnw6A47PjyWdv+l5jnvmnbzqelBedVRdnvJUcbauOTXc7pWc32n3Ft5uwJ47a9MZ/PJoDWSkZyBO2gS7Tp3FoNAAmJw4KpxbLBYgEdNYgLS0NMyZMxffff8j+7sAmZmZ/LztDrhLErHyt5n48KP/YfeVFKjuNErYBNKdmkauliZyQgeY1rx/J8TS/oLphgEWmhyj1EI361HIxq+F6ok3YPyhhdUsGtJgoS3/SGz+MBWyCdsh8Sy+bXwcBfnb1Ywx+TbLz3J3C5a8OAaVhs3ArO/ewYUvBuHAtVSoE46iR+tnofVWs/slULip4eHpCUVWE5YNSnIpWk98+NcqfPHekzjyzUQciDVaW7okMrh7eMLDQ53d8mW1IKUHT+ulKlcfjPUN76RJajlM/HcWbl7aijXXFZCwimXVyirsO3QLcoUKl/7bh12bdkKiUiHq2EU0becD7dmFeHrGRjz1+Tx88nIPfD96AG6lGmE2GZESsw1bjl7lNXuJQYMMTe6W4tKEkiX536E4id8KC5UNDg6RMoM1vzrG99wlF7P1WZSe36Xw9guAu60zgyrrHn7+8GC1U2eOCScWizTLOWfxkD8kCG/cuI6npk7AhEG++N/b1dC/2UGMe2ggom/d4tcl5jQ83bYpFl1UoXOLYDzVoT02JOXem9LMnpclUO9pyfDxgEz7C0wx7DMLNfPadyD1q8huZFZXegVmbVXIazWAtNZgKIY8DjNtl0lIWe1leRuYa7wPVZsa7Ie2806MK4pFSnBZfpbJ4nE5HOjQpB4qhrTFc29Mh8w9Be88+iS7ug8vfbgGHtIU/PpMP/Rs3xm/H4zjaSwnFsjhFxyMavW7YsoLgzBv+QW+pWHa9R2Y3Lcl+vYejt3XnUOQ8PguwRp2YbiTH60BJpMm44/ZR/DY6PZYsWALC28z6tRviMv790GiuIhYTWV47lqLFJkU567GoVOABEc37UDQqNfQol5N1GwzDi8/3Rkao57ZBiNQexTWzl8ILROXzoaj44eSuS2plxj0+o58Jk8PJe0JJ4GnBQf5/U6+cjUk3N+8gaiMV5xKCqduWbTXGKSkpuLlF6dhx6rnEVLTB9Cp0aZlLRxc3hqTHx2H9AwNUm4dw9/yifhnzpvoM+xxzBxpwfc/2NY8ssGFou2R9Cfn0y3GikwEdoEp4j/AGA39Hi2kDVuzhMbu0jeGslslZL4cAv3mtZD1fgcyKnMkcliuzoF2fSyUYx6nTWTKBNRqVpBW3fIA+TfLz/rMSnjqg/F4Yfxg/O/HpfDs9hw6BFXFG798z+K0Gz59bTDCjizGzqDnsHrjavStfr86gBlK92DExURB5ZWC36a/hxd/WofFn43Cp0+9izQ+yLX0cfb4prdjFsH6haG7GYYt6d0w7MkRMOyay0QfUJOJRcPZfdCd2IikRo+hR5V9SIg/iWsxQQiQSJGamgnfgADmkARKpQo9pn2FugEe3F2ppAImh17EZ4sv5niKc0Dv49j4KXkfWstjeq5jSmb7mhHKJ5QWHOV7CkdXDUnyN9ltoRXtw3nFIvtn71p/a9esw8JZj7BYZ9GenfJlkMokmPtZPWzauB1a7WV41WsBb5Oej1MYufAaNr3f1XYvg8QCe15W1qEB5bmm1eszIOnxFcxHtzB1eg6W0A8g87RNX2I/kY1eCfcZ8yG58TU0b422nmdiEWlxULQwwbBloxOH9l2QMbIz7MsNVBjbCmQLU/W1er2MVUt+QYjhICb26IvwFINto3kJpHI5Uq+FoVnnzlCr3BFYMYjVGbIT3j1QqxcJcHlyBM7FWXBs13rsPBkBt9TDyMh0AlOVw+/OCk+PWS0gEgWund+CCmOfQrXQPugeHIlrmVrIajVAQ/1/2LVqE6q37Y9e/erh+q61SAhoxlv4Ke6ooJWrYvDxxIEY1DwUGyPirHKd2Y7+Mz5AyrL3oLPZAKeBvbNrtv7cB0oPTp5miwXyco6x9UWGpauSXj7GaaAw5OWckIv24NQti/ZOcNHrDQipF5TjXkoE6fxPq5a+0LLr7ATkMnn2LUadBnrjnUxCp3NOcKH/53q0xQiLtC0kcbthvLgS8hGPwMK372EJLXEl9H8vgKRSdyie3AW53zEYM+k3WkgavQ3F9LOwbHsSZnZ7WcAaFtbPrkJOP7ulncYnb34EvU89jHnlJ3wyDNh8KRqKHH3GUqUCOmrO4qfuE1gSGTLiw1G1ek1ei1XK3VhabYAajXvhk19+gJ+q9JubrX537gjn72j9CJlSiVOb1uD2n+PQOqQ+VlxJx+IdiZAo66B1o2SsW69F69ZVUaHfEGxbtQF+TTowQ2dBQLAP4q9GwqAPxpu/b8SktsytHHGaKWuCqWOr4fvdKVA4R4Mvh/yeVYl1CBSQJR3dVk84DEe2rpUlyM9kpxwlFnlScMWAZFjD0kU9XwicXCzaZxBUKiUO7NjGYj6FqcBYIOMg+8zUmlSC7bvi4OGuhFxeAclxt2GhWQXsvzPzn8eHi0/ZXLBCYxazxSK1LObRuiZvLoN+1UHIq6ru5LTAbjAfeg2GIztgPj0fxmvs0TQckjvFxIDBF8oxQ6D9eIrtnHOT3ap6pxwt91C8Z9WwTf51EBC5EnNWbEXYiY1YuOEqGjOhIZEr2Y0RuHwlBpUa9sTBuR/iv7PHsHrZHlaRyB1YUosBUZHhOLnlN3zyxV68OKY20lWN0b1eOi7FG+EtT8KG5f9Z02Mpw/2eR1p3Jqxjq6zv6Kbdj3VngvHn+l1YsWkPfl/wNY7Pn4cEmRvat2uC8/6d0CYoE1L/vrhxKQ4N2rfnabntQxNhWvsWVm4/jHMHVmDLWcBDziqQ3FWGWYdG/R/HuXV7IM2xJE9p48ilcyi10TDrkkfiUNPH7bTNVrsa3E45yu9Ztt4FseYr10xDhcGpxaK9BnLkqBF4/p19MKbsA3THWQZIZz6TQq814bUvrmHgwN7wDWyPmv/9jPlHbiIxJhLf/bARnrVq21xg0PMo8dgyIfvG/3GY3pPW6cUNrbzrM5A1mwQJK+QlldtDGsBUoTEQbm/uZAr0Oxh27IBy+kFrr1dga8iqVibHIO3+NRRVomBKTuVOOjsUFqVSppQSVrFojW+D3g2Pz9uM4OjtmDdvDdq9sRKda/nBWKk53n+0EY78F4YK9Xvjo9FBWPzzYtSa8DzqBSqzWyap0lG3SW2snPkZVu27jed+WY363nLoMyV4eNZqGI7/jV8WbEPbiSNBDYt1mrUs9bBmKd/2yTmxduVb3zHh5FnUHTwZvt5e8PD0QKWaLdC7fjyuXtfDv+to9JswBO46PTMBXmjXYwA6NmNCn/3O6NcV81bNwo3tf2DB4h3o9+E/aFfNF3KfSmjdpCofSmDxCMWnbw1H7coB2fHpDDi2BYTsakl7zrHP5Lba9tnV4LbKQb7nucqhaatsQXZFYB+SRk2a25VS0lJTsX0vE2MlAM0sPX/uHCIiItGxfVtUq1bNdiV/kpKSMG7MaPz0YQg6tfHDzgMJePHTq1ix8h++7R/VbI03t2LsyCfxX6wbHp25GJ+PawmDbWGj8CtXcPzUGdSuXRvBwUE4cvgIbkVcwFe1v4CMpye6z1akU+bi3Vc5zhFZmS67ayuP6zm6vZwRM3u9fnufQa+OrVG/QQPUqFnDNlaveKGZwkNHjYHBYOB7aC5aOA9+vr62q8UHpbWU5GQcP3YcN2/eQJvOPfhi3BxulK33ZEPn2HfrGTK0d13PwvZb4p6Z0vQjRtZ5+p6nGyXEuhVL0KBBQ9QKCWHpP+SO/50ACpekxEQcPfofIsOvoPeQUXx4ijXcbTcxcoYhjzP+Ke+wvTv8idzuUdxlxXHpQu+4dMFvaNm6LerWrcviqFah86OZ5avw8AhUr1IRP/y1Dn9UfblE/GhgD3nj5od4aOzDuBUbjxDmh7vjxF6MzD5cCQvHtWtXsfRUAo43e4WddYaYKhmU+lS8oZmDoEpV0bJlC3jysq3gUPgnJiTg6JGjCLt8EYMemsDD1lWQSmVYNPsHtG3XoUTLOWdg+KCBtk9WXefl7W37dn+cvBuaxnNZDfuD8Pf3xz9r1+NC4kj8uLYzItIfwpp1G21CkbBAXq0f1p+5jfjYq/jf+FbZQpGgTzmfR8WFrUyxkcMgZRu6u4wUnc9lBPO4XkZwtXq7Nb7p/zlg8XVPoUbnbB8pfvMt9Gy/zev63efzdaOE4Gk/d2J3Oqxxc+cd7w6yXOFp+0vYE/5E7q/suu2TM0C+zhK4DqG0otpBz6V0YLVPzhRLJQcfr+mg9GBtWbR9cUHEmEX7cf5uaDvjku53c3PD4MEDMHrkUAwa1B8qpdJ21YbFBK0mExmZmbkmt2RhHRdlfSB/PnV1sBCiMT4udfCwd61MRH4mw0G1S1c7KKZpcpczk5UmaevFvPxQng+eNh00ZpGgrF3SuZvenp7JzItDoLTAhQ5T+XnasHJ7WNMD+2QNiCLCw5HlfSlzN6+0V34P68oI1rAU2IPTdkOfOX0GYWFh6NOrB2rUqGG7UnxcvnwZ+w4cQr16dVGxYkUcPHgI1yLDcelWMstRrpWg5NokdO3eA40bN3aZbmjq5rwVdROR4eEu12CRnpaGbj17o06dOk7bDX3o0GFcv3YVt6Nv2a64DhQ/XXr0QqOGDVCzVtG7oatWqoCflq4v0W7oGdQNPWYsbscl8K70u1t27YW6SsPCriAiIgLbd+yAxa34bYRTwYRd28Z1+B7DrVu3KnI3NJVzVyPCER8fz866VjmXkZ6Gzt16lmg55wwUthvaacXi6VOnmWELR0T4lRJR//TM2qF1ULcuy4iVKmEv8yuJFomLJKCckBnX6XTMGLV2GbFIYiQjIwNSmROtmVJCUHzr9Xo0bdrUacXi/v0H+BJZUpnr5sdWrVoxsVizyGKxGhOLP5ZxsXj+/HkomM1wLXljheLRmxXw7dq1LbJY3LdvvyjnSrCccwbKnVg8e+Ysrl+/ZjtTcoSEhKBChQosIyXSi9jOui5FKZwKQmmLxbg42rLP9QxmTqirk+Jb7oRiMYHlx8IKjPKDxSEti1UqWlsWF1W7IxapEHBknZyiKsttEouv37CKxZj4oovFyMirkLlgpS4nlFcrsngsilhMiI9HcnKK7YzrQkmxRs2SKeecgXIlFgnKDKVROPBWTDpK4dnOSElloNISiwSvWYv45lA4OFtYiPi5Q1HiJz+xSAXAK80sGF3bApMDhkbS0qFfnpJgdYT1Pa1i8SMmFscUWSySfRbjzGywcChKT4jIV3dwFaFIlDuxKHAtSlMsCgSuwB2xGGwTi69ki8UtA3RoFuCYtVXJvXmX5Hj7qIJ/t4rFD2wti4lFEosCgaBolLulcwQCgUBQMmTo9NBodch0wEHuaPVGm8tZCHEoEJRlhFgUCAQCFyKvXlxaOYm2V3XUkVdXseg9FgjKLkIsCgQCgaCYIaUo1KJAUFYRYlEgEAhcCiHaBAJBwRBiUSAQCFyMkpaLvF1RaFSBoMwixKJAIBC4EFy0lYZaFAgEZRYhFgUCgcClKC3lJhSjQFBWEWJRIBAIBAKBQJAvQiwKBAKBC1Fa3dBizKJAUHYRYlEgEAgEAoFAkC9CLAoEAoFLURpNi7TptAM2nhYIBKWCEIsCgUAgKGbEdn8CQVlGiMU8oE3uxWE9BAJB+YLGDpZ0uyJvyxQNiwJBmUXSqElzu+xGWmoqtu/dZ/tWfiGBlJSYCIPh7o3wXQ+pVAI/f3/2t/jrFEqFAkNHjWHhboDJZMKihfPg5+truyoQCIqKmeWr8PAIVAgMwC/LNmJxjVd5ex8VAKu6p6G5v+Ns3oIrKnxyWs0/G9hDXr32PkaNGo2ElFTUCqklKqICQSkxfNBA2yerrvPy9rZ9uz9CLN4FGbGE+Hh4e6ihYALGVZExgXg+LByhobWFWBQIygF3xKI/E4ubSkEsjmJiMU2IRYGgFBFi0UFkiUUfTw8kJyUhMjLc5ZZ8IJHcvn17nL5wWYhFgaCcUJpi8RUSi6NHITFZiEWBoDQRYtFBZIlFL7U7Llw4j8GDB0Mpcy3D9uXX3+LhceNx9sIl1BZiUSAoF2SJxeAAq1j8q2YJisWr1pbFxFQhFgWC0qSwYlFMcMkHs8UCCztMTLykpme6zJGeqeX+NpvFaHSBoNwitJpAICgAQizmh5nVt5loytTpoXGxw0JC0dX63gUCl4HydknnbzN7orApAkFZRYjFfDBbmHFjgpFa2VzxEC2LAkH5pHQkm0RIRYGgDCPEYj6YmVCkrmhXhGSiSYhFgaB8UlpmTahFgaDMIsRifvCWxfsLJolMjtuntmDDurVYt24d9hw4Dq2JJslIkXxxF9bT+bVrsWPPYSRrc7tlMZuwf9tmRGtLYHkeCavVx5zCzmNXYNdcHfK3EIsCgUAgEAgYpS4WaVYczbaV3j07Lq/zWefYkWs2XY7z2b/J7967yO9a1gSX+yFVqnH4l6fw4+bjuBF+HvNnjECvd9bCy8MN4UtfxMe/b8b1iMtY+dmj6DJlJtTKO8FtMerw9tNTcDjZOmOw6DD/5uMXKVOI699/GOOnfgqpm9x29v6IbmiBoHzCLBv/V5KUxjMFAoHjKEWxyISc/jLGde+EKU8/jTFdWmDWpouQMcHjJruJ5/u1w0PjJ2IUOz/9u/X8RY9/MwK1Ww3FK88+jn5du2P2gSQu9q6u+xy16/bCqy+/gNdeeBavzz6I0z88hNoth+DVl57HsB4d8fGqyFzCUGFJwbKZ09GnZU2cjlPZzt6BuqFNdnRDWywSNBv9DF57/V0s3L4ZsXN/xkU35h77be3uYzBjxptYsO8g/HYuxX8qVe5JiFyQ0gcpvL09oXTzhK+vD9wUMn5Z6eEDD7UbvH184cOuyyR0sxQ+Pl6Q2N7Ny8cHcokCFaN+Qo0u0xDk537PREdZZhS+Xm9GqDIMc8LdHjgRkoSySdh1gaB8Qnm7pPO3sCcCQZmm1MSiTCnHjhnDEfrKPPw9fz7WH5yLPz79GioPFY5+PB6xnd7G+hV/Y9vZ3Yj/4z1cZRJHLpOhTrcn8M2vv2PXXy/it8fHI8VALYhMYDZ8GF/99Au++fFXfPV0By7CQrs+ia9n/YxNvzyNvz54E2kmm0xiovHoT9NwCHWgitezULhXPvGJHgVqXbMg+dYFmAIrw8sm5Djsc/rtC0h3C4Rfnu7Rs6+jSoUW+OKlngjyVOPJWVvAggdLhnuh/bAn0KyqF7wrt8HGK+xdJZEI9GyDJF815CoZWrn5Y7f2DEJ6fAjdpSWo3PojaG1i04oEcTfOIyz4IbzzeD389M3aPP2bEzHBRSAQOBwhGAWCMkvpiUVZHDZtSUbPupWQptUizdgSG5Z/Bo0+Ddu2RKFDx7ZI1+qQnF4JvZqrsC3KqnForJ/RwERT/S7oqI5EZib7TEhkfOcRhYKpLJNV6FjMRr7Is1SmYHZKZ2vFowsWNJu2CD+/Pgz5dcrau3yMRGrCoomtULlKRbTsOh0/rf4Sfqlafm3Hxw+jUpXKCK0zGI/+MgdVMtg78Ct3I4VPymUEPb4SF65uwcGvP0OMuwoKL1+oq7bDtmOXsf65YLz0/FvslSS8FZI3MrL38/T2gldAc5xYPQM+jcbg1OaXoTKYrM4Scjfc2PEb2j31BEZ27Yab/3yBRN0Dop25y/1/f00pEAgEAoHABSjFbmgjtBoJFHLbBA8mfoIrBUHKxGBGphnu7m7W0xYz1GolMjKYdsklXpRQKmyTUCQKaC8uwMSRwzFm2ARsTaXWRgWiTyzHZx+8i+HTfsTDb30BL8UdqSaRMq/fRwxSV6w9s6EtZikGfbwYWzZvxoJvnsdLUz5AEhN6RJupn2PLpk1YtmgmFs54AVFKZb76S+/bBoNae0OlbofK0tu4Qe/H/BZQoSrc3NzRbexI6K9f5OF0NzShRiGXsQ8kmHO2KoK5p8GS+Qfw6mOh8Oo8GgNwAhGJKffVgbTEpLVlUahFgaC8UVpjB8WYRYGg7FKKYlHOBKEFRqNtiymmSxLiEmFhgkftLoVGY22dIyGk1RiYYMyt7SSSTKSny5joYz+0GOBWbxLmL/0bi5YvQE9vEnom+FRriUHDW+GGri7em9LYqoLsxCoWrS2U90cCv2qhqFevAboOfQ4Vbq/AzkhrsHpWqI76DRqgTf/n0MHrGFadU90leHPA3tfaIJrTk7a/DJNMDnn2+9v+kmP5uWdDEbYaf17JxKgqXuz2qtiaIcGCQ7FQ5daUuWA+50voPsBpgUBQFiHzYb8pdAyl8UyBQOAwSk0smkxB6N/PF3sibsNT5QZP+X/oP+otuKs80ad/FRw8eASebir4eMVg23ENelW1aj0JE5NyhRL6Y1txwFSLicisySkSdo0dzEsyGbUamqEOCkWLlg9hUr1wPD0vgo9ttBsSina0LBJS9j7U+qdQxiM+LQhVqtjOyxRQkd88kxERrkBICJNgBTKYEiamTXBTqXD70AHoAyqwcxXgnh6NWIUbPNxikJJi8xPzM/ndTZV7KZ6dS1bAt8NbOH05HOcvX8Peje/gn++WwuiutN2RB+R13rIoEAgEAoHA1Sk9sag3osfnq3DxqycwbvKjGNL5WTzxwWvQZujQ5p2lqHxkJgaOGI3ejbvA/7GPEMKqpUaTCWG7fsFzU8aj75O/47Xfl8BHQZMxLNCeXYwXn3oCLzzzOF6cuQUmiwEanZFdM+DxV6Zi/1uTkaC9W6mx3/EWRNvXbCTcTTruB0lTkz4Nq98ah779eqFDwy7o8Olv6C7TwazPxK5fXmPn+6BN1bpwf+J/GOWWmaNybYEmQwujhcSeBZm0JzN9ZIJXk5EJM/sskchxeMVnGDOqP5o/swZPvfoWO6nCxGFeGFqjJbq0HI8r7EYT+72hbi/UurYSg55YCD11SRPMrYXLt6P7U08jyM8Pfn5eqB46Bt5nv8c/Efk3LVJ3kZjgIhCUT0qjO1h0QQsEZRtJoybN7crFaamp2L53n+2b45BKZdYWPybaTEwMZr0MjSmU0bg9doafZxck7F5rqyEzPRYzO28VNNRVzc9bv7HrJiYWJXypGSO/RwI5E1DZXd7ZsHvYeTM7n/1cJrAS4hOg02Tg0sULGD5iZB6/u4NUJmfvSSqPXovelblF70rdxjnOm9n5u7WnXC7nzzbf9X4ydp4m5/zzREOsqvMLFr/Rm70f86/RGj7WsGFij/mTfWHnre9P7yJl91n9bEUmV7DbDLmeLWfnzHedy4LWpfxh1vcYMnQYEpNTEVI7hJ8rbpQKBYaOGsMnJFF8L1o4D36+vrarAoGgqJhZvgoPj4C/rzdmr9iMJbVmkLXktmNV9zQ098/fzhWUBVdU+OS0dQ1ZA3vISxHvYPjIkUjL0KBWSC1uZwUCQckzfNBA2yerrvPy9rZ9uz+l1rKYhZlmNzOxQ62GObULdYPy8ySQbBesM6EN/HyWUCRIOFrvpYNdZ9f4vdn35BgbmQsm7tj5PDQTF3j2DFkkEUgChw56Rva73nU+L2HGz/NPud8v9zuR38iNO+FjDRurP/kzbefpXXIKRcLE7rv72fTbvN4nC5ppTf4XCATlkNLK2sKkCARlllIXiw9CqVTwVidHHTLZfWZ25MDC1BSJUOrKLS2CG3VGk5oBtm8lB9+95n5qUiAQCAQCgctQ6t3Q9yMtLQ2TJk91WJcFbYc3fNhQTJowznbmXrK6oTPSUnHx4gWMGWPtGnUVSEx/9+03GDhoCNIyMkU3tEBQTsjqhvbz8cLslVuw1M5uaMr/BR3DfHc39IvUDT1iBNIztaIbWiAoRQrbDe3UYjGVPXPtxq24GhkOv4BABAYFw8TExPWrEahQqTI8PDwRfuUyAgOD4M+OyxfOwcfXD5WrVsP5s6fh6emJmrXr4Pq1a8hMT0XTZs1xLTICT06dYnvCvWSJxbSUZIRdvoQ2bdrwcYiuglQixfIVyzF4yDBkaLRCLAoE5YRssehtE4shDxaLer0eo4YPxfJV/8DNzbr2rT3kKRaHM7HIbIoQiwJB6VFuxeLVm9F46ompCG3YBMHBwWjUsDHi4mL4fskqpQpxsTHw8PJiwtALt6NvQa1Wc8EYfesmX84mJS0NYWFhiI4Mw5x587F500Y889QTtifcS7ZYTE5iQjQMUpmUjwt0Fcj/YZcvY9iwkcjQ6YRYFAjKCYURix4eHujasT0enTIF7dp1yG5hpDVo69Spyz/nxT1iMdzWsqhlYrGWEIsCQWlRbsVi5I1beJqJxWYdunLDJrVzzGEWZNxo9vDFY4cwZ/58vqPKg8RiIhOLyYmJuBJ2CTUaNoPR4EIti1IJdm9cg8FDhkKjNwixKBCUEwojFt3d3dGofh1W8VbxFRiyCgsdE32Hj520fbsXIRYFAuekzM6Gtgdao8vbLwBevgHw8PIt0OHl4w8fv8Ds2b20dzS1PuZ3UE2ankc1ZxMTmgqFEkqVymUOhcqNz9AmvxNUWOQVTg4/WLgLBILih3ZnspfMzExcDr/KKs5XcOzUWRw9dgrH2d/wa9dsd9gLWVX7nysQCJyLMtGyOO2pJ5no87GdLQwSGA16/DZnDp544kkmAHPvcpKT9IwM7Ny8AdevMgN5+RLqtWzPW7pcBWqF3bL6bwwcOAgmFm6ffvElbkZF2a4WH5QI3W1jokTLokDgeLJaFn29PDFnFbUsvvHAlkXqVTh75gzGjB6BhPh4fPjxp5j8+FQ8Mv5hLFm+0nbXvdzbsvg2ho0YgQytTrQsCgSlSDlvWWRCwsMLtRo0g19QBQRVrobQpm3g5u6BBq07wj+4EqqG1EPd5u3g6e2HVt37wzcgGDUbNM3+TVbLIs32pYHa+R3ubu7sgawObKGt+ah1zQWNGvN/1r7YKhVtZZh3WDnyyBKKAoGgmLGrecCKUqnEkIH9sHTZCrz6+gxmP+XwZoUL9QRQq2OBKMBzBQKBc1EmxCLJNW1GGq5fPofkhDjE3rqBiHPHodVkIOzkUSTFxyDqahjCzx5HWkoiTu7bjqSEWNwIO2/9TXxsdk2WWq20Wm2+h0arYQ+U8EWrXXWpwZx+1+n0eYZTcR8kWAUCgeOx5iz7KsGZGRl8HHGjxk3g6+vHd5pyd3fjY8EzMtLtbiEUuVkgKNuUjW7op5+Er1+AdXs8ZqSolZAmutCOJVK+nR1te8f+k9LWfQbIFEq+cwnVgule6n7RMRH462+zsXXLZu5efpDxi4uNQ8ztaFy5fBmN23ZmAtOFZkNLpdi4cgn69R/Atw+sHVq7RCa43E1B13UTCAT3J6sb2ttTjbmrt+FvO7qhVSoV3n37TaxYtgwVK1fiPS/JyUk8f+7ed9B2173c3Q39QvhbGDZ8BDJ1BtSqVVN0QwsEpUS57oY2m8wIadQc9Vp2QEjjFqjTrDUatO6Emg2aoWGbzqjdpCXqNW+PhuxcSKMWaNKhO2o3bom6LdqhPvtN3eZt+RZ6ZBm5eGSG7n4Ht2PUsmXrinU5qAuehQORV/iUxCEQCEofnU6H9z74CIuX/o1XX5uBKVOn4tPPv8DGLdttd9gJKVLRvCgQlFnKRje0VIrIC6dx6dRhRJw/hbDTx3DpxGF27gwus7/hZ0/i8umjuHSSfT53EheO7mfnTiDs1H+4fOoIu3bMtuSO/bVZLloK2RVKgvR2bBxu3rpdsCP6NvSG0t8thrwtBJtAUE4pgHCjFsDk5GQcPHAAa/79BxvWrceB/fsQGxtju8MOqJJu+ygQCMomTi8WtVod7wbOTE9DOjNaGakp/HNaciLflSU1ibbmS0E6O5+WROfSkJIYz7frS09J4juxZLLrtLA2Dci2t/eDhGJhBdP1qFvw8/ZE84Z10KyB/UejOrWwZvMOKORym0slDwUP93shhbJAIHBuCqAV+S5ZrZs3wYXz5zFx0iN48uln4OXljU5t29jusB96pv3VdYFA4Ew49ZjFFPbMcRMfQ4+ePZiRKaqZseDEiZPo2rkjnnricdu5e6GadGJCAm5cu84X5W7RqWeBxyxejriKbu1a8hbGgkAztT+dNRtPTBzLB5WXBjQ+ce3fi9C7T1+4qT341lylMWZRIBA4lqwxi14e1jGLy2o/eMwi2bCqFYNwIzqWjxknaO3VaU89gRlvvo2g4OA87VyuMYvMfEwPozGLw6HVG1FTjFkUCEqNcrmDCxkUWrDZkZAIo/1O8yNLLFrXWbyMll17Wcc7FgASi13btrB9sx+ZTIrPZs3B1HvEogXazEzojGbIlW5QuymKrYZOwnDN0j/Qq3cfqD29hFgUCMoJ2WJR7c7E4nYsC32wWCRh+MjE8Xhs8mRUrVqd3Wvh69RShfunn3/jQpGW0QkMDLT9wso9YvGyTSwahFgUCEqTcjnBhQxRRkaGQ4/7CcWcWLtiS3/cnoQJyJhTO/HnhgO4eiMCa1avwcWYdNvV4oEaCrJ2cBEIBOULu1oHsrHg5IkTeP3VVzBx3FhMGvcwxo4aiaTEJP59wsNj8NOs7+wSfwV7rkAgcCZEk1E+mM20MHfpmzdLahQ2ns3E5+9Mw6hevfDio91w5Gg4ggIUkMrlvDVSrpBDIS/Yntn3h/ndVReZFAgE2WRmanA5PBJ79h/C4r+X44/FS7B5+w5cvHwJx06dwYkz5/D5zK+cwlYKBILiQ4jFfCDj5wyCKTkxARLvJrAkRuFydDxi9EHwzbyGWM+KOL9xCbYcPIFlS5fh9/WHkWlxjGAkf3PjL3qKBIJyCNk1+2wbdTnP/u1XVKkQiE7t2qBb5w4IqV4Vw4YORXp6Oj/4IvoPhHoqhKAUCMoqQizmA60zWPozgiUwGg2QeHogQ2uCtafHAoVcD43eDTK5HDp1JbzzyhPooIrClVg970IuKjQuiWaCF31SkUAgcDrIRtiZtWmdxReem8YX4L5y9To7buBK5HXERN9GbExMAcYesvuEVhQIyixCLOaDsy0fc3cjp4RHnRlNG9REzPU4KL2YcNQb4e0Ai0zPEmMWBYLyCVkIe60ETTAMCamNGjVr8D2hvby8UKlKFdSpVw8VK1Xi+7rT/tH3g+RkQZ4pEAicDyEW84HvYFLqgolaERWwpKTAlKMCbzAq4OXB3s0igcWoh8YohZQq7uyQO8Ii8x1chGkXCFwdKbUcsqN544Zo0aQR/1unZjWsXrkC7Vq1QNOG9fH6qy+L2c0CQTlHiMV84F2xTlAX9g0IBNLPIVMrgYwJR1nmNdxWhKCFT2axvR25S74XCATlEZbD7TQetKPUp5//D3MX/I4vv/kWX337HWb99CsWL13OP3/z/SxMeuSxB09w4Ual+G0KjbGk1lA6fHx9sHjhn7laPhVeCvwwoDLqVO+JCIun7axAIHgQQizmg8lsHbdX6nhWxsC2QVi4ah02b92K39edwfhHekNzLZa9owkmm42mllB6Z0dA3e+iG1ogKKcUwEyYTCZ06doNFSpUREBgID8CAwOYKJOjU+cu/KhXv77t7vvjGOt0f1YwETt5/GP8mDhqAk4eP4ktG7dwEUnILv2N387JUUl6Eeu3XhCjsgUCOxFiMT+oK9YJxiySCAyq2wGPjB2JV56Zgh8+nI6myjScjTegTtdRGNm2Om8BrdCsLx7r39Ragbf+tPDwbmghFgWC8khB7INa7YFRI4ZiyKD+GDZoICaMHYORw4Zg3JjRtjucC4VCmd2yqPawLgq+7p+1mPvrXD7579+5S+Dd4il8/lgIlq9aA1Xp7awqEJQphFjMB2pdszjBotxZ6NNTcOLcFRw4fQXh8Zn8nFwpxdETV6CVSiBTqHDh7EUksc9FrS2TUXWKVlWBQFBM2CcZk5OTcOLYMYRFXMOUqU9g267duBWXgHbtO/KZ0vZT5CqsXdDOV5pMDT8yM612smXrlnhm+jN8g4NV2/ezUu829qf5I3rDCpyXuovWRYHADoRYzAea4EF6qTCGhH5DYosGh9PAb3sP/kv+Nw/YeVqAmw6azJIFfc+CtuXL59cFglpUxfwWgaCcQrVBO/M3dTvTdmDnzp5F3bp18cpLL+La1WvQajV8W1Sr3bIDel4JGJVRD4/C3MXz+PHnisXs/QPw2BOTmXDUA7G/Y19kRfRrFwyTXxs0CLyEj2dHMrvpCKspEJRvnHpv6NKAjB8ZwZMnT+FK2CX0GTIKxgLuDZ2p0WDzzr3Q6w1c/xWE5o3qo0HdOqXWskeCc8n839C+YyfUqlWL7+Mq9oYWCMo+WXtDu6uUWPDvDiyv8xY3T1QA5Lc3NNnD69eu4YdZ32PWjz/h7TffwB8L52Po8BH4+tvvbXfdS869oY3MfDx78Q0MGToURvawktwbmmwX2VK5yh2LhvrhE/V7uPb3s8jUS7Huk+F44U8T/ju7Bj7Sgtl4gaCsUti9oYVYvIsssXji+AmEh11Gn2GjCywWCaVCUSiDaGDPKs0uYC4W5/2Kdh06IqR2bSEWBYJyQkHEItkud3c1+8u/QeWmgFajg0qlgkrG7BT7UUJCEr83L/ISi4OZWKQJeSUpFu9ggdLDFyqLBqmZeu5vuUoNtUrKyrZ0extaBYIyT2HFolAB+WDtii28CaElJ3R6fYEPZxgryP3uBO8hEAhKh+joaNQJqY7qVSqiVvXKqBwchJAaVVC5gnVGtK9XQZedKW05JoE+IwVpNqFIGHWZSBVCUSCwCyEW84HEktmJJriUJDS7moRyiVf+BQJB8cMrwfeXSB5qNerXb4jkpCSolEq89PKrWLdxC5av/AdL/l6Olav/td1pP5IiVL4JmVQCDzclvNxVUOYYqy0QCIofkePygS+b46qzPJjfrUvnCLUoEJQ3HiwVAW8fH6zdsBGR16PwzHPPY/mypRg9fCiWLvmL95o0bNjIdqd90PMKW/U20zAggw5KZo7krAZLolHBDpnZCIvRwO2VQCAoXoRYzAdqWaOWRRpb42qH6IYWCFwbsgG09IybuzumPvEUNm3dgf9OnsHwkSPx2ssvoUbVSrY7ixdtejr0Gg20Wj3SMzK5UNXrDHwSYUaGBjqNFpq0tAerX4FAUCTEBJe7ILFEE1wOHjzE/ZyclGi74jrI5HIEBgWjWbNmqFGzhpjgIhCUA7ImuLgp5FiwZidW1H2b9x1QAZDfbGg3Nzf+d93aNVjy1584dfIk2rRpy2dDDxg4iF/Li7snuEy7OAODhwwFq37bN8GFXc+gPfGNBsiY/Qnw98XKf/7FjWs3YTQZ+S4yvXv1gLePH1/GBxIpvHz9HuyuQODiiNnQDiJLLB47drxQs6DLC9SyWL9+fTEbWiAoJ2SJRRUTiwsfIBZpm78L58/h94UL8O/q1ahYqSKemfYcHp08hV/T6/WQyWS2u+/lHrF4YQYGDRkCCxN19ohFvVaHFFZRl5II9FTj7Xff562dAQEB/LlJSUlMJGrx2qsvwYeJRI1GC3cPD3iygo8PIRIIBHkixKKDICNGg7qFwbFCY5eEWBQIyj4FEYvRt26hdYumvNIoZeKMts/j99rsokajwc3bcfxzXhRVLCYnJkDHxGBwUAB+/ulXXL9xE6++8iJCa4fw61omJt9+9wNkZGTgdSYYDWaakCdBcKXKD3RbIHBlhFh0IMLY3EGIZoGgfFAQsUgthydPHM83/5uYiOzYsZPt270UVSyeOvYftJpMtGrVCi+8+Ar69euDxyc/CnnKOSgzLiK94khERkbi089nYsyYUcwfFt7S2Lx1++w9oQUCwb2IdRYdCBlIcVgPgUBQ3qB8ff+8rVQq0bZde7Rr3yHP435CMW9owhx7JtOIiYlJSEhIuM+RiDatW2LCuLG4fPkys0NAty5dYJapsezLSegy5j0o086iQoUK3OXwiHCMGT0Kj0ycgKQcY8wl7F9KSgri4+PZMxOEPRMIioAQiwKBQOBCkGYqadlkobY/rhUlSEtLQ0pq6n0PEow3b0bB358mrQAxsTGQmHToM2QsZj9THQb3mtDQxBaGj7cPYmNicePmTcjlCn5OLpdjwfy5WPLnIiTFx2Hjxo14bNIkaDSZ/LpAICgYQiwKBAKBIF9oQgmNWaTWxjuHyna1YFDrXo0a1RFSq9Z9jprYvG07Pvr0fwgOrgAfH28sX7EKOm0GvDu9jxqP7YVC7YetW7bzMZUN6tXDW+99hE8+mwk/P1/exX3wwAEY9Hq8MH066tapgyGDBuO1N97ATz/8AIXCKigFAoH9CLEoEAgEgjwhobh58yZUqxSMAB/PHIeH7Y7ioVGjpmjZpg3WrNuE4cMGIzk5BdNfeAVbNm3A4f278PqMt7B56zYEVwhCenoGWrZtg9Zt2sGdJuIwsTjnt18xbdoz0Ol03D2awU0tkNG3ovn+1gKBoGAIsSgQCAQuBB+7Z2c/NImtRyeMwx+Ll2D/oaPYd+gIP/YeOGy7w07YMwsyZrBBowa8S9nTywsarR7PP/cM9EYj5s5biG++nYWw8Aj0798Xgwf0R/i1G3BXuaFdpw5cFBL03nKZnAtHLftMC3oTUuldE2skUvgw4Zu9FSH76+7hZf0skUHt5c2u+0Ctyrs1Uqpwg7ePL7y9vaCQWd2Wu3nAy822rJBFCg9fX8gkFig9fODDPmcdvr5+UEjvDROluydU8tzn5WofuMmZ++ydPJno9WHPk4vSW1CCiOQmEAgEgjzx8vRCUHAwQmqHolHjxmjUyHo0btLEdkfx0bZtGy7uEpJSsH3nLrzx+iuY9swTePKJyfjko/dA0uzYqTN8l5kKFStCzf4SJEoHDR6Er775FrHxiYiJS+DLf1G3tEKphMFg4PcR+qQbCA4YggQf6wxqlbcZz/dsBqMZiD2+FP2a1EKD2iEY8uSnSLHI+T1ZyOUGrPn8MTSvUx2N6jbBZytOMg0ux5aPBqHRW0f5toRu6igM81bj0G0Vlj7fHE3q1kYw+149pA4a1KyIzVeti54TEpgRfekI3h4eiq8O2gQrQyqzYNkIf3y3X4+4/+aiR4t6aNa0Db7dfJ1px7vEr0BQTAixKBAIBII80el1mDt/IZo3boAqFQJRtWIwPwJ87oiZ4kLt4YHOXbvAnYnA4AqVsGXbLuzdfwj7DxzGug3bkK7VIyAgEPUb1EPdenVtv7KKxfETH0FaWirmL5jHJ7tcvnQR0597Fq++9np21zSHFv32ppZF61fp4Z9xPmgK+w0TjVO/wPRtF3DgvxN4tPJxjHx/V66WydsrX8PHu/yx7dAJHDu5DOfeH4MrqRooecuiVVjSxB4PVsxKDBkY8flO7Dl8HEMaVcM768/jwPFz6FH9zrvcPrQUQ15YgPBr6ZDRRthZpN3GNxcHYdLAZLzy0Cf4evl+7F36AX56cgpu6pS2mwSC4kWIRYFAIBDkCWmooYMG4LsffsLCRYvZ8Sc//vp7mfWGYoYm0/QfOIC3ZNauG4rqNWuiSrVqCKlTG40aN0K37t1Qo0ZN2913oN233n3vA3Tp0gVHjx7monfNhg0ICAy03ZEXFiz9eTW6PjGFFYx7EFVxAIYHmJlABHr06YVba1YgLbvINGP7uqNoPOJRKOUyGGWN8OigIGy4qQX1FueFhAlTauGkyxL2N+tzFoGtH8apnXNQxz+nAJQh/vYxVHv8SVRKdsNzCxehRqASSnc15CYFfzeBoCQQSU0gEAhcCGp5yxqi9yAUcjkXWEOGDmPCrEf20bNXb9sd9kHPK8iYxZzQuEPao759+/bsPYZg5EOj0a1bV4TWqcNbH2lGdF4YjAZ07NQZw4aPQP8BA7k4u987WEwG/HGlAab08wR0SVB5ePPFxwkPDy+YjcmwDYnkpKUa4Ofvyz+bLUb4+vshOcnM3pefKjAyuRR6jY65ZTvBkCjdEL7mTzz5UAgyTF5o27Uj3JRybFo6B43f/g41lHrbnQJB8SLEokAgEAjyRCaX8aVmenTpjIF9+2BA39786Nm1s+2OEoKJPCb14K6QwYOJJd56Z4f4pJnP1I1Nx/13jZHCZDgEv25DUUOjZSpZAaNOl/0bExOeEokb9VpnI1dI+baDBK0fSbve0Ko8hZPEeePmFomly6PQ0tsLXKeyFzAe+R8+WK/E4qfrQ2905NMEgvwRYlEgEAgEeWLQGzD9hZfw/Asv4OHx4zFu/AR+THz0MdsdxQtJNRN7B4tBxwUiFVi0tR//bDLCbNAzzXhvyyIt+XNg/3688dqr+Hrm//Dyiy/gh++/h4n9Ji+oBe/awi/Qp18TaAwmWKStIL11BDcU3lBQ696l81DVaQN19uxlCZo1r4TLRw7xrnJPTwP2H7iKVjUUcFN7Ii0mDjKlAir2fjEwF3q5nrRti3Gk3vPw4nN3mO8zL2HgtN34dslsKKkb+376VyBwIEIsCgQCgSBPaOzfo5OnYOiw4RiS4xg4aJDtjmKE6bLMtDQYdFrodAZkajTQaLTIzGB/texvpgY69leTlg5Lzr5bRsztGOzavg2fffopnp32LF579XW0aNUSfy5axLujc2K2WJjwuo4ffryONnVrMmlnYe5VxjN9ZOjdfhhmzXwD419biY9/ex6K7C5vCTq/PhN+W9/Ac+9+jtdHdMFScx90C/RAm0GjIFnzPD7/fg7emfYCYjq+jwZV7jwzL3GbE7pu9Y0Eq5buwUOvToaM+U+p1uH7Yd3RcOIYJO5fifVr1yA2OcdkHYGgGJE0atLcrnZs2nB6+959tm8CgUAgKEuYTSaEh0eAVlv5fd1urK7/Lm+5owJgVfc0NPe/t9XN3V2NRyaOw+5dO5mAMkOlVEHLxZsO16Ju2+66lwVXVPjktHU5GiPTSU+de5UJzMGQKZSoWavmA7qEGex6WlIif6ZcJoO/nw9+/m024mLimbgzw13tjtEjh6NixcrIyMzk7nn5+fO/JAanPfUkvv7ma6jY8+hcUkoqX2vxq5lfYM6CBchIT+ePoXGKFy/fQmX9frT+HLiychIsBuvARKlFj+vh4UjWW/DHO48gvvm7+O294VDYpBzvEs6IQ3jETRhlalQPrQsvBbvGnq9LvInIG3GwqHwQUicEbpI7AvDmlQvwqNEIfoocAyCzsSD6ynnIqzRFsKcFo4ZNxrLNTOBm6JmzOoQdv4BMiSV7XGOtuo3hrRY70gjsZ/iggbZPVl3n5e1t+3Z/RMuiQCAQCPKElp/ZuH4dIq7dxJSpT2L/0f+QyAqYdu07wJhjvUJHo2MCUKvRwmAwskOPac+/iLNnLsDLyxOBAYGIi43Hl19/hwsXL0ClUvKWx/SUlGwRmpGRAX9f2ldaAiMTyRkZGtDkFqVSwQVyFhKZAg0a1IBvq8mIXfNotlAkzBIlqoY2QOOGDfH9klUY3K5R7pnOTLTK1QGo17gZGjWoYxWKBIlq38qo36QZGtStCVW2UCQszM36+QhFQoJKoY0Q5G5iQtaMTZuXQJpuncRiNqtQu3lzNGnWAs2aWw8hFAUlhRCLAoFAIMgTPz8/Pt7udnQ0qlWrjg/fexfp6Rp+LiYmJlucOZr09DTomUgMDPDFvPkL4aZyw2effoD33n0Lb8x4Bb/+PAuVK1XGokV/ITU5BTq9FqkpyUxQWUVYw0YN8ceiPxETF49bt2N5ayRBXdlZu7zkxGLUISUzf/GrU1XHyH6hd3Z6KSH4zjPFE8QCQYEQYlEgEAhciILoHWqhW/nPWrz1xgw8MnkyMjMzUSk4gHf1VqlalbfW2QW7rSDPTYiPQ0ZqCh+XSF3nPXt2RzX2PGXCQXhH/MDveW7aU1ysRlyNhFGnYWIxCRnpGXwpnTfffhdHjh7Blq1b4eHhgfj4eHzw7jt48cWXoWGCUSAQFAwhFgUCgcClsF+1kfBq3qIF/vp7Od8ub868BUhMSWcCco3tjoJggUQqwZmz53Dy1On7Hk0bNcTAAf0QERnBRWa71q1hlqnx19dPo82EX6FMPYOgIOsC29euX0fvXj0xZNBApKSk8HM0Mefb72chKTEBH7z3Dpb9vQS/zJ6NuvXr8esCgaBgCLEoEAgEgjyhlrvbt6PRrIl1u795c2YjLjYOkx+ZaLujYFBLZN06oahfr+59j1u3ohF2JRzBQcHsHZggvHEdEpMGIyc9h40fNoLBsx7S0zO4mwH+Abh+/QYuh12BQnFn9xNa9/D5F17ErJ9+xudfzIRSpeLiVyAQFBwhFgUCgUCQJ25ubujWuSNeevlVPPHU03zCia+fHxOQt3PvsWwvFutC2eTu/Y7tu/bg089mwsvTC4GBAVi56l9kZmRA2Ww63IdsgErtjVWr/+Xir25obbz93kf44stv4O/vZ3uQQCBwJEIsCgQCgQtB6wra2xGdnJzMW+honcUqVaryVj5SfFWqVEF8fBxvebQHemIBhiyiRcvW6Ny9GzZu3oaRI4YiPT0d0557AcuWLcWWjWvx7PMv4uChw6hTtzZ7xxR06dEd3Xr0gooJTYFA4HiEWMwDMoDisB4CgaCcwVWbfdLNx8cHAwcOxqB+fbBt2xa+3uIoJt727tnNxWOB9nsuwL1169cFs0Dw9vVF9O1YvP/u25ArFVi58h8s/P1PREXfxtixo9GiWXNci4qGQiZHqzat8pzpLBAIio5YlPsuSCAlJSbyWYCuDCUKWgw3uEKFe3Y8EAgEZY+sRblhNmPRxj34p/57fFUWyuv5LcpNULfxn3/8gdOnT0Kr1aJSpcp4bPIU+AcE2O64l7sX5X7y7CsYMHAQFCo3+xblZtDuLPv27UNaWjoSE+LQrk0bvuYiLdSt9vDA5YuXkaHTwc8/AA0a1Ef1GjVsvxQIBPlR2EW5hVi8CzJiCfHx8Pf2gpJ2hXfR1jUSiKfPX0RonVAhFgWCckBhxCK11P35x0KMnziJTx4h+2hPa6IjxCJBYxJ3bNvOu8JJNCYnJfJ38vb2hY+fN99RpmnzplzAFqiVUyBwUYRYdBBZYtGH1Vyjo6Nw9uyZgvSelAsUCjmGDB6KUxcuITS0thCLAkE5IEssWswmLN6wB6sbvg8Js21k3vITizSDuGObVljwxyK0aNkqezYx2cmsZWry4h6xeOZl9GdiUenujpo17ReLBInAxMRE3Lx5EzE0sUarR3DFCqhRvRpv3aSWTyEUBQL7EGLRQWSJRS+1Oy5cOI/hw4a43MDOL7/+Fg+PG4+zTCzWFmJRICgXZItFkxGLN+61SyzSHsw1KldEKrP/tJtLliijrfgibkTxz3nhSLGYBdkhOui3JFrpECJRICgYYm9oB8NnDLJDo9EhJS3DZY402x6qWS0IAoHAddFkanAhLAJRMfE4ezEM5y5d4Uf49Zu2O0oOskm02LbBYOBd0UIoCgQlhxCL+UFiiRkjrc7gcgcNIOf+FwgE5RJ7ZJZMJoOXlxfef+8d/pm6e+mgySXr162FtgDb5tHzSkLaKRQKqNVqfvj4+mDx74uhVCoBiRzSmNmoU70yunTriLahVdF90icwqmS2XwoEgvshxGI+8JZFs3V1MJf7Ry2LotYuEJRLeNZ+QPamrt4DB/bj1ZdfxLzZv+GtN17Hm2+8xo8Zr7yM1195CUnJSfZ3J9PzmD0teOdzwVixdDkmj3+MHxNHTcDJYyewddMWLiJJMAKNsSIiEuGXfsTt3ctwTKos9ncSCMoDQizmg5kZNrPFNVvXyNcm0bIoEJRT7KsIVqpYCV26dOPjBNu374AOHTpZj44dsXHr9oLPQC4BVUYztrNaFtUe1jGT6/5Zh3m/zuUi2R1n0dvTE1XqP49Wj72JTnqtnaEhELg2Qizmg4UJRWpZvB9ShQrnV3+G999+E2+/9Q5+mPM3Ugy0Wb4cUVu+xbv8/Fv4+scFuJGae7FYi0mPX7/4BGfTinfHgYwLm/HOO+/gnTdn4NP/fY/94RkPbg1gQpF3RQsEgnLJgwQSicCatWrhoYcfwi+z52LIsOF8F5eHx0/A2HHjERpa13anfdDzSkKUGY0GaDQa65Fp7SZv3qoFnp7+DLN7gAY18e2WLVj65ye4tPBDbE50g1Q0LQoED6SUxaIEuvQk3Lp5A7djE2GyZOVaCQyaFERH3UB0TDwMZut5fVo8bt64wZdQiE9moseWy42aVEQxN27euI6b19kRlwFDeoL1XnbExCfDfJdAkkgtSI2PRlTULaTrTPdUenkX9ANqzRK5CmGb5+CMpApaNgnF9Y0fo/Ozi+HhocLt/Qux+5YMLZo0QMZ/s9F97NtQqe4EN81IXDr7Z4Slq2xniobUkIZbMYn3+EMTvhvzlx1E3UbN4JtxAmM7NUVEksF2NW/I12KCi0BQPrFHtFGFMjw8DMF+fpDL5fz75k0b4amSw10hxcIFc213FoASUIsjx4zC3EXz+LFo+Z/wD/DH5CcmIzMj03aHAgGVK6NaaHWokIp47d0WUyAQ5EUpikUpJOmHMaBTf8z5ewU+ndQV7/51GHJmlNxxDmM7dMTnP83DJ1P6YNzrc/iLnl8wDcOenIkNq/7AlP7t8daKm1wwRu36Dd1HvYNNWzZh88Z12PLfDVz443kMfeIL9n0NZozvgSd/OMEemWUYJIj99w30f/gVbFo9C70GvYp0JvByQmP2THZ0sViYwK3bcxQmTnocny9eA+PqP3BepeTXqrbsjUmTHsXHS7ah5un1OKJU3SPmrEjh5aWGQqWGt7c3VArroGuF2gtqdzd4snNenmrI+I/pXg9IbO/m4e3FwkyB4JjF6DnhQ/j73N1SaYGbby2MnTARr3z7J6aFJmFXfCJo9E5+8DGLQisKBOUPsiHcdtzftqUkJ6N7505YuIjZlZ69YDQYMH7sQ9h38AjOXLiMb7/+6oGV6dywe/n9xSvOaLY07TJDB60D+faH7/AFvTlm+huGMbVqoXW7J9Huldn/Z+8sAKM42jD8nksuHgLBCe7u7u4tUG8pUKjb35Z6S0tdoUiBlmLFrbi7OwQISSAEjcsl5/LPzN4RIYHIJblw89Bt1m53x755xzGqop52peRwOA+h1MSiRCHG+jeewICfl+GHDz/A33vXYMtvv0CskWPX5Ofh9+w0zPv5Gyw6fAKBB/9AGBFlYmJwyjfsh0nvfI5d237D3g+eQrKBmh8blJW6YMKrr2Piq29gwqD6rOaufIP+mPDKm1j554c4NOsLaM2CoRLBiJkzd2HS9LV46c2f0ca6Bxujsossagjz2xQrVarh5aVCQtgmGGo0RohV+J1EriTn1dBe2YQ73qGoTqd7YFeyQr8pBlWDQvHKU11RL0SDwR8ugVIuwtIR/qjbcSg6N6sJ38DamLs/jtx7DcE+bZHsp4ZUIUFrVRD2m6+g29O/IT18LTqOmA6TQ2wKCM3iXl5esCWew+EYCWoSAfogl9FaVU/tr8nhPNrkT6wlJCagUuXK6NO3P5QqFd5683U8PnoMQmvWREhICHr16oPr16PzP8CFUfKq7F4Lid0CW8gbiE3TIS41A3fiYjHjf8MgsnKlyOHkh9ITi+IE7DtoQJuqgUg3GpFuqIPjhxexJuUDBxLRrHljZBiMSEv3QftGXjhwQ6gYpKsPWMwmWCq1QCufuzDoaWlRRMShgU0wSSePNVgEA2G3CXNyZaSlw65Q3TOTdsjxxbbTeK6+DmaTDvGmymhQNfuEtEwo5qPkLBJbMW9oDcjkcjQfNBV/Lv4YqnQju7bj4wHsfI1WL+Hlab/DT+co4d6HGJqMVPT95QDO3zqJ2wunI0Yph8zLB7U6PYWdB8/h+Ldt8M2nn1HpBx8fDZtMl36fxscbGv+G2DJnErzrDMLWReMhN2ftHymBLmo5ynnJEFi5Ewxj/kWnKr4PFIvUh5j7C5IPcDicMkF+5JG/fwBuxMTgyJHDiIy8ghXLluLd/73PxBetZdy6dQuqVateoNrFB9ucEsBO8pOUFFbjyPIJ0/2TkHM4nNwpxWZoKxFqdC4vZ4Oonc3lRWQfTEYbFI6mXGqMFAopDLQGMZt4kUIidczgL5LAdHsvZvz6E6b99Acu6EQQSxSI2v4tRg4agM7j5+KdadOhIfc7sVosEMkVuDzrSQQ8+SZa2Zx9WgTy3Qxtk2DU7L0IvxyO/Ztn4PWhk3CTlMQpHd6ehyvk/Mlj67Hk1adxSabMU3+Z/ZoQ4WyByRSKctIk3BXRoLHBS+MDs9WK+n36Qhx7PU9LT0dvZ/2bCfHLKgNw/MIVXAg7gjo7nsCK8IQHNkNTtwslcq4WOZxHC2IfqInIw444CQwMxIbN2zBx3Fg8+9STWL5qDatVTE9PR4VyAXjn3f8VrFaRvY/bEw6nrFKKYlEOjcbOav4odMDJsUPHYZXIoPEWIyNdEG8isYTsG+HjS+xNFgMnFmmRkioRlqKzW4gg6ov3P/0CH30xGS28qNgxo3K75/HTH58QsVkFo3pUym4gRVLEH56L0YsC8NXE/jBYsltP2gxLR0TnB5VvIMqVK4eaDfuhvHEvjl4Tzis0figXXA6VavdBi+Cr2HFRlkPwZoG9z7GfB8Jl+gC6Z4edCMr82GuxVIkg8n3lqrTCs4OrYNuJVMgeoBbJk4nEtHHTzuE8cjjtx4OhhcWmzZrhxJnzOHP+Ijp36cr6A9LuLAkpWjw/9kXHnQWAd23hcMospSYWLZZyGD6yEjaduwqFRAKZYSfe+HIZvKVqDB5ZD3t37oRcIoJKEo6Np2zoXwEQupcQY0cUUuL21TiiaspGHjOIIaLGjG7MJJFjhXcFVK/eCWNbJ2PcDyeJsMyUP2rRJUyYOAdbD85CkPT+0cFCn8WHG1UG+R4xEbVW8xXcTauGWtUc58m3ioigk0mu4UK4Go3q0iWqHJfyhQj6jHQijEW4tHUrEFKdnKsI74zriDLLIbVeRnyyIwiJ+hMRA0/vzQ1aCyCXJWHjpmg0qq+CNftMPtkh7s632zkcziNLBrE/tDbR2dxM7Qgt4FM7y+FwPIdSE4s2sxGtPlwP8Zr30b1HV/To8x0+/P49YpyMqPvqv+ihW4XOHTqgbZMR6PDFLJQnxor2VYxc9TEG9eyGx749jVlr5hNxaYPVYoPh5M8YTJ4zsFdnDHltGcw2A7Q6IgLtVjz9zsu49MMziE0XFJJIZMGPg4fjbJIWLw/siyF9uuCjv06zawIiJpYe1h+HSEFY9Cn4Z3x3NGxUHy1ajMbz8+ejtdVIzqdi99fPk/MNUa9KezT/+k/0FemzlOntSEszwGyn4s6GtFQtm96HGmNtSiqsVBNDgqh9f6Fvp2Zo98lpfPbNl+SkBG+Or4+RIZXQqc83iIMJFvIsY53haJW8Gu2fmJNtgIvNbID+GjnfrCHqVqqDo80/wISGFWB6gNPoJT51Dofz6EGtDU3fD7Zs90O7CLFuQjkKo/ltii7MOzkcjvsgati4Wb7SMB08snP/AceR65Ap1VApZETTmYlQ1NFKLYZUroRKqSAWxgJ9RgbomBWJwgsapZQYHTusJiN0eiMzQHRybG+1czQzHeyiR4ZZCpXEhHQiGO1EdPn4eiGDuMH5fKXGGwqJUysT0WdMR4bBwoxfYkIijPoMXL58CcOHj8i7FE3EpMzLD2q5YDDpCGwd+1YbJCpfeCvo+G2CzcrOmx2jpAVE8Pb1gUGbQoQt/T41EYlaUO2o8fWFIS0Vqyc0xJq6c7Dq8wHMHzLSM1jtqlimhEatYEKQeBT0qWlEXIqg9PKBXEQHBQkDbCgimQq+XgrhO+w2mAw66I151wrQZv1pv/+KwUOGISklDaE1Q4Wmfg6HU6axWa24evUasQEGLNl6EOsbfc4GylHbsLqbFs0CstsFMRGHt2/dJNttxMRcZwVoOm9h9eo1UCM0FNevX2fL6FWoUMHxi0z+jlTgq3PCCioWYj5ePPsmG1lNpwGrVr1avkUmh8NxLcMGEj3hgOo6b5Im80OpqwAzES9pqanQpmcKRYrFREc3k/NaQShSrMYMYSQbEUcZDqFIobWU9LywpTCxRO+lQpEighVa8puszzeka7P9hgrFrLDuNQ+rXCMGz6wjv6cj7MiWpk0n30pfQt6oT0OK43xqmjaHUKTYyTelOiYcpzWL6UQo0n0R0h3ij91lMzF/SCP+4JzlgYpE6mfpOiPSybOd9xoy0rIJRYrdrM/8DvLcBwlFJyKiWHkzNIfzqPLwtC2RSvHHb7+heeOG+P67b7Bv7x4cOrgfc2bPQsd2rTFy2BB0aNMSMdejHb/ID9ymcDhlFbeuMqKlT9qh2pWbXC6Msn4YbLk/qhgdQqzEIXa17uDXMLxjDceJkoOOhn5YEzyHw3l0iY+NxZdffIqzYZex7r9N+GPmn/j9j5lYtXY9bsUl4kr4ZXzz3Q/o1LmL4xccDudRptSboR9EKnnnY6Ofgr+/n+OMEyrgnJ+dn32KCDpdBoYOGYTxY19wnLsfZzN0ujYN4Zcv4bHHHvOozty0yfn3337FgIGDoc3Q8WZoDucRwdkMbTTo8e/WQw9shr527SoG9u2N67fuIiMjw3FWQKFQ4vlnnsJHn36a51yLuTVD9+7bD94+vrwZmsMpRQrbDO3WYpFOnHrw6AksXrgA5UIqsRUFrGYzLoedR/XQmvDx9cO50ydRsVJlVKhYGSePHUZQcHmE1qqNowf3w8/PHw2aNseli2HQJidi7LjxuHDuLF4an/e0D06xqE1NQcSVK2jatDGsDxw6/GhBR2+vX7cOg4YMRYbewMUih/OIcE8s6h1isXHeYpEul1e7RlV88/0PePX1N2Ex02t2Zh83/LceE8aNRXikY46wXLhPLJ5xiEVfLhY5nNLkkRWL0TfvEHE3DrUbNUWAfwDq16uPlJRkeHlpIJXJkEr2VSo1FEolUpKTSKlXAS+NN5ISE1iTc1JyMq7HxOBWVDjmzPuLLYY/6aXxjjfcj1MsppHnXo2MhMVqgclocFx99KHCkHZcHzpsBHRGExeLHM4jQqZY1DnE4hd5ikWa5q9ejcKEF19AFLGDUikdWEieYbOhUsVKmDL1G3Tp2k24ORfuF4tvOMSiHxeLHE4p8siKxWs3bmMiEYvNO3YrdD86ukrMxROHMOevv7Bty5aHisUkIhZTkhIReSUctZu3g5UIRk9BRDKJ7WuWY9DgwdCbzFwscjiPCE6xaHCIxf8eIBYp1N7StE+3rOKOCsaHTa2VUyyOdYhF2hrExSKHU3qU2dHQ+YFOlePjHwTfgEJugeXuCU25XAaNRpPn5u3tzd7nXO5PGOgiDPjwlI253ZEZeKnVufpTcW7eZOOZCYdTTOSjzB179y4G9e+LBfP/ZsKQTpFDu+PQ/tuFmoOVvjMf7+VwOO5JmahZnPTSBFSoVIUJGaeIcO5TMUf72dFjCj1HjRktDTvP0f2UxHj8OXcuXnxxHJtcNi/S0zOwf9c2xFyLRmREOOq2oDWLHtRnkfjVtjVLMWDAIFghwhdTv8HNm7ccV0sG6t+rVyxFgL+/4wyHwykq92oWdY6axSYPboaOiLiCmdOnY+/e3WjYqDFGjR6DZs2bs0Et1MY+yC7eV7N42lGz6MdrFjmc0uSRrlmkZkWnTUNA+YrMSElkUgRXqYH01GRUqlmX3aPx8UeFajVZf5x6Ldoyw+gfHCL8huw7jRMtIedWm+XcaM0iUZm0bpEJUeHtHgbJPeja2JTSqFmkG89MOJziQihEPwhqZ2vWrIUff/kVR0+cJgXtvxAXG4s+PbujYd3aWLTwH9aPsWA8/L0cDsc9KTOd0UQSMeJuRsNsMhKRmIJbV8OJaJQhJjwMRoMOSQl32CAWm83K+icajXok3L7OfmPMMkCFrmtK1zrNa9NqtbR6kjyHCibHjzwM2gztdHuGTperP7l602rThRdyOJxihSbtgpg2WstIBwuOm/ASIq/dwIo1a5FO0uvwIYPyPa1YQd/J4XDcizLRDP3yxJdYx2ilSkXEoolqOUjlChh1GWzZPrPBADERk2KpHCZdOlQ+ftCnpxEDJywBSAUmnVts1uw/sXvXTrzx2ivsfG6IycPpaGDaZ4cOcGnUprPHDXDZvOpf9O3Xn/ipFA0bNmCrORQ3tC9pz74DmZinzVsL58+Dv1/O+TU5HE5hcTZD64nd/HfrYWx4QDM07cLDhKCjK899EDup8fYmdjX3mSJyNkO/wJqh+8LXz583Q3M4pcgj3QxNxVrjdl1Rr2VHNCTirQHZ6rXsgEb0XIv2aNC6E+q36kT226Fh266o26wtE3n1WrZHvVYd0KRDd1iICKEtylSM0Elm89rSyUYNGTWWzj6PHgcd1EOrVgk6vT5Xf3L5lp594l8Oh1NMULP2EK1GC8vNGjVAg7q1c91Cq1bKUyjmiYeaUw7nUcD9axZv3sGkCePh6x8AmVwYkWe32iBTKNiC+Eq1F5sHkTaVSGVyUmpOh1rjDUNGOrlHRZ5iJwLRBBMRPbPnzMW2fMyzmJSYiFs3byIq4gqaEEFa0JpFKjLPXQyHwWgscAm6Ud1aUKuFEnlpQGsWN61YjN59+hL/U6JGaA3mt8WNXCbDkJGjeM0ih1NMOGsWdcQ2Lt1+GBsaf5lnzSK1mWEXwogty33kM+3T2LJVa8fR/dxfs/g6synUjvOaRQ6n9HhkaxaTk5Lg6+sLtVIBmVgCJREVKrYvglqlhAQ2KImIlEklbF+tUkFss0KpVJJ7ACm5TyWXs4ErSeRZ+TVSVPBRg1gYrsXcRItG9fD4oN4YOaBnvrdhfbth3dZdkMmKv9k3L6jvZJ06h8PheB4yUvCmI5+bt2iZ6/YgoZgXvGKRwym7uLVYpMblq6++RuWq1RFQLphs5Rx/g+EfJOw7/wY69nP+DXBcDypfAVOmfAUREY/5gTbDFrYZ2kJK8MFBATCZzKSEbsn3RqcAMplM5AmlXOqm7i6k2zkcjptDk3ZJJ+/SeCeHw3EZbt0MTWsBNV5eLrUxtHnFaKSCLHeczdAx0dFsgEuLLr1gzeeIPydXrkajS5vmjqP8I5GIMfX3ORj39GjynWbHWfJNRNLH37mN5AwzvHwDERLkDVExiTna5Lx+6QL07NWbNefzZmgO59HA2QydkZ6OZbQZuknezdBFJWcz9POnhGZovwDeDM3hlCaPZDM0rdnTZplexRXbg4RiVqw2YQWX0kYkESH60Eb8d/QqZFIzjuzcjNMxKcUacHTaHN4MzeE8qpSOXaOz13I4nLKJW4vF0oQ1QbuBWLQm38CuaxJ8994zaN2wKZ57sg/CTlxBYAUlJDI5pBIJmwNNLpO4rPFaRM26p04yyeFwOBwOJxtcLOaBMMCltAWTCKkpyRD7NIIh4S5itRnQWvzga7mNu/JgXNiwEGt2HcKyFaswd9UeJFvzXsawIFB3M7HMW4o4nEeP0jJrvPzJ4ZRZuFjMg6IMcHEldNoekVoJvcnm0G52SCVmGM1KSOko76pN8OOHE9EvKBXX440uMsjCSHARV4scziOH0Bxc0raNvpWrRQ6nrMLFYh7Q/orO9ZFLn8zl95wIQs6GWlX8ERZ2AxaFCCaLFT4uMMh86hwOh8PhcDhOuFjMC1qzWOrN0HbI5QrYkpNgcY4eJH9MJgX8fIiYs4tgt1pgsolBL9Ovlbjik4lYdK7gwuFwOBwOx7PhYjEPhEaT0hdMdK5Iqe4itDorJBIZRCmXcce7Hlqp04vt6wS3l7ZQ5nA4xQJN2iWdvEvjnRwOx2VwsZgHtBmWTp9T2thU5TGkR12sXr8BK9auw6I9d/HmuB6IvRoLq8UMs1X4RlrDaLa6Rj7SSkULr1nkcB5JbES1lXRhkBdAOZyyDReLeUEHt7hBn0XaHOxTsQHGPPU0fvj0Xcz+bBzKZcTiSooNDfo+g9HtqsFKjHBI66GYOKgZbC4Zk0LczcUih/NI4hITweFwPAouFvOATR/jBjWLTnTJ8Th8Kgx7T0fgRpoJbNVCuwnHzkbBSA7o4blzl5HqgpURqE4u7LrYHA7HzaFmraRNW2m8k8PhuAwuFvOAzbNIjFthpBf9DV3rmS5hJ5NJ871JxBLy47zfSJfIYpvjmJJ12SxXLaElzDHpOOBwOI8UpaHZuFbkcMo2br02dGlABRddG/rMmbOIjAhH78EjYSng2tAmsxmrN25Dhk7nOJM/6Lt7d+mAqpUrMcFWGtB1oP/9azbadeiIGjVqoHqN6nxtaA7nEcC5NnRaagqW7ziKTc2+KrG1oZ898Sp69u6NoHLBfG1oDqcUeSTXhi5N2NQxhWyGpsLn6ZFD8NKzTxRom/DMmFIVivcg7+dT53A4HA6Hw6FwsZgHQjN04QWThZTiaY1kQbdSF4oEoRmai0UO55GktJI2NykcTpmFi8U8oFPnlP7a0KUDnVqDup+3FHE4jx6lpdns3J5wOGUWLhbzgtbwuUEtX6lwz+3cunM4jx5ULpa0baPv81B7yuE8AnCxmAe0GZaukZyuTSOb1oO2NDbAhDdDcziPKrwQyOFwCgYfDZ0D52jow4ePQK/Xw2Qy0rPCRY/AzvxAoVCiWbNmbOQiHw3N4ZR9nKOhU5KTsXLnUWxq/nXJjYY+/gp69OqNcuXL89HQHE4pUtjR0Fws5sApFi9cCGOixVOhNYvVqlVDjdAaXCxyOI8ATrGYnJSElbuOYXMJisVniFjs3qsXypevwMUih1OKcLHoIqgRS0tN5cbMgdrLi4tFDucRIFMsJhKxeLwUxGJPIhZDuFjkcEoRPs+ii6DTxlDP03h7841sJSEUORzOow+XhxxO2YUrAQ6Hw/Eg2GQHjv2Sgr6PjpnjFYocTtmEi0UOh8PxOLhq43A4+YeLRQ6Hw/EoaD1fadQtlvQ7ORyOq+BikcPhcDgcDoeTJ1wscjgcjgfBFmcqhYpF9l4Oh1Mm4WKRw+FwPI5SUIscDqfMwsUih8PheBSlJdy4YORwyipcLHI4HI4HURrNwWy6Hq4VOZwyCxeLHA6H42Fw3cbhcAoCF4scDofjUZSWVKTv5fM7cjhlES4WORwOx9MhGo6u1+yyjYtCDueRgotFDofD8SBo38GcUk6bpkVyUpLLNp1e53hyJrzPIodTdhE1bNwsX0lYm5aGnfsPOI44HNcil8kwZOQomM1mWK1WLJw/D/5+fo6rHA6nqNhIurp69Rri4+KwZu9JbGkxFSJi/WkG8KHXToRKk4QbXcAOY20sMzRj+xYx8NTRSejavQcqV6mCqtWqstpHDodT8gwbOMCxJ+g6bx8fx9GD4WIxB9SI6XU6iMW80pUik8tLxLCXplg0GAwQ88yLIZFKIZFIHEduAAkXA0+P95CSdFJYv8guFk8QsfgNE4uUyuYbCLbEw+6CdCCy2xEjq4oEaRA7FsTiRCIWexZZLFotFmYfOCQ8iT8rlUrHUcHg+Vx2Siqfcwe4WHQRNMIkJiQgJTkFIrHnCgja58hMDHPNWjVLxKCUllik4Z2akoK4uHgikjzZcIpgNBpRu3YtJhjdBRo+tFkzKTHJ49OjiaSNWiR8ii4WY7F670lszSIWi5NMsUhrFqsWSSxaiB9ERkZBoZA7zngmVosVFUIqQOPt7ThTMO7lc8T2FTYsHgVKOp9zB7hYdBHOROSn0ZBSm8JDS14i2GwWXAiPRC0PEItpqamgdWm+Pt7uVatWQlA/sFjMCCPhXbNmqNuJxaTERHirVVAplZ4ZPuSf1UrTY4RLxGJcbCxrht7asuTE4pNHBLFYpWrRxeK1a9GoX7smZMRm2D2wI6SFiJvklFSISDotqlj099YQ4e3Z+Ryze1wsPhQuFnPgTEQ+XmqEX77EMieZ1LMyqCNHj2Lc+JdwNuySx4hFMcl0tNpUJMTHQ61SeFRn/JOnTuG558fi7IWLbisWNSolrl2NYnFDLnOf7ytuaDQ8duwYxo2bgDMkfLhYFMRikwb1sWjxAjRr0sRx5dGHellaegaqVa1O0qgMYmIziyoWfTVeuBh2gQlvj8znSLo6d/EyF4v5gIvFHNwTi2oVLl26hEED+zMB4ylQcTxt2nSMeeJJnL8U7hHN0FQsiuw2aMnfZk0be1jtlQhLFi9GvwEDBaPppmLRS6nAtago9O7dk9WseAo07c2cOQujRo3GWRI+rhGLd4lYPFUKYrE7EYvVXCIWG9evi927dmLkyBGOK56BXq9H1NVoSGRyshVdLNJKkbAL5zF0yGCYTCbH1UcfauN//30annjyqRLN59yBwopFz/CdQmCjRtRuR4beCJ3B5DEbda/NZoOdeYDnQLQia9LSeVh46wxGWGh4u3lVKo2P9BszdIZc3PAIb470SAczuApm2oTdEsPV77SR+EALlTT+5upvj+pG4gNNB65Kr8zOk/8y9J6Xrqgf0njEyR9cLOaBnagHkiRhIQbJ0zaafKjrPQka1tR4mHPxj0d9Y0bTRZlPccHCh/zztPCh7nV5+NBHlXRwu/idNC5YaXq15O5vj/JG4wPdXMG9dOVh/kjTFU1TNJ/n5A8uFvOApkUXpccyBzNGnlbiYobDMwPc/cNb5Kj5dRx6GNTZHpceH4KzRqywzdllFuJcZqdcFB2oP3q03fNMpxcKLhbzQIhIuZQ6yHmFlx/8/P3h5+cHH28vuGpGD5FEBj9ftcv6EUmUPtAoZZl2hXy7TJ312zWQ5Prxebj9EUYI74J7vEimhD/1T+dG/FWSj/ggkijIvRoqg6D08kbhewna4eWT+W5vLxXNTwoMcb1jzz2x07ruIsZJLx8/qBwebRdJmX8J0d/O0oqXQurwBTF8/LzZoCe6r9L4COlFo74XtmK5mqTVLP3FRGL4+vlDJs7qj3ZIVb5C/KC/9/GGLD+RIycsblK3FyZkc4N+Y0mHt2vfKfjHw54nhKtG6QxXCjknU0MtoymPIJLAy9uXhY9Grbjfh8USFq4qedZ+zMJzA/w1jjjycEQkvvh6qx1HAhKltyNu+MPX1wdyaf6yY2arsrioKLAnFcLu5QeRVJFpG/18oSbpi50nfkrdfM9mks1xicHywVx+Vxx4Wj5XFLhYzAMaiXIrzUu9/PFbH5KBqNQIIpG5Tv122BSegnym8wcgRvz5lVD5PY8Mb4XjXOERExFz9oPK6DnlP6gc3yZR+2LFaPLt5FqQvx9q1WyCJcdv3fftnljaFMRiwQ1HwvoPoJSKEOCjQSDZgitUwuX4h08anHHkDxIObZGkDMDk7tWw21y4xCiWqTC0mogIGm8EBQShcedROJNsR0EqXJjbbe5tNIXwKXycFEnE6B8ixrg1BuY3vqm74SUTI4KElVjuhSNvVkC3r7dDTRKDWHoJwbImSPBTIz1qO0a2rIpy/j6o2rAnNl1KYc+7Nf8JqNQNkWJ1fFPKNWiIAPnvVuagLPrcfS/7kPghRRDJ9KpXqY1p28JBokuBuOd2F2nF0krZrnxvfuKDWK7BmcnV0fmrPfBy6g2JF07OHYlXNicwAXjn+BJ0qB2MACLWWg14DdfSLNm82Xj7PBOW46fvv5c+xXIVDr9egQicTrjl7+U4+2ASFo2BT6PxcEYXKpjCvmjAbEcQKTRWrlAVHy04/HAbQH7P8qYipIWsMFvP8jkXRa4spO6fztznT22jXwB6T5yGVIsIuugjxPaJWOGJ2kx/pQh/HjE6fkVs4/l1pFAngi+1p0Eh6PnSb0i2uH7QIfVD2h+Ykz8Kkz95BDQtkmTkOMoCuSBTavDy2guIjIjCujmP4YVRX0HnVbiZ9LMikshJLuaimkXynbnVLEpVfnjir/2IiozCnk1v4X9PfoTUHN9OV3Fw9z5sroaGdS5lg4cikskhC+6Nk+HXcInEhwvnTqNW4MMNG61ZFKk0sOnT8cGKo+ggo/1ECwMJU4ka3x+9g0vh4ZgyUIyRz86GuQAjuqmz3T28hf5FjoMCI4HYsBE3k4Ejs6fBRDJGU6VmGBkgRow2DXJpHFauTcCpQ2fYZM/i6J1Qtu6NGik3MKTv42j2/gY2F9vhb5vi+SdfIoUrEURECMJyBRMX32IZIqtZJELz/ppFP/T6chWuRkXh1NFv8cvYtxDvVbDCoMvDp7SC2mXvzW8fzvtrFhVqE9b8exTvtPOB5PZOdBv4Lr5YfQzhV69jRr+r6PfaP/BWZqYdkUgCX5UI+3bvhoIIHIrcFonv/04g0cqb2Or8OUokozWLKseRgEThhXqjv0EEscWXLv6Fze9MRDSJQw+TbdROuUos0r7pdCsORFIZsXGtcODydURcPYn6Bz7Cj5vPQk6EshzV8d/F28xmhl+/i6dbZqYJEbFdIlE9bL90E5cuHUCdvV9i2rqzxSJWXOWPngAXi3lAI1FuNYsUGr/o1AVyuRQBVdtAeusqEsUkkUvE2LXkN3w4+ROsPHiLJBbhXOqFLZj68Qf4/Z+NsDpNAbl/1+Jf8cH7H2LZnmiIZUJQiCRS7Fr0Az769FucjTeDmjmaeHb/Kzx3xYGb5F4JMuLC8NmM3di/5nd8MuUXRGuFErFIYsLKGV/h4ym/444ld8ND5+eiU9X4VGoPr6RoxOYUFvdKm54DsxmFdLOICAW6XJTcsdGaK7E5FUunTSHhOBX7wlPZfRIi3K9s+QsfkzDfcobED3KO1lJsnfU9LpP9a9vmYNqyQ/jrh0/w9e/LkSEVDKg5MQK/fzUZX83ciAOrZ2F/EvldtoAVQSJXsHdXr1kbuiuRMBasarHQbi8xHpAeHwadvDh82lR0mvIJfC4sgk5ng9lcEX17+ODAnTQo7l7G+sS68CUZ2jm5EnG7dqBq66ZIuHMNkdpOeOLxRsxvAwa9j68eawe6grKIpGRNcAMcfWckzqQSpf8AxOT9crkM6pAOKKe7hVvUVjiu5YsiuD13SiOs6Ttd9F7yGOofLM0WEGnEv9gY2wV+agWObdsAc80X0KpWOciIna734hwot8zFEVHWwjMddd0C1ms7EUYK8zTcEk8exkFVNyj8hOKdSKrEmS1/46P33se8dSeJIhVWl5GqpTi8jNrtL3D6dnquma1ITOOGHMrgNqghj0cMecND4waNCy7ySvYsuhUoQhYEMXGfggjjynjp2UY4df4O6MxcJFcjNlOwWXS7v3cGuS4j1zXBaFlHgjsJSS4XK0IccpVHPvpwsZgHTCzmkSJpPpxyKxrR1y7j7/deQvPJ76GOBbg8cwDeWnIVbRoF4ONhjbEnwgDL3XNo3n0S5HVb4tqS1/DM/AtQK5W4uewpvLU4Am2ahuDbUS2w5jRddokkrNh5WHvChvLmU+jX7Cnc1QQgYvYAvL4wCm0aB+HT4U2wI9wEQ0oM/pnyGGYfMMIvdh06jf0Haj8NDr7fGh+ujELNIC3en30F8hxtXvRIezcG0dFXsPjtMag44S001emFiw6ou20e1peDhndhS9hWSwauX7vKJo2+HpcBscIL817tij8veaF58F08N2gAdGYbkrZMRddnvoV/rbrYvmoRZCRsxFIJDiydg2vkObdObMPUt1/AbZ9QhC99HcO+PAapSolPxnTGmqtKVE5bj6de+oyIk+wJVySyIeF6JKIjTuPHn+ZjxHfvwddagPVzi+D2kkJIjzROFjxXk+EOvp9+EV17voWRLRKxJTEdIosFbfv2wNEDCYiLugRt66cxqnI4dp0VYc/OQ2jVpDYyDHdgCawOfzFJ3CRt2gx+eOmz/8GXZjLkufJKbfHX80ZMW7QD8gd8VkbCbRI3IrDi7REwD52AdgZjgXzbaYsK7vIH4d7h/TAE+1RwN+xYsBQhz74FFVEn8bFxUIbWhZzFK/Isqwa+yljciMtaeCZi0SRFv1bAzyu1EBPBeHT/etR59W2UAymgS2SIX/cCBr+9FHVb1MPq//XG69P3sb7g12eOwogPV6Ja3SqY9vcuqLLUWDoxahOY3djwyZM4V/9xdKfTJDmu5QZ1Mb1DiIFFR3hS8cYFsUQCiS0V23ZfQZ3QQCK+aSq24Na1SOL2q4i6lUySV9bYTfdNuBl9Fee2LcZXR30xqm8H8gtXQt9B87miuZ1+d9Ltq8T+X8P1mBgkaQ3svDkjGdejrxGNQLco3EwSur8I2BF7Q7gWE3MTWn3ZmMeZi8U8YAY6j1QrEtsQtnkJFixYhAOXE6GQkozEYkTFYbNwYstsjHtjMsbXAkkEd6HXpkAvCkb3oU/gj63n8P2g6rDL4vDjh1swf/50jHv9Uyx5vQY2Hj9HMjUbTP5P4tffJuOtKXPQWLUDm49qUWHoTJzc9ie59wOMryNCxI3bJKrTe5/AzJmf4tUpc6E4ug13pDH4dc4tzPnzV7z4yseYPzEURkuOxCCyI2L3avyzYCHJGO+yWfttOXMhZpGK14C4HdRoFMrNIli1MVg470/89edMLN59lWQ6egz9YjP2Lvgcr37+K7pJbyOWGMjN67ai9st/472JL+DHKe/BlDNs7EbU6D0ZH018ER+9NgYx27eRFLobm6KaYffirzD+i6V4o4PGcXMmErkVR1bMw+LF/+Libb3QLFoAqAxx95pkGjwsPRbMaQxtVDg2a5uiUV1/9H5+CH758zwRC1Yo2vXFhcPHEBlxDF2eehpDOwZg5/Yt2L3XjCa1QmGlfcPoCyUKpGz7HxrXrYOGTQbggkTMDKfVbEW37zbh3B/f4KYmexNjJnbEHNvC0tvWEzGQymQogIxnuDp8mF+WcHC7/J2FeR4R/Is3p+C1V9uw37L+ajkmYqYFr+zlLBrhUtC73yBs+uFXmFRqbFt3Fp+9Vh0Gox0ycTw+fWUZPv/zb7zw5Hhs2/4VtvyzAEqZCbNnH8aYKfMw6YUXMW/yYFL4yBnyRLBeOULykQX470A4a7Z9kFB0QtMBzZ9cAi345OelhUIMu/40ejSuicb16uHHu4Px3vA2MJFPF0vSsPbvmfhr7p+Yve40pCQPzYrdnoL1i/7CcmIz0yxEbBZmYNiDII9jcZKmqyI8Wkbiww9PdcLynTuwY/mvGNC1P24R8Xdj6y/o8/TX2LVnF3bv2IbDESkQO9SiSGzF2OEjseXgXmxZ/AV6jfgf7Ir8dxsqLbhYzIPMmoz7sVnF6DLpC3w99Xss3bYXp6eMwwG9Dyx39mBE107o0aMvlt8mnkuEmX+t9lj2/UC82yUUXZ/6EulSBcSGeFxJsWLS0I5oWr8BXtsXjBp+aiECk5KqmGZSxIiFyKVIJSUVy929GNm1I3vuspt2SMhzWbSTKsk+uddOnmk2wWrMQDwk8FYq2WSjYpKp5cRuF6P1M+9h6tffYeHe80ie/SY2pGYXINTdNJv0JITQLozVtEMe0BBTSEby/S/T8PnTTYkfy3HzyDx0btEOXXsOxWG9mj05RatF+SpVmYHKtbGJxDkxiR+0A7tUKiXakZQ4U+Nh9QmAwmbNM0wtBhmGffgjvpz6CzYumoLFLz2LO+b8jyBkLi++HMMlUD8pVPiI5Ig8uxaWkCBsmjYFq0/ZcX3O9wgnRTOlVyeow09g7fE7GDM8AB16d8f1ZQuwK8MfNWsEE6OugjgtFQa7BZpWE7Fw5RyUT7yMzK74dlhFVfBmPzNenHyQJnjH+ayI0HDIS/hm6reYf+AqgrdPwZIEdW6hnydlIXxKEmqZCl6zKCK6MBoX/VphmC8NQZJu5XLYdfrMWGUnBT+LEipN9ueKoEetHkNRKXIuMmJWYn96E/SWp8NsJanYpMN1PVDe3w9WIj7FDRpClpDARknH600oFxxMvpWk91zjhh1V2wzDVBI35u6JxMDEhZh9Q/LQAVBCvuQa+0ztPH1eQeJj/iHfKa+Nn+evxPheVRA69DVUc0wgYLUG4s3vpuH7n37Bb2/2gdmUVUgT/xKVx5tTfsD3s1fgvxdV+GHOGshdrFaouwW/LIrrif9JffHYhIl45fMFmD5ajlknM6AQ26Gp0hXjJr2MCS+/jic6hJD4kRlmFnl1PPPaa3j9m3XokH4IB8WyYgoD18HFYh5QsZglbO/DajbCaDTAZBJBIdHDCi2+f+Z1PD/9X2zYsBLDQsg9xPgY9emoNeR/OBhxG991jUb3CQvh5RuAijIJfv13G/YfOoLdO7fiwxEtYGI2wCHTSPE2zmxBYJAVPz79Gp79fSl77ohKIuSskHJiU/iiitgGuqoBOyZuuB+SwVlM7NsNOjtUKjMydI5LDujPPG1me5r3FDo/Jj+k/mk0GmEy24gIuYmP3lqIfw7vxsati9FGRTyYeGqwvz9i795htoma6PxgC6wEpS7F0deVxMncwoVcspjM7BukpAABUTosBam+Io/MNaq4CdTl1NmF+UaJUoG9i5Zj4HM94CVXIDikLmqI9mH7wSTIFV6oLI3C0jATBnsTgd51AILOLkeSVz/UqGCGRlMTGuMunI8i1/xroFWb5vARZ/dY2nfxhS+/QOy8sUhmCfh+bBYSNiYj9Ok2eJHMMj29gNkCcTdfaSI71D8K5COkEG7YOBW1+vaHRU8bNG2oVb8eMs5tQ5qZhoeYpKHziFU2QbPAnA2edug1rfDmADt++3wyKnQbRYSi8HabXIM6XiIkpqYJzYwx12H3D4CNFParaJRISExk9+VVE2izWljc0KVb4BOgQJqWnHxI9KAVoq5Kr7TgWpwDgkUSDZo0a4LnX56MsJ9H4nS8swbNDrOR5kMkHzXl1sBsh4lcM5C8zC/Yj/0tSDfs/ED9kLq96I+leaqFfG86CT8z6+JAg8dm1iElKQnJSSkwOYfBOxDBjNTkJMQc/AUnlU3R0WZmv3FnuFjMA5a481APIlJquHp4G7Zu2YAf//c0tG3fRPsgCWpUBpbM+wezvv4I82OEZ2TEHETL+p0w69+1OHw5ERWrh8BgrIhX3m6E8S+/j7Ub12PKiz3w9/5oiGmfxcRl+PTz2fj75/dxRtsJPZsHoXoV+tz5mD31I/wdTUpdeXyXGVXx2qQaeO3dT7FqyXS8+te1XPss3jy1B1u2bsIf7z+OKzWexYBKQj+LezzA7Y8qNOspzNQ5uWG1BaKidzx+/Wkevhk/HttT1TCJbOg3tA8ifh+PP5euxpff/3Ff2NwPMZimDuhTIwyD3/4VK35/FbMPCoNlsiKWWhG26z9s27IGb74zGZVGfooKqgKoRRrc7hze1JsKGSfVROz9c8gXP701ES++NBHjX30bHw0JxuZt2yFVKtE1OAFiZX1ISaZpQnu0bGSFV79+qEAycWVwdXzzeBDGDRuO5evX4YeXn8dhURVUId+S1bBrfXrjjy87kb2sZzOJvXgUmzdvwpzJI7BL2hujQw153JkHzO0F+sUDKaDMchkufW8B/UQmy8C0KSswsHNb1gxKqdb3JTwVtA1PTvgEi+f/gqd6jMLQL99HhfQc9pBgIeXvnm+9gj//jcKQp0ay+ih2nqT1D34dji9ffw1rN63B84PfQ8cnxsBgkmHcy53x7xevYOnqlXjrt61Q39fUKELKjTBsIXFjwRdPYlZEdTxf30bsh+NyXpB0kJf4LCjCc4o/7fs17oHXGiZi/tbjD+zfK0Bv0GL/to1Yv+g3jJ56EkP6dSeCS7jqMojbXWH35NY0vDKgD4b2bIVvzjfEpFbeJI5JoL+1D/Nmz8Cs2UsQL8k+qE1uvoElM2Zi8aq9UPgG0Uptt4eLxTygtXK5FeZtVjNqtO0N074lmD33H9wOHo4zq1+BOcmEl1adRHPLBZzSN8Sc9wZBIjEjsN4gHFv2Ok6tno+rviOx57t+SEvTo/l7u/BZXx8s+2cxDI0mYlSHmpB6BaHXK7PRWXMRu64osOb0ClRMT8eElafQyhaGkxn18Cd5rlRCMjJNBfTv0QgSYlkkchV6928HuU6P1lP24eVmJqzfcxMzZryPplUD77nDbrOgQvPekJ3dgNlz/sYlSUcc++8zSPTZF5Bn5oP+rwxEYFdBjWZh7K+8XB307dk6W9ORKV2C79esg/j8NqS2fBu/v9gSCaTw7Nf7fWyb8SQOrFuNVo+/g54920BmtaJht/6oQH4XWLc9ujSvzLzdq1Ij9O5aFyTXwZcLN6Jh2lHsimuJp7qWJ/GKvYZB50ds27cXYlb9gXl/L0XggO9w7M8BED00x8mEZuLuXnPlTI8FjZLJJy+hybNjoSFupGsJW0g4DH/nU/iaEyGWKDDomf4YNXgIe7bZaMWgsRPw6lM9YLXQ5cCkGP3PBcwd3xhblv2LSEkr7Di6E8HkZkXFpujdqQn7HrtJh6ZPTcfw/v1RTpFZS2K3WeHfoAcCbx/Gn3P/xlFtXezYNAMKQ8E6tNOQzKsjPl3BRCwW39vytaJJaQW1C99L/eNhj6P+71OnC9qEBsB0/Sx+vtoN7ZoGOK4CRqsfvjt8DUMrJ2HnvpPQmYxQGrTQWjOzRbHSG30G9ICvSA/vGs9h2PD3MbithPi1N3r3a0fC0oDyIxbhn3daYs2CZaj64r+Y/b++rMkx5MVFWPhGC2xeuw0TJ3+ADi3rZsZf8v2aWp1RR34Lc+f9hR3XfPHvxvUIoELQcUte0LhaGFuVG9Tu0ecVB1L/qujfrwMRhzaYLGq8/+evuHsuDFLfQPQb0B3eotxqFAGJpjz69W+CLf/MwNJNJ/HC7AN4s39Vl0Zblm7J5gq7Zxar8cH0GXixbXlI6/aDr4wYaDspdFbvh3cmf4zJkyeRwmf2cDXKQzHpow/x3nfL0EeyC3PCFbn3YnEjRA0bN8uXb2nT0rBz/wHH0aMLNbaJCQmwk1wl/PJFDBg0mGQwOSJ1DkOV1UA7S3wsMpLzwpVMIZLbvRTneXqKVmLTKw97Lj2X+bvs+xR6SM46vsEBuZb51uzvoNAMZ+YfJOMbMRK3YuNRs2YoO1fc0Kl8howcBbPZzDL1hfPnwd8vc4Lj4oK6Py01FRlaLVKSE9GseQvWX7AgZPX7rAjhQM9nue7wfxY2ZIeez/w9jSckvNitzn0xbt24iipVq0Om0WNUhbp4KSIGXcgdTjnoDG8nuX3Lg1j67xL06NETN+/EsvCWFND9xQl1S3JSEixGI65ejUTvPiQjzj4C4SFQf8zpJ1nOkR2WRpyX6TE5yOaD7B6BzOfc/9xc40GW31Luu/4Q6P1zZs/CkKHDcOtuHGrWqnkvPdJrt2/dQvS1q+yYni8XXB6hNWuy45zYiL9dvXqN/Wbd/tPY3vo718zp+hAs5HPHHJqAzl27oUZoKKpWq1pgf3BiIfaBuqFySHkcOngAw4idejCO8CV7VBiIc8mRnenUZknAmNFTMWP9DJSzZNYuZg3XvPYzwzlLXKI4ztNzZDfzfoYQh5zkx090Oh2iIiKgVHvB29cXGm9HJ8ACQt/F8jmrBZfCLmAwiV/U9rqa7GmCulfwn+zn74devwe57+E+UzAkpMT9x7TfMWLkY7hN8rnQQuZzci813u5QFS9uvYjm0jB0q/Us/j5zHNotX+Cx5TVxfMVYVqGTFZHYgj7tHsfy85vhR6LZR70bo8miMIwJ1N0T7oIf3f/XFQwbOMCxJ+g6bx8fx9GDKX4VUEYRajLyCB0aebNsWbl3jv51nCMHD7w363m2m+Mc5d599G+Wc05y7gvHmffew3Et8577oeaNGtbcrz6aUONU2BGnefmj4Mc5rrNz9DjT/zOvC/cLOPbFEtzYPx/dOrRG02pNoZwwLZtQpAjvydwKDHW7qyxRMcFqkgr1jbn5SZZzzM+EXQY9duzeg92T8zk5j+lt9/0y229zvZ4PnOkxJzTD2/jfOjz7xCiMf/4ZPD36MfTt3hlN69VCfHxcnu+jzytp6Dtd+V7qH/l7GvF3x15uQpEihA3t1lgO6zdNR3AWoUjJ6o957dMHOJ+TDcd5suP4mxXnb3K7ljeFTwv3w/osFmPaz+4u6k7H3kPcm9Vf8u8zBYPGoCLXLJLv02nTiD0WQS9pj0/fqILnZ5+BHEZo07O32GVC3ht3FI+1a48B3Vohvu1bGF3eQMJBuGozp6JXm6dwLekMGjV8EWHbpqDjsN9geYifFTdcLOYFTUDkv4dF6kcO6l4WafPfjPlo4NrMzGXYzOjwzNc4dj4C4TdiseDD4cUSMu4uFlmkdPdPLAaY/WHuzt3xzlrgkxcuIy5Nh+g7Caz2af7cOXnXlJSWV7r0pcXhAjuMBlPp+E1BcKVYpK51ewcXE9TpReyzaNKmY25YBhqQgojVrEW7N3dg/0ftUXX0NMTuee2+WkWK3SbD4Xg9jh0/jQPHzmH+V8/Abs68Tyzzw+FLa1EzsCWuxyxFk4Ff4+z29yEtZRvNm6FzQI0zrZ6nzV7h4ZfRvXv3+5uhH2FoBjP/778wbPhIxCUmFbp6vqCUdjO0lmzJSYmoV68eq7HxJNauWY0ePXvjbnyC2zZDG4kAopMXd+zUqYDN0GUbEUl7ixb8g8FDhiE2ITFbMzTtLjFn9kxM/eIzzFuwGBqNBgcP7MPvP/+EXQeOoGq1atlEhbMZ+tbNm1i3/wx2tCm5ZujRB8ezZmjaRO6KZugK5YKYW/sPGOi44hno9XrcvHkLKrUX/AL8i9wMTfO5S5cuolevXsXSDO2uUBv/91/zMGzYCMQlJZdYPucOFLYZmovFHAiJKBFmgx4REVfg6+tTBmpdXAd1//FjxzDysccRn5TiMWIxLSUFKclJMJmMHicWz509mylG3FQsGjIy2IoIKnVek18/upw8cYL1rYpLTM5TLNI46xTRVatVx6JlK1GxUqVHQizS+RAXLv4XT44ZBaPBwNxQPigAmzZtRIOGDWjjpuPORx+TyUTyJD+HWAwoslg0E/+8En4Zfv5+HpfPHTsq5HMJySWXz7kDXCy6CCERJcKk1yEqKhJp6Tqkp6WQC44bHnEkEimSEuJJIhqFxJRUzxCLxJ2pKclsu37jFjK0qR4T3jSjTUtLxYgRVIwkua1Y1KenIybmOpJS0jwqPYrFEiQnJuCxx0YjPjlvsXj2UgSCygWzSdtbN2mIDOJfJ85fBFulxIFTLN4gYnH9/tPY2eb7EhOLow6OQ6eu3VGLiMXq1avRgHVcfTgaLy+07tAFv/z4HRo3aoDIiCgEBwZg7do18NJ4Oe7yAEhYqby8UZfEAaVaDf/AwCKLRZNeT/zzCrQ6A8/nijmfExExLiOvsFptsJJ0Tb1aArIvEhOhLtxTEnCx6CKcYtGgy0DklcuoUr8ZM7KeAh19u2fTagwdNhzJqVqPEYu0VjE5ORFK/woeV7N4dO929OvbFwlJKW4rFjPStWz97Qo1G4BOF+QpUPfv3byOpMdhSExOzVMsng+PuicW2zRthLjYWJy9HMF+78QpFm/evMFqFktaLNKaxbp16+Hr776HTn//XIZ5wWxyYiLLZEeNHI72bdsgKMAPO3ftRosOXR13eQZ04n2xUQu1WoOAoKAii0WDTocrly+hWsPmnpXPkTS0e8MqDBs+oljzObrqjJQIU53ZAilR+37eGtatLUVvgopkM2qVChkGIwwWqyAc7SS9ZkmzxQEfDe1qiNRnap/99bSNupv5godAHEvdSzXIfX7x6G/33O7O0O/z4PDJa6Q+XTmC0rhuTYQEeKO8rxdrrv/ym2/zFv30Ubk/rvig7yPhRzPK+fPmYOW/i/K9bV6/BhkZGWjXtjUmTRwvPI6Ohs7Frx71jfyP+aPLgs/5TPYn93c+ihv5H3Nzcdo9Kvk0RAxqaNcZqwVJScm4StJmeEQkrkZewa3bt3H77h3oDQYiKMXw02jg7+W+3Wy4WMwDNj2B65JkmYK629PWohVWCfUsNzspC24XVob24PDJJT3SGvjBQ4fj35VrsGTFGqzZuBWbtu9GePQtDBvxWJ41RcyqFW/lRa7QShMKFX7pBdi0Wi2qVKmCzz/5CGmpaewZnmudhbTABI8LENK+Z/pkcdk9utyfTCws+WchafDoiZPYsWMHjp84jhOnziDs0iVEX7uGM+fO4+Dho9i5cyeOHT4Mvd4As2OdViGpuFe4cLGYB6wEUtQ5mMoiNJYSZ5e023PWgmi8NC4ziPmCvssztQhrinT7uE7CpiSjg7uRW9mNpo8KISFo06492rZvjyZNm6JOvXrIaz5BJ6Ulswr73gydDov/+YuJYycsvnpofGBxwVVupzW0npjPEYrD7klIwNCmZX9vDa4TQbh+4yZcJX9pE3fWLiFZodeSU1Lw35bNOEaEpZSkX1+VAn5qVWmU6fLEfcViMbfbPwwmFj3UGgllzZJ1+zlSyqLzw1FoonrjnXdZoisJqEtpeHt2zZV7x3WWGj2sttsJdTeNnbnB4q2NxFzHlq8CVml5YxHem3NaF89u+XGdfRae5Jn+6HK7R55lJfKO1iaePnsOsXdvs9N5icSsaZXdQw4TkxJwOewCZHIZxCIiz0pZB2XFLcUi9Tg6lQntfFnSG51GhYUbCcgiz+5eRqF5ckm7vXbtWti0fg2bR6xa1aqYOe031pejpKDp1kO1CMvE8yUyShEmDjw1fEjQsPToRhlH6eLI5N07yhYbNB24Kr3SmjVPrVm8Z/dckazoOvAaNRFUVuzZfwgxN29ApVTlWeFhNBqh1aZnKwQFBQagccMGCAwMxOkzZ5Gq0wvf56KwLipuW7OoJMraX+OF4AD/Etvo+xQyGXu/OwVSyUMMSDG7XaFQ4Otvv8fULBs9LleuHBOOX3/z3b3z3/7wE5RKheOXxQMrX3uqGhGVgQyDxEf6zxNh7i7DtojmxS79evowKnJc+9QygyvzJvosT05XwswKRVOL1A991SpIJRJkpKaxWTVo/0O9Qc/mhZXKpEQUWtiMH5VCKqBh/Xro0rE9xjw2HMMGD2CzGvj5+aFGtWps5DSdSzQ2Ph6nTp5ASkIcEu7cIYXF0h+p7pZT59CaRUNGOkQkILds2QyZXO64UnwYDUYMGjwYVuIbOhJYKUlJiLwSjlpNW2frK/OoQ6cU2LFuBQYNGgy9yVxsUwrQudM+/2oqPv/4Q8eZ3KHf88TTz2HJwvlIT093nHUdNK6lpqQgPi6OzbvlW6EqxB42dc6hXVvRs0cPZBAD565T5yQlJrKpc6rVb8qaWz0F6v5dG1ZjwMBB0BtNRUqPzqlzrl+PxoZD57CzzQ8lMnWOlXzuYwdeRMfOXVCnTt0ir+ASFXWVjTDdR/Kj1p27O654BiajAea0JGi8fVCeCI+iTp2TmpyMK5cvo07ztiSf86yVyravXYGBJM83EiFXI7RG0fI5ko40CilWr9/ARjY78dZ4E3FYBwH+fkgiduzixYu4ei2axeMKFcqzqaTKV6iAhMQkJir1Oj3iia3TpmlhIQKxAUkvtGJF4+sHuYu6ZT1S8yzSiEwn4bVTNU32g4ODHVeKj1u3bkFJAoVmQ3qDiU2ES8Vi7WZtPE4sbl+7nAlng8lSrGLx48++wAfvvQtIZFDL6SxUTuxsGSqzzc7iwosTJmHp4gXFKxZjY4nxjIdfSDXPE4s7t6BHj+6kkGRyX7FIwiaaiMXqDZp7nFjc+d8qIhYHFjk9ZorF69hw8Cx2ti0hsUiS02P7HGKxrmvEopdKgf0HDhKx2MNxxTOgtU7mtARofHzZ4KaiikU6vyydZ7Fu8/YeJxa3rVnGxKLJYiuSWBQTnULnR4yKisD16OhscZsuwdm3R1ccPnIYi5cshcHZtYreY7ezWsU+fXqzZYXDLoUjTZvO7nG27MkVcnTu0i1L3lh0HjmxqNNqYaeRlwSgS8SiSMwCLutAQbvVDG2Gnu1TsaiQy2En7zYYzSxziiBisS4rcRVMLNKAPhN2mTzHWLAKbvLuxvVqw0utdpwoeahY3EbE4sCBg2Ai7g4Nda1YpEt30f4a3iQsnGJRFLkGXcfPR48BnSAhCddml6DdM6+gf1UV6zBcHGKRxjG60bCiYjH27l0W5v4VqxdYLNJnhIVHQku+L6uhyA91a9ZgpU6ncSgNDlKxSIwVrblyF7FI45zTT6hYTIiPZzWLNejkwQUUi/Q55y6GsxaDgqbHRnVrwZsUbEordGh82kHEYv/+A0imRtJjIcSimtgTOnjsnliMJmLxUNkWi2qlIBbbdCmYWKTvTSLpPTzymuNM/qBxyFvjhYZ1axf6210BFYvG1HiSwfsipGLFIovF5MREJhbrtepwb87O/EL9pDD5HH03zedovCwtaBraSsXioMEwWwsvFqkflPPRsP2tO3YilegkJ/Ray+ZNcfvWDcydMw9SRxe3nNBKqk6dOqJDx044euI08R/HBQJ9RouWLYk2UbBVe1xRkfHIicUM8j4bibxiqcQlYtGScgNtWrdCfKoZFuJi6un+TQYjbNtfLCOg66XSPgV2sQRGkxmJ8XGsZrFui3YFFotXr99A7RpVULlCeRbY+YWOovpx1nw8N3o46+NQGjCxSBLRgAEDmT8FlQsibnBcdAHzFy7CyxMnEIHkj48//VwQi1IVzq38FLOS+mPWS62IiLexviT0tTQujHvpZcyY/hsy0jOEh7iANBK/YuPi0K5tGyZGYu/cYTWLAZWI0ShggkxN00ImEaN+ndAC9f2jc+f9MX8pHh9ChIDJ5Dhb8hzcsRndu3WDgcS5CiEVhMEUpUxkVBTKkbhXo0Z1IuITkRAbh+hrUQht3LLAYjHm1h1Uq1geVSuFFCg90nT/058L8Ozjw2DK0hG9JKHxf8f6lYJYJOmiHLGFBXGDgoiqYY+Nxo7NG1gcu0bEYnR0NDbSZugSFosdiFis6yKxqJLLcODQISIWezqu5A9aWF2+bhNefWGMMNo0n4jEIlwmApNWJPj7+TrOljxMLCbHwduXiMVKlQosFlnfOeJ3FCoWk8hGxWL91h0LLBYjr11HvZrVUalCweKkxWoh+dw/pZrPCWJxKcnnBrF8rtA1i8QWBXgLS06uWLMum9CjU1i1JmJx5sxZiCOF3bygaYGuGvbaa6/Azy8Ah4+dcFwRqF61KnyJoFN7+0BFw7uIGfIjJxbTU1NhNZuYGg8uX95xpQgQD9brdfC6vQvlu36Pwxd3IlhO50QSBk5QsUgDTCSRkozBgoS4WCYW67UkJa4CVs9fuRqNrm2aF7g2QkIEx9Tf52Dc06OzjZIqSQSxuBT9+g9itazf/fQLm2neVTgT5NqVy/Ddjz9jMm2GJohFFuz48Q2cbfAq3htQH2aH59G48Mbb7yIiMqrQGUxeUNEx7oXn0atHN9y9TcViHAIqhxZ4ub/k1DRULBdAEnTBS/mzFi7H6KEDSQGl9MTigR2b0K1rN1ZztXLtWhw6fNRxpXSh4fPRB++hQb26JD1SsXgVNQshFq/F3ETbZg0LnBnQ+7+f8RfGPvkYEVqlJxa3r1+Bfv0GkEzNjmkzZiGKCL78QvMVKSlw09aKzRvW4jjJiKKjrxGxeL4UxGJn1kfLFWJRIZPi4OHDaFtAsUhbj5au3YCXnx1dYPusJYXVmDtxCPQv/mVI84KKRX1yLHx8/FCxcsHF4pmz5zDnr7+x8O95bGLoRCJiroRfQoPWnQosFi9HXEX3DqRwX0DxQu3r17/Pxvinx5RaPkfT9pbV/6I/EYs2iIrcZ1GXkY5D+/dnq2iglU8Vywfh92nTWSHFidkmJnFPBLk4sxKK+uFAIuIef+wxIjrXZ7NxFUgBsXpoKJRqr1KtWSy87xQz1PNcOgcSMU4q4tm0rwt1Nt13CkUnLIAc76TvL2giyIoLv5wIODvi795iTSc3E7RMxBUnwtQMQmSlApYmbldtzkzi8ylfQ5Wlw65dpEDHJ4YhbNc+mOTZEwT1S9q3I7fnFWWjiXnF6jXMSNCRcUWJby4Nb4kIyXF3cIWEd0xsCmwFqAEpDNTZzrguFufuV6WxyUj40IyNdvAWps4pQvi4MIBocCQ40uON+LQSSY9C5iHUQBRko0KRQjvNT/9jFtt3aWQtCC58L4uvRXheYX6a22+oPTNnJLPm/Yjrd6Cn3ewd14oLNt0N+UfjxIZNm7Fpy9Z8b8dPnsStW7fx7vuTWfpi+Vxh0xVxaOHySPqb+32J5XN3aLqKLpl8jnwG/X4ahnv3H8jVvx62RUZEQJ+uRWJsHDGemd9Ln0tbz+7evZtNhFrtYjxV4ziGl98Dky17Pnfn9h3Exyfc15IpkSug8fOHuJS7B7mvWHQkhkJG4wJD38MSjuONdN+lYrWQUOFw7eBGbDweDZXShuO7t+DU9ZRiDTjmCw6355YBFWWjCTO4XDn89vMPMOiF/qIUU/xFjH1jDf73yUSIjPc3+xeHWNSR929at1qIZzTs3SG8ib25c3wrVh24BJlSjLDDO7Hn/K1izoCyhDcxbLn5VWlsdB3hlUuXCE30NHwcabM0oc2RMYc34r9jV6FU2nFqz1Ycu5pYvOlRJIQPjQM048nNr/LaqFikaW7qlM8xZvTjwgMfAVh6dYP4YEq9jUXrdiLWQAR90hUsWnsERuLvxQlzOXE/jQtDBw/C4IED8r21b9uWPaNDu7asVs9d/FFM8rmrB0g+d/I6VAoryee24syNksnn6NajW5dc/ethG50Kh46vMJtNJH1mWmmr1Yb69eoQQZ5Zo0jTIdWTCdZykKsDQJzMzjmv0e4BScnJ9845MeoykHj7FgxElJKLjrMlj9s2Q6cmJcFkMEDlpUZ5VzRDO/C+tQ2aNl/jTPQhlJdlVoHfvHGDlbCkcjks5O/dO7cReeUKGrXpVKhm6C5tmjuO8k9uzdC21Jv4Z9MFfPfFJCTcjCUC6w5mrQjHm690QXKCDSKbVaiatlvJb6xFTva0GXrzqn/Rt19/8lwp6tat45KqbyfXoqNRK1Ro6nUOcJGbbmDy21PRZuIn6FBRAZLOIFb5IFBD+9aIMHbCJKxduZRNYuoqqP/SgTa0eYBOxH7r5i0kxMciuFpt9m0FgTZDh5QLgJ8LmqFthlQsWrkHb3/6DiTxt2G0JGHe4kOY8MoAJMdZiYGhnkMEgN1G3GBxiZnft20TunTpTApHYOFdElNVPQw6mInWKFL30Wms7ty+zZqh6zZr46hlyz+0GbpN04YsfRUEmhnnbIa2ae/gn/Wn8dWXryLt1l0Sh2Ixa9kFvPFKdyTG2yChQ7JI+LgsPRJbuHXtcvTu05c9ty7JgCQkXeYX6ub9Bw+hXZs2MJH4TmvArl2LxsbD57CrBJuhR9Jm6E6dUa+ea5qhJSTXPXzkKNp36+W4kj+czdCTnh3tOJN/0tIzcCNLM7RIIsPFPatg6vIynq6cgetJGTi0fgnEjYegQTkFeRcp8JCoKiWqwELSqpWIkqJCm6G1Cbfh6+uPKlWrFLgZ+viJk8z2dSfiiNZk0YF9EeGX0bhdl4I3Q0deRbd2LR1H+YfGya9JPjc+Wz4Xg382X8YPX7yEuBuOfG5lBN6c1AnJia7P52ja3rRyCfr2H8DyucI2Q5tJmqLpSk8E3ZmzZ9kzqPikNmrIgL4IDw/HH3/MEJqhSZyn0d7GJDARjsRWsChB7yf2fOCAAfAm4Xo3Lp49x5lGKgSXR/lgIjCJPfQJpGMIiub6R68ZmvwTFs8vAWvmwEYi4r1SFguQgmVKroeI5tRkiH0awZBwF3HpOqRb/eBjJYlcFowLGxZi9c6DWLZiNeau2o0ki4tEHXW7I0LSjv20ZsdVW6WKFe9bmSXj6gWk+wRj98Jp+OrbH/HNd9/j1y1XoZAK0ZMmGaMx9+cVdqMJjibge5kWOS5qIiw6IpIZaGFSNoCvPRF3tDqkmrwRLE9DtKQ8buxbQwoOh7By9RrMXb4Vd0wuCm8a5x1NUbQ2Lzf/KumNhg0Nj3uSgoaNG4SPVptCSpyNYEuJRSxJj2kWX/jZ43BbVh7hWxZj+bZDWLaSpMeVu5DgqvRIw8fhdlpAyM2/8tro5MCtWrRg4ZpJydpVAfo+F76T+UdJuyE7YrEJt+KAvs2liLqRiDSdBdUqBeIuiReB5nhMX7oDB/Ztw/x/V+DQ9VTI7kXmokDczNJq4dzevl0bdGjfjsQNR0UJ8Ud3WIwgNSUZEt+G0MXdceRzvvA230IcyefO/7cAa3cdxNIVq0g+twfJtPThAmheL0zKXXhkRMBpfH3h5ePLCjJGowEGg56IXR3W/reB5S81a9YkglRM4oswA4eElNBooZ/u03P0Gu2SRRekiL4ew35LxScdY0Gfp1ApoSaCTuntQ8Kq9OK8+4pF4ikFrUEoKnQUqDMsaHos4dfnCq3VFKmV0JtoN1yKnZRUSaQ0K1ktqE/1Zvjpo4noXy4NMQnGwtqQbAh+X/yRkpaeaL8ZdePB+O37r/HrTz+w5unffvkJU0c3JOUuod/aPUFXjFA3F6VPnKuw2YiQJeFtMZqF8CbfJZPakGFQkpKlDF7+lfDt+5Mwqp4MZyK0rIalqLDwdkZ8N0VIj24QPrSVgYSPwUQndRKg6VFvEtKjd5UG+HHyRAwK0SHqjmuWq6R5uUvdTh9V0l7pfKeLkjLzj5J2Qw5EMMNsl0Jt1MFkow4jBVCZFAaiw7zVIsj0egx4/hV8PHEIrpyNQUiIayZVZv13C+l2iyV7Fx/mjaWez4lYrSbN53T38jkhXRktCiGfq9ECP384EX0DU3AzkXZLcdxUBFjfzyK6neZNKYnxuHM9mhzZYSYFNOoWalNpBUd4RBQ6derwwPCykjDp1rUru4fm907tQ59Dn0d/qlCpWV5YmrixWCweg2Dwq49vvnkbPpLsiYa+xtl3jR2TWESCjO2XPjQzd+w6EPpH2FCrsh/OX4iBWSFio1lJ2UO4oZAIJk9wf3FCm11r16qFZStWkm0Vlq+8f6PXli5fgUED+5OER4RwMULMBvtX+pAQIJ9xf3jTpGpFcIWKCL8UjXSRGBZSAvcmxqqoX10S4V1kWHp0h/AhUGOe7VNo6AjpsXrFQISFxcAoJ+mRCH5fcl/Rw4f8c2H4sPAWdksM5zudQqCoCPa5pF2RE8Fa0nzK+SWCG4XmRosmFMHiOFy5a4c4PQ0W/4J3U8kNVrB15FNFxT380QFNV45dCm1XENKVneRzvjgfdgMWpYgISJLPucD99Ak2F+Tx9CtlclKQV6vvC5cMnQ7xickYM3oUKlasxGr46QAWutF9usxfv359Ub9+PdyNi2MVKFmhTc8Soku0yUnkqHTDye1rFl3tPWavKnj+2aFQiXNEEva+zETI/ubMsUsc2lSqgC05EZYstWsmkwL+PkTs2olQICUROhRfSFKAxBWf7PD74oT2VRk+bAhGDBv60I124nb2bSkuaHiXfs2iHRKJAqLUROicSZMErN4oRqAfSQs0vG1WmGh4k/PUmLqkQYaGtyPeuyvs+9wgfGQyJewpiTA70iOV6kaTDP6+Qv8ju83CaplY6JFbXBM+NIjcO3wejmu/n8WHUvYSYp2hlphw1y6+F84ZGXpo1AoiBsgBEWIWiw1iIbGywVGugNkqF8UHd7F7VBTZSLrKrK+3E5uvgJ83tXvkiNi9e/kc8U9X2b2iNkNT//Py8UG5kEqoWbvuva93wmoe6XrRZBs0cADGjBmDrl26olPHThg8eDAGDRqEKlWr4lr0DaSl3d8nv3KFEChVKoeIdE38KSxuKxZZQNJYUoIwgUTfyWIkeb9wulTxDyoHqe4S0jJoB18ZkHoJd7zroZU6wwVlotxxB3eXNMxouoHLVV6+pNQcgcgYIyRiCaTpZN9aEV18M2C+f5C46yjhtFZg3CR8fAMCoTBeQkKKhXWMF6Vexi11bbT1Si82Lctc7srwoc8q6fCmr3OxG0o7PlitEoSGeuPf9Xfh5SWFFGYcv5KMBqGVkaIrvqxdiAsucrsb+CPFv1wwxOkXka4n4prmcymXEetbHy3U6cX6da5IV3TFKwURdLRLUAgRdzmhgjExKRm3Y+NQPjiYzRstJeI4KSWNNVOfOR+G23fvEvuRPUf38fVFcKXKbKNT55Q2bisWacnRSkoTLksUD4G+JesAF9YvpJhr1/KDTVUeQ3rUY51lV6xZi8V7YvH2+B64czUWVouZCAjhe2kNI13j0iWQSFvcNYvuBrUZ7tBn0S7TYHCf5ji8cz2Wr/0Pf22OxDPPDkTy1bsw0jA2C+HCahhdtfoBcbxL+8QVA0zMu8E32pRBGNqrITZuoulxPRbsuo1Xx/ZCbFQsa1YyO9KgjdYw5ugfVmjKQPiUNMXRRanAkDCu1LADQmJ3Ys7yjVi0Zgu8mw9Ar1AFEshloylztgKT0UQK966RjywtkM0VCPlc6cctm6oChvaoi1XrN2A5yeeW7IvD2+O64e61OEc+57B7tCXNRenKlf5I06iIbHRhBl9fv1zzz9u37+DgkWO4dj0GOp2e2Qt6X26xgg7wKx8YBDmdMo5sJdFv/2G4rVhkAUkjSAnGYxsRXjTuCBWLxEDTk6UcRlSw+lSsjzFPPY0fP/sfZn82DgHpsYhIsaFB32cwql1VOgAfIa2HYuLgZmD9rIsItR2smceDICHvHm4m36AqVwvDHx+D7z55B3OnvIL68nRcTLagRofheH1EY5YkAut1wfsTupHoWfRvpvE8Z6nW3WBx0gVuLSo0PWoq1MPoJ57CD5+9iz8/n4AQYwLCSXqs1/spPNO1JvPPCi0G4dWRrQQbUkQEXeS68CktXyzKe3NmljS+ln5sIBmoVI12nfth8juvYtZX7+G13qEIu3ITclKomPLhCKh1JjYd2Vsfv4BKGS4a8ERshKtMlZDPlb5PCvlcAzxB8rmfSD4365MX4Z92l+Vzjfo9h8dbV2H5XKU2wzFhQBOyX3SoHzKb74I8k4YxHRVdrnwI6tSvh6CgIMeVTGgcptOy5eyXmBOpVIZq1aqzaZFopYC74NZikc5L5ZJoTJ6j9PaHj0qa+TxyTsXOSYRz5JiqfPpex6Fgpd2EjOR4HD4Vhr2nI3AzzSRMFm834fjZqzCSA3p4/txlpLqiBEKc7Q6lzRKF5cjUze7hbqM2GcfOXMSeU+G4mqRn4SsSWXD2bDjoCtnU8ESEXUQCKeAUOcSJu90+vGnYuNE36lIScISlxyuISTXeS48nzkbC4EiPYecvI4XsFDV8aIHAtVq+tPyxcO9VqZT49IspbGL+e9BHOWx16WPBlfAI7D4ehpNRcTDZWWTA7cgrOH9bWM8+5eZVHI9KYftFhaVVF7md5XdulK7u5XNnSD6nNbN0ZbcbccyRz1F/PXcuHGlsv6gIdk9IrUWHrt3sHxwMXx8/BPoHoHy5coL/5hOqP3yJ4KQDP6vWqIGQqtVY87y74NZi0VVNoXKi0D9pIELgs2uhIeKQnfOVYGxFEaq9cwwqmeANrEreEbh0lFhhS1w06tH5CelycjKZNN8b7aNGVIDwkFygAoFtjmNK1hJ31v2iQCU6/edJUPcWtmaR+jpboL+A4S3LmvnlQkmFN8Xdw5umxUKnR+JPhUqPdBLvB3hxSYUPdbVLa35LK6jJe+mr6WTrygJsarUa+w8cxL/Llt9bIrQoNYv0dzTt5RbmeW007jxokN29uJAj/O8dZt0vIkLO5IpAJMUQmucV4VmFsXt0SdEHecU9v3QcU3L6qytgGoP8czW0cOfv74cgIvSaNm9OxKMvK+gwv86xUY1Daxu9idCsGRqKkPLloVYqSTxXQ0r81WWRxgW47Qoud2/fRkpyMipWDEFIyP2dRguC3MsL33ZU4IfTjbEr6QTqW3XwuTEP3i3eRfU3duHkFy3YOq9JScnw9fNjI7OiIqMQdSUcrbv3YfMdFQRqVFZt3MaGzRcE6u7eXTugaqVKLCKVBrSKfN2Sf9CtR0/4kAhfg5RwHlZtXpahfp6aksLCO+7uHVRv0IQk3oKtwUmnQfhv224kkvhaEOi7O7Zujvp1arusYFQYdm1cizZt2kKt0aBmzVDWR8ZdoH6UnJSEqyR8oq9GoVnHbgX2KzNJv2s2bYc2vWArANF39+zUDtWrVim19Ei/YcPyRejStTu8fX0RSsKnsOnRRuIpXcElMjISm45cwJ72P5XYCi7D97yA9h07oVmzpnh38kesz1ZBcPp/39490bNrV+iJbT199gw69+rPzucX6neXIyJx4NipAodpAMkbhvTtwTL30sJo0CM2OgoBQUGoVbtWgVdwcULjVWJCIq5dvYqI8Eto26NfieVzdHR4764dUaVSxVLN59Yuno/uPXvB198f1WtUd2k+R+dHpHaUTrAdExVJ0p4NUqWCxHsd0lPTmECn6VlEbJmUxCe1xgeB5YNhI35KRz8rvTSOJ7mewq7g4rZi8c7NmyyTqFy5EkIqVnRcKRxULE7tpUZCqgi+75/HhwOCsfX1DphyIxTWFv/DKSYWryIhIQl+JOIoiLKnC4RHRlxB2+59C5yIKNSgEGcUDBISVhJ5SisBUWiCWbNkPrp17wG/gACPEYuRJAOJJWIxtGHTAotFSmHDmwqf0u4ruYOKxdatScZDSrduKhapwKFisUXH7oUS1mU1PVL3r1+2EF27dYcPESuhoWVbLDZq1JCJHJEo/27wIva7Wau2eO2VSXh8xHBcuBBGMt0MnDlzFl16F0wsUqif0jXQH1i9lQs0GtCCYWlCVwe5Gx2BwKByqF27dpHF4lUiZK6EX0aHnv3ZgIuCUpbzudWL/0b3Hj3hHxDocrHohPbFTEmIg16vh8YvAAYSb9OSk4mNlcCPhKE+TUvSpRnefv7wDaT9HKlnFq+/PILL/QlNDa7CbpHgyY9exMG1qyC1GDBtlxrPPtnIcZVAXkgzIWcw0XhclMgsTLpZwI38pjQT0D2Y22m0LagVKLtQfy+N8HaLQTUEN/mMPKF9i4ryjWU6PRLo6F/XpUfqppJ2l/OdIrayBZ1kP78brY3p3rUrHh85nIglYZBIUfrY0jClYZtrmD9gK22hyCDOplHSVdGSPacIz3oU0lVxQge+BJQPQcVq1dlUOFTklw+pgAoVKyEgMBDlq1RGSLUaTDgKuIe/5Ib7ikUSmWhAuszrbFZktJkM35tboLOFI6n9WHRTJTouCrAaC0ckZjPbu0mELmmor7tyxYiygOBmzwxvGufdP7w9L046odHSpW6n0byko3oR3kkF4qcfT2ZCw4lH22caF1zkdsEfPTVdUatf/G4X4qlQ0JPIZPD2D4RK482CkLZi0ZacshCX3VwsujIg7TAZlRjQ0AuTp/6EMc90J0Yos8MyDarsA1ycgex5CH7vWW6nQe0utXwlDXO7m4c3Kzh6ZvAQ20TTo+PABZSWNxblvTltsUuzhjKGoBVdE4o02XuYqb8H9cKS1Mk0zOjgLorCHoMZH3+Mrz77GN9++yM2HAin1ZDsmrvi/mLRRYmC9h2w24zoO6gLFk/fj4ENq8JEUklmQiH7WarHPbnkSv3C49xO3euhJWwa3sLmztA46aHhw9Kip8bNvKD+4WE2ygHJqWhqcBwVEaY8PTVuFX+takpKCpISE9lm0Bvw5cdfsP6iMvsdLF3wF2KsIuhijuCtJ3ti5/Uk9xVkBI+oWTTr9Zgw/xTalvNCcMfncfTEYVQLsKJR/0+x6tX6MNJVF0jao+/MFIvCsSdCne15NYuOgoMHBnlZCG+Prll0efjQZ5VGf2TXucGj4wPNrlzgdhoDaLRy86RfbBS33aOicPa02fj6s6/Z9vF7HyE+Lp7sf8WmgLJBgae+/Ba///A2AslRmsVSKqkyv7i3WCSpwhVBSWsV/UKqQyURwyZRoWq1ENCpuBWaIFTyV9xLeNkHuLgoRZZFmLuLt8TlbrCSuseWsGnG6+5uLwvfWFy41u2lYdboK135XsE/SsEhboBL8yb2LM9NV8JWfIjFIjbK2rlRAXnn9h2EXw4nGsSIyV1bo1WP8UgNbIlW5f3dOtd185rFkjMG9E1MLDoSIf3joorNMgcrbXpYcZOOrvTU8C4LcZ1GR0/N01j4uDg5lvXUTf3EYao9jqx964uESIhXHmbq70FtXnHnc3KFnPVTZBPRK5Wg0xP9MXcGqlajy/TK8dnG3TgWfhqP4yS+33IdSveZtew+3Fgsks2xeHhJwSKOIxHS0huRD2zf8/C8WhziYvL/wrjZDrFMdW8VoAJDXqvSFN8ErPmDut7Nw5unR8c+h+K5NYtCHiXYKxdA/ZH5pTs3gBYPbBnNYkxXVNC//f47+PaX79j23W/f472P3yc6Q/BvMUzYPm8mvv/gfaxLBFrU9kKWAf9uhxuLRRusJWkQSMBabZnz3tE/ztKbWCJB5LGtuBRrEdaApYgkCD++AxdvGVgys5tScf7oPhw6dAxJOuF36TfP4fTlWLYvtSbj2N690JtLyD1FgLrb4XTPgbg3e+2aGVdOH8LB/QdxM9kiTDwrEkOhlGU3qxIVbqx/Be+svAWFY2EHGl+ijm/H/p3bSHw4iri0vC2A3NuEV3q1c8nC+IWFxXU3r17IUo67h0icjhMnLkEiISFCwub6uaO4a6RLZoqRGH0GUcl02TAx0mMv4sItI8RiKSxpN3Bi/y4cOXIKKWZh2TFjyi0cPnQeFjoakQS0KOkyzkXFZqb1UoalR5eGD31WSYd3LgFYBGha9Tgb5UCoWXQcFJHc0pWnQNNVcbeoCPNQWthmMpoQUlFYjc4i8keXzj2QeuYETl8zYNKPy/F80xC4szxwX7FINmE0tHDsKmifAbY5jrPCxKEj5bD+kmSf3idRyPHfjx/i3a/X0EVFyRkRpNKL+OGt97HwUCIkciX+fncU/j15B6mXVmHiuDfZZ9/eNxfTlp6CnQjL7X+8j5k7tFAo3NbL78H8vhhLXO4IM8COmiuxXIVjvz2B3zaeh/HuUbw1ciBupJJrtw6iV9u3kCKXsfsEnDWLmTGKxpdVv36GFJkMSWFr8NLop5BstuYa50jkKPWaReZyNw9vWnjM9o1E+InOz8Enb76LM3YV8Vsxwjb/hkXHrJDIlNg7+218s/wiZAolLq36CUdSxNAYT2LCoMdw8noqbh+ej+ceew1pVglSow7jy/fH42x0GknaUkjCl2HuhlMobGWxq3F1emQmTjBzJQYzrY59VyCs6VvCjnAThMK8a9zO0pWH1thTHyyt1gqDqDa+WrwIc/5ZhNmzZ2LiqE4QubkNduOaRar6aTbmGsQiCzZOeQodug7ApLGj0arny7gtzcyk6Xvo+o330iD5m7U0b/cBQk79iSiS6UAsQcLaaUgmuYmNZPYy+XkcuF4d0z94DkNfn4FnGphwyiR4rkgsg/HcLPx1NhgzvhkJsUtrCIoJaozKwne6EuZmYVcuj8HadXH49v2X0PfZT/DlMzVxLukGlv32C4kjZ/HX8uNEHNpwdt1MfP3Jlzh5lwhBVvWYiVWkRsvuvTD81T/w7aRq+H7DXcilJL6YE7CQFDy++3EOEuyK3AVkSUMjvbsHN/2+LHFSIjVj/R/L0bGJF5YsjSBnrKhdtz5OHzoMqSIF0TcykLxlI3SkIHfpym10qiPG0SXzYe7xOV5+4XE89fHvGF0jGrcT0wQjXa4R5izeBJXK/UwiS4uemZ/nDfGTe7baw2DxwUWOp1HfzTVKscFEt6flc0XAzcWi62KxLi4Ck+YkYPmxQ5i3aCXGem/Fx7NOOq5ShPc55alQ05QZkSyyKnhygB1nLl6DVJSGRXNPok3rFiSLssNiro9WwVfwzsytuBFzCyO+XoA2CsG+W1MuYsKkuZj4+RdQWYzCw9wcaoeoT3gSQmgL8c1srozu3XzwyfQVuH79BhpMXIBhtapj4PNjifqvi8cHNsXdSzsx+e8w9H2sNyJ27IEtF9Vns1lhMergX7M5Lp27BLmXAls+fhzptYegY7kIPP/SHFgkpZ8EaUi7e81iZnoUPFqUfBWLzlXE2NeeQMTKOTCSS6H16kF77ADMcduRXONxdNBvQmL6dUTcVqO2WIxbtxJRoX4D2CxWmIwyvDh3NxpWoCspWCH2bo/6MUux6KJ7xnuX1/64RSml8Di7C3kizpTgCqjNc1UtZdmCJADibGr3cpTzOXng1mLRdZ1PpUjXHoek85OoZ9fCaLRg7IJD+O7xao7rBBZx6DsdCSfrPsGuN6LBy6/i8O6zECfewFbxMDSrKWU212qyYtKsjRiiPo13xvTGm1/OJ88iF8QKxB5fDpnagtu3Y8uOfabu9rASF3Wys5RpNRrR++PVeLWFEV9PGIynXvgIKSYxNL6+5KoC3t7eiA3fhfaTvkWHFh0w5umeED3Qv8SkQGGG3HwOm0+q8cKwHhj81AvwvbIKSXo3SII0rrt7eGdLj0T4RR5DertnUbtDdzTS70O6zgxNnYaomLQfF1dvhFfLx9GjlxwJp7YhVlab5A0iVhgUiyWQKW7hrZ5N0L9LR+yLSQLrakqC4c0vn8HGTz91u6jPbKGrPooaIRbZS9iRLn6nkD+UsBvcBJfWLNLHeKo/0jjk3mVkt8L9axZdEpFpRqGDl5f3vecpfMoj2FfJ9in0LK0JchogQTiyXQGrCWa/ITCG7cGZ6wfRcvwL8KaL2pNMSJIehZNhd9Bq1HtYs2c3As/MxXEj8Vy7GUFtJ+GvJd9h3U9TkabIfJ87I/hFVsc/+giZj7AvNcbi8OEzCO3+Av7echDD1duwIewmm5uTQcLcqtNDpZI54tODigEiWEyJ8PENBDIykGJIxNfvTcKbn8xDq4GdIHc+sxShX+DuNTVZ06NIpsaVXcvhZ7qI375eiAxJKlZF6CD2rYsWle9gw+oraNamMRoP6I/9/62DuGZ7Vnug9lIgLSmZhEcFfLFqP0bXioPx3owLxEbUfBaPN4zAzptm0DEz7oSrwodpRWG3xHFlvkznzvVUSEpg9soVsHzWRc8qa1BXCxVSbpbY3RT3FosumzrHDrFYDV1GOokXQsQwpsYhQZu9WZj1kXQknNwTkRh9qsdjynf78Hz3QJgswnWZ4g6mf/ET0tK1SDMp4aMkYoJWV5CIKNMEwFauP55rm4a3v9p57/3ujOB2zzLGWd0sU6bh30/ew/U7SdDq7fBVi2EjKUVMR8vCBJPBBO/Qujh/9DiJAyYmQOz3haudiBIzzJYM7FuwBkOGNYXRpyLqaNSY+MFUfDLlazzz7Dj4yEt/rgTqdme8d1eypke5LAYbdyTjtRf6ol3HLhg+4Wmsm7cBFlEA2rUJxs64RmhT1wJxnQE4tiMMtdq3Y8mueac2iN08B/FaM5ReaojI88RZws1m0KH706/j1+mbIZM7hra7AYJQdu/wyQ+utHyPip8UFOpiV/blLwtpv7jIalM4D8dtxSIJScEgOA6LhgXe3m1g3b8M4WJvyElGMOeZ9pi86qbjOoG+j9VkOg/pvlMwiWDQpbOS8eAR7ZCS5oNKMhlMRj0MJhsMii748t3OePfpwXhq6CCYe36ENlLyVpMeeoOF/MqMgW9/Bc2613HgZpobe7oTakA8rC8HNRoOw6FHPUyZNwUz3xuDJwb2xW6/iRhaLwT2ivUxqPopfDNzB2q3fAodb3yPof2GYV0MCWu6ZOQ9iMelpeD1Ad3x9GNjkNZlKkbVViA9vSJe/f09fPfqCIwZPgKL9pIfimncynD8rvRwXZeP4oFlaI5v1G6fhUt+PdCmRUs0btYMnbqPgfLUbzh0A6jasSOUnXuhitkIkbgGpCSxNWlVkwkV73YvYeqkWvjfE30xelBfXKr1CVpX8ofFaoZNZ2JJ36tqK7zbzRupOjN7lztARa27h09J48n+QXIqIT24AOqPnioWqU/ydJV/RA0bN8tXTNGmpWHn/gOOo+KFjiy9FHYRV69eRft2bVClShXHlcLDRkNPHYtvtiWhTmUlwtNqYs2m6QgyCxl1VGQkTp89j5q1aqJcuXI4duw4oiKuoP+I0ay/mVLjA1OGFjaJHBqVhGT8esiUXpDZ9NARwSgSS6FSq2jeD5NBB5PZColcDaXEjAy9mURLEdTe3jCTZ1jcuImXLkm0aM4MtG7bDvXq1UO16tXYuUcVGtdSU1Jw6uQp3Lx5A607dYdESpS+SEzC0wt0/AkV/QYjFf0iyNUaSK16ZBitUKi8oJCKYDJZILIZYTA7DA8xvkpvP8jExBiRAgiLDw4xKRJJyHPVxE/pmuUZMJLfqLw10Kens+ulwYaVS1G/fgPUCK2BmjVDBfe7CTR8kpOScPz4CVy7GoVeg0bALpbDS2FHeobBcZMYXhoNjOmpsIpVUMusSDeYmUCkac6UngaLXSj5iEj6VauU5Ll2WFhhzwKxlD5PBG2G0NIgUWqggBE68ozShrp/6d9/okWr1qhTpw4Lo8KmR5vVimvXohF28SK2Hb+EfR1/IULUcbEYoa0sQ3Y+izbtOqBFi+aoUrUKc1dhoLY4MjIK169fRxSJD30GDXdc8Qz0eh0unjqOkIoVmV9qSPwuDNT/kxITcfzYCURcuYyBjz1JCrzuU0Aqbmjf5YV/Tkebtu1Rr/6jn89lZdjAAY49Qdd5+/g4jh6M2/oOVfxCs6BrrJnNLkX/Dxfi0IGt+GfpOhz67/t7QpFC30Lf5yxlCSUuR+ZPEpaBCkW6bzUxoUgxGzKYUKTYbRbo0rVI12qZUKRYTTomFCl0tni9lmRaZaIvoOeVuIiLaaA7jgjE/XoS5jQ8BaHITsKk00JHjml4mvTp0JLrRio6nEKRQuMLES40IaYTEegUihQ68lbneK6Rnid5ZmkKRQFaV+Hu4U3DR/hGu0WfKRQp5HwGTVtEENqtBmQ4hCJFR/zZKRQpdpJ+M4h4ZOFKhCLFZjHdE4oUqyHdLYRiJq5Nj4WTaS7ARS+mNpr5R1kwpcUATa2ucvy9Z5VapChNqNV3Xbp61HFjsUhLwi42COShtGRqJps1F9HGps65JxapeGS7Hgdt/ve8AS6Cuz0xyGlQu/toaBofPTc9ChsnE1f22ytTEEcznewix9OeV55m6514Yj5XFNy2GfrCufOIiIxAj25dUa1aliluiomIK1dw+Ohx1K5TGxUqVMDhw0dwNfIKGrVoy5bs8RTEYhF2bFqPdh06omHDRh7TDE2bOW/djEHFajVZE4UncWT/LjRt1gK1a9d222boo0ePsmboeo1bEAPvObUB1P27t25gTbj169d3XTP0oVO42HCSoDyKGZtYhnZnvyE2pRNatGhR5GboiIhI4o6ruHDhPFq160TOek61mMlkQFLcHVSsWBmtWrUscjP0kSNHEBlxBU1atYPVnRcmdjE0DW3fuBbtOnZCIw/I57JS2GZotxWL58+dIwIuAidPHCuRQKSCsHXb9qhbty5CQirg0KHDJGGaHFc9DEcNW7NmzTxGLNI+qhkZGfdqlj0K6mbiDw0aNHBbsUgLb0Zj2ZjU3uU40mPTpk1QvUbRxeLZs2eFE8RvSwzqBrK1bt3aJWIxPDz8Xrz1NKjf+ZAMvnXrVkUWizSfoy1tHokjXXlCPpeVR04snjl9mnVkLslaHjrPYr16dUmprSIzSJ5Ug5ETatjpQJ9QIh48QSxeIQUTi8XZN9HzoOHt7++P2rVruaVYpOHj6ekxKCiIDcArilikNjWRiATqryUNdQNttaleo3qh3+8UiykkzZaGG9wFmUyGunXrFEksJiYkEL+MIuHC87lHPZ/LyiMnFnUZGZBISr45kNYw0gjkyYYoKwql8pFPRBnp6R5jKB6GTC6H1M3EIh2MwsNHoCjpkdo2UynXztK6HJVKXWj7SmvBqGDkCEJH7eXF9rP2t88PPF1lR6lSFThOloY+cQWPlFjkcDgcDoeTP2j+7OulZs2q+YVXh2RSEH+jmEiBRaZUOY7KFlwscjgcDofjgdD82V/jhdOnT8Hqwd01ihsqsOmctJBIIFephZNlDC4WORwOh8PxQGj+7KfRYN26NXjm+RdoG7XjCseVpBF/jo+Ng5r4tdLRBaCsUVixyDsscDgcDodTxqF9UmnfRedcwnxz/UYHQVptgj97GlwscjgcDodTphHBYrU8UMTQpS4j9v6LRQv+wdJ//8WShfOx4O+5iE4t2EANm1mPjSsXYtE/87GQPGvemkOQyAr2DBFRHts3bIVRWvhBImKpFCc2/YPF5BsWLf4Xe09GsOV284tILMHBDatw3SwTjiUy3Dq6EqdupTxAGNnviXJPg4tFDofD4XDKMkQkMRHzoOZnuw1qv2CUD6mI1b9+jguyGgipUAHKAk5+YDGm4v0vFsMvtCoqlC+PkCCfAo3EpoglIvzw+TfQKgo/84JUqcCCrz+AtXwwQvxFmDG2O74/rYU8n6rGTuTPmTVT8eXaZCYyFcp4fPfUS0jS2vIe8EIuCP7MxSKHw+FwOJwyBK1Qo02k9gfUeNltFlRu3gf9BgxCJR81GvQYiv6DhiLEq+Art5hlldB7yGDyrIEY3LUJbFnWvy9JbGIvdOo/EH0HP4cZi7/HT18ug1gh1BQ+FJsZAwf2w56ZM2EQiWG6eBRr0xqiQc3yeYpFet76kBrcRxUuFjkcDofDKeNYrTYiCB9cw2e3WVnNGJ3vkk7SLuwXHKn5LvZs2YqdO7Yj7FZyqQoJqUwK8h9iY67Av2olSAog5Br3G4yAiPlI1opw5vBOeA//AFXUDxbPVivxPQ9cU5qLRQ6Hw+Fwyji0ZrGkmkdFNhMbSavVaqE3l96a0kpzEjoG+qNcgA8GvrMPa77uBb0x/99jCOyBlzpocVarw+Eth/HKR0OJRz7YD3nNIofD4XA4nDKJ1fKQPosuxKyoiiGjRmH4iJFoWS0QpSWdjFIfrD57HqcvROJa1CHU95IV6FvMRFgOfuUZrNh/BoeuqzC+thXWB3ohH+DC4XA4HA6njGKxlVyNl8huYcsF0prFDH3hlpAU2W0w6vUwkE1vNDnOFgy7SAL/oHIoF+gLmAwFF602I/wbj8fxb8ZAW3cQlKYHP4FqcT7AhcPhcDgcTpkkP30WBUQw6jJgthdgnpks2IlQEt38D80qhKBerRoIbf0KjN5Kx9X8I064gHYVK6IueUadPpOgkBVcjhgy0otcq6n0K4dW2lTU7zv8IbWKAtSfbbzPIofD4XA4nLIGGw2dnxovmxnzz97FpMqphRrcovCpjJtGK1K0eiSn66GLXgxFmsFxNX9YzXbsS7Ih1fGMtJP/wmgumOwzadOx+Ioe9USiIglGm0iDxXct+Onxqo4zD8bCm6E5HA6Hw+GURWjzqDWffRb16VqYbIWrWQQRpNq0VKSlCluqVifM3VNAMrQpmc9IJ88oKEQk6tPTXNBf0g69Ng0GS/78jvdZ5HA4HA6HUyZ52DyLHBdAxDgXixwOh8PhcMokFovVI+f/K2m4WCwMuVV5k3N06Z+HR9nc7nH89r4LzvMPeKrjem73PfS3hLzucZ4XNsfJMkte/pDVjY7NceXB5HJfjudwOBwOp/ix2ugoXW5zixPqu1YiFD3RnwslFsVSBVQyE9ZP/xQXkjJHQclEevw343O8OvFVLN11KfeHiyTw8lXj0pa/sSJMDInzJpEMV/YswjsTx+Gb2f/BKBOeK5J54caRf/G/SePwyXd/I0mkYuezIib3nl/wBiaNG4uXx5Ntwjicv5FOPxTihGP47n+T8Oa7X+B8ohXSXPpWyPTXMPuLt/DqK+9g2/k7xB3CeV3kPrz80jjhmWOfwevzTkEuLbuVsZErP0Sdxu8gQ5zFDWI5wrf/joljn8NLju2VSePx1+azyHOJd5EYah8Nbh5ZgyUnMuBcQ14sV2H1DxPwCvUvsk146zOSsLjx4nA4nOKGDrzI1wAXTpHgk3LnF5EI+/75EG1r18Y7P8xDgkkunCeiY/es1/DBshh07VoHsycOxa5ECyRZxRkRb2lhqzCkSS0MmfAxzsSLhA8gAlIUuwxjXvwVoV16ImbRK3j9x43stxkHP0GPUT+hZsdeMBz+BUOe/Pq+4e0SqQRnNq+EtXwNNGrUGA0bNYK3UgpbUhg6tBiO24HN0SwgBiNaDcdVW3axabebMaFvX2xJLI9uTZV4deBAHNSpWH/dxOgz2HE0FXWbNkWDxmSr4kvuF36XFYlUCplMRoSv4FgREVMyoqAkEuE8PS0SS9i+1KGORcQvpE7PYfuOoKD3EfdkJdu95MtkMin7PrGEvFMigZQ8l50jYSOR0n3hnTkRkfuVSvINWb/XbkW5Wh0wbORjbBs5ciBSD2xCmt1H6DhM3CI8nz6T3E+Ozdd34KkODdBz1Ks4EG24F8YSIqT3/rcZ5Yh/NaThUL82jS4Mp/tl5N25fBqHw+FwCgsxtFa6ggvvs1js0GZoT+wbWnCxSLJ6Q0g3bNqzEz5ZNI1MKcf6BdsxZdM/ePLZD/Dje63x1Z8XstXEUTGjS8zAd5vO4q0uXo6zVCtJsOeHj9D6nR/w9jPP4J8lH+PI2tVEWFgx+7OF6PK/6Xj52Scwe+anSDz9Hyw5luMRi5MRfUOEJ198Da+99Q5ee/NtVC/njegLqxDb4F1M//I1vPi/H9DQ6wS2H01w/IpCHGDZjm1JHbH6ry8watIPeKmbHbNXXSPfKkFK4h0om47EW2+/g9ffeQ8v960JszX7u+3mNHw9dgBaNWuNL5dcgF0sRtzp1WjcejJ+nDwSTRu3xt+n0nF0/nto1bAhXp91GDIvL9ycNxLPzjgBlUIO87Y38PhXm6CSE+G3dzI6EtGsdFRvimRKcu8IjP75MFR0HipRNLrXH4xb/hpsf7sx3pn6M57r0hjtejyN8IRETHmiM1q17oplJ1Nyb0q2GPDdC73QpHE7zDiQAKnIhoAardF/0BAMGDQUXVs1wrm0JhgyqCH5PRHz8fvxfPemaNa8ExYevQk5UYa6W3fx2oJD+H1MiOOhAmLJDdzWVcPbxL9oOLw18RkmMEVSFSI3f4NuTWqjY7+xuGxQcMHI4XA4LoLaU4uHzv9XotjtRJTzeRbzh92Gvr17QCmXOU4IiCUxuJ7kh8Z+RHmTEo5v7Tq4HiaIJyd2qxkh3Z5DjSDvbDVfYpEOFy9koHqlYNYfwF6/AWS3b8EiluPZOZuIuGnFavQyYm9D4l0eoqzNqASRKBk3bwKXNvyNqd/8hEM3TJCKLajcYgJ2LJwAGEywWe1IyVCgUlV/x68oNvKsTti+9UfIdEaiHWVIitehfqNK5JoIKclJkEpvY/pXn+Of9UTk5WiXlSg02D2lD85WG4O5Mz7Ewfd6Y11YHEQk0WpvLoO65Sv45q1B+GpEc/x5OQTTfvscR6YMx99HMxDYpz+Obd0HhZeICNVVOLFlF2wqOXZv/A/1GtUngliIjHazGeWGPocza9fDrFJBdGEJUpr2RH2Tieg+HbbsvIAXvpmBYUHnMLB1XwSM+ZL4V118OnF8Lp2dpTCk7UWNIR/g18mD8cuYDjgfa3ZcI0hUuLrrB1R6+Ss0lhlgMyRjcOfxaPj6dMz68XX8NLoftieo4NfpWbQg/pi9RZ4IS9ENpGYA+2Z+hx9+/hMRKUIgp+z7BgMnrsM70xbgo35yDOryFFKtOTyTw+FwOIWG5ru8n3jxQn2XD3ApANSzciKCASaLBBJHXKVNp9DrYclRhWS3kgjt2M/ECoOefAxRkOyaSAYJEZYG8tTAytUQpJGRPTM++ngeuk/6HPIcOkOUkQ6tygs7L9xE/MVNeLZDK4SliCFXB6FaOS/YJXJc3jwFGd2nYEitrIFM3ibxISI1EDaRGPoz32JDRh+835FO8klcRASb9MJmxKXdwfRXRuB/u9KIYMx0kIh8b2zMbQSF1kbdFoOw+tQBdKnuC7uIvqMLHnuiF/oPfQJqZGDU2DfRpns/DKikwaWwy5AGDoHv+R0IM9zEogNSeN85iR1aPbZsTULbls2RlnADMdev48adWMi8e6Hq7e3Yp1XhwMKl6DmkAwxG+g4bOgwZjW5tO+DDiQOB2u3wxpDO6P/uS6h49waIlyL+9nXynGjcTjYSUW2BMmAARg7phl4vvIGngrU4efPuvb6JKkUcZvywG5+93JA8X4SM1P245N8Hj7erhuCqTdC2Sga27r/OwjC3gpUoIQE2YwJWX07B+U3TMHrEeFjsIuxcsx1VRn6Efp1aY8iktzGsjp2EdxaRyuFwOJwiwSaL5n0Wix0uFouMmIi9rKNjyR7t5+Y4ejAi2lUvExH5LTlB5CZDrFAgbNpo7KgwAX+Mb+Q4m4neHor5p09h5ZxfMW3pWjxZKR67z165J4LSj87GqMmHsOKXJ2DWWRxns2NOOI9eA7/D5zO/gS2D3GM3o+dLv2PvgR2Y8u1cLJg1CSs++h3pcudXkcSpT8fIX3ZDvmgsGjRsie+3pCBAo3T0a7Sxv7TpnfbbE0vI15C/tO+hjYgtqUyNmoGXsHFZOC5XegIvD5Rgxbzj2JHsh6bNayN69zzM/XMW5q/eAalCir71Tdix9RCWrolHz2aNiHQWcFaH036IEomYvpWtl0mXU6f3bFk6G/Nmz8Cyw3cEoWsnQp/8xGZTIbgCkGQ00c9ixG2ejr3STmjmpSK/FsNquAVR+iX89euvmD1rFoLaDUGrSnmFqB06eQ/8d/EM/vl5Kpbv24BaMXsRZrUhXZsBWblAkOgBvSQUPy35B8EaF0Y9DofD8XBYn8Uc3aQ4roeLxSJis5VHgFKLWLuYiCMxzMmJUIdUgpSJGSKYhNtyxW5XIqSiCMlEVJBfQ5oUD6O3L1RMbclwd980DJ2mw5LfXoXNnCn2qBCjWBOjsOa/Y0wc2cT+qFsNiM3QQUy+Q2GJxlMTfsbri3Yj1F96T8w6f0tRS9Pw1djH0OXHvRjT3IfdI5JIcWrHBsSJZaz53K9cKOw3r4M8VfgRQSQ2ITVDjWl7rmH3wg9w7KtBWHDsRq4jru9DIkP/hhUxf8ZU1H/qeTzZtwV2zfodSRWHoWFQOhqN+Qbf/fgzvnrrGVhtEjwxuhUOz5yGbZYOaFzX1/GQHDgddw87XvzgJ3z70294f0goTLSvJxGSNDBEYiNIEMGLiEzhZ2L8/ddKNHv2I6gcepj2NbR5tcdUIlp/+OV3/DRjLsa0DhAu5oT4pzFqH3afuMY6/1oVtVDdLx03SfirFXLYDEb2HonIgMunz8CYz9nyORwOh/NwLDYrs+1KpZJvxbQpFArmz55Ygytq2LhZvnJtbVoadu4/4DgioizlOlo3b4+fDqejW4U0iOReWDC+Hra3XovF46th+shaiHvtPL7uokR6WgLSRD4opybCi/xWrNBgxqgQxLx4FT/0sMJMBKF+7YvotKwWzi55Gxd+GY6XL/fG/tmvQmQ6jx61h+GtY5Ho7W9hI6HpiF8JDLhxLREVQyvBO/U46jd9AvMOnEVT32vo27A/Xt94GkMbK/Bht4bQPr0Ivz7fHibyWzoql9buxUbfgKZqNahFVix5qw/mpgzClj9fYX0pqdiVKtTkfHusrjITy99ohB0/DcN7V57GhfmPw2IUBKvSJxnjghui3fqTeLZRCOaPqozbL+/FRM1ptB62EYdjFyMk4QoaNu2AH3fGo08tLaa2b4rUl1fhmycbIWnN62j7xiZ8cy4S4zQH0SD0cfi+vg17P2wCnSl7ZNRgP1pUHQ3Dk0tw/ueeMNpE2DwpFKtq/4G/3ugLxaHPUOXLJERt+w0y7zB08XkBS6OPwF8svqcho9Z8gX4f7cfuQxtRUX8Mrdo+gz/3h6FVNQ1xcyx6VB+EH2+Eobklg9xNxF9KFLo26Y7/7YzAkOp2nPxvK6o/9hgq2EwkDL2x/a06WNlqG/4eEwiDVQTvq/NQ9YltOHVgIVTxa9Gow6/YG3kAiSvexuMzLNi7/Weootag0dCfse/ccZRX3d+dgcPhcDgFIyM9HXv37sPBfXscZzjFRYtWbVAjNBQtWrZwnClbDBs4wLEn6DpvHx/H0YMpvFhMvoa6TTti5tEM9ApJJWeIuIg9hZdHP4Pjt3Wo0+cNLJr+OtQKH+x8ry4+wk84+30PZBitTGj8MtAb0ZNiMb0fEYu0QCQ2YOZrozBz60XIQ9pj7rK/0Ky8BMufb40Pd96Bt5cXqLSwmpR4d+8JvJC0ELUG/Y7Dl86gnK8cN3dPxzOv/4IEowL93v4dU8f1Rvzpv9Bl6PuQqbwhE1PxZUXLJ6Zi/uRB6FW3Dnr/HYF3OxPRW70XUuXeUMuEe/wrD8em7b9AmXoZ7z39BLZHpCK4yWDM/+cXVFZlqcATSZFyZRNemvAJriWlIaT185g3/T1Yz/2LTo+txaG4dagUdxHVGnXG77vjMbCOFp82DEXyW5vx+wtNoTFvReWan+BMzDF4a5T4tGkAyi2KxKuhaphzhIpUrcbn7fwQPP8mXqkmhlUixfrngvFv3blY9v4gKPe9h5APExF9aA7kPufQzPtxbIi+hIAsYjFi6bsYMDUN3WuFYc/J2+j3/l/45ZWeRDzLcO2PLhh5bBQuLZxAhKrwC9pz88L6H/HKR7OQKtKgdtfnMf2X9xAstUCs9MGmCeWxpN0hrHi2HPREP4tkEuyb+Rbe+mUdTOJAvPzzP5jYuy6bf3PJl+Pw/b/HIQmqj09m/oOBjfxyqQnlcDgcTkGhYnHDhk2Q0YGn3K4WK3Quy8qVK6Ntu7aOM2WLEheLRN3Bx9cHurRkWO4tSC6GSqOBXCqC2aCDzkAbhu2QEmGhhB5ag4XWkrNzCi8/iE2pyDrOQaZQQ62Sw2Y2IiNDT6QKIPfyISIuU/DQ3+vTUmAUyeGrUSAtTSv0ERRLodF4QSKyw5CRDqPFBrFEDm9vNfudE6tRh3TyUg3xILMujdwnhrefD/nyTG+w20zEvTpyRgSFWgOlXEJEqh7pdMR0Tog/qImQlUnEMBv1xM0m8inkvRoZ0pIz2GhwX+ZPKTATf1KS94oM6dCbrNRniB+qoE3V0hgIhbc/7BmpMAmdHrPDrvs5rgunZGpfyG06ZBB/tktV8FOJ2KLudrsEPv5eSE9Jy+Iq4kVyFbwVgMkmY2Fk1GlhMFNftkOi9IVaZECaPrMPI0VE/NDLS8XmUmRhanQEGPkemRd5v0WLdPJB92KAVAENuR92C/TpGcTNwhdIyLu9VOTlNjPSyfncBshwOBwOp+Do9Xo2hy2nZKCr5SgUmQuSlCVKXixyOBwOh8PhcMoMJSIWj5w65TjicDgcDofD4ZQlenfr5tgrRrFYrlYjKFXZm3U592OxWGA06ODl7cuaazl5Q30nQ5sKjQ/tw8j96oGIREhPTSF+lcdoeE4mxK9ovFKqvNiSmJwHQPzKoEtnA/sUyvvX3udkx2I2w2Q0QO1NMllusx4It+8FwGnffYvPrwx6HQxxMY6jYhSLDTv1Rp0mrRxnOHmRHB+LqItn0KbHANhymcCckwntLHx4+3/oMvAxZoQ5eUPX6N63cSU69BnqOMPJC7ou+5GdG1C3aWv4+Ac6znJyR4RLp4+wPlihDZo6znHyIv7OTdyIvIRWXfvBRqer4eQJnfvx2O5N6DxgJLfvD4HO8rJ/00p07De82Naejjh/EtfPHnEcFUws8pmRiwWH/uYFqYdD/IjNwulmfkUH7GQd6OMW8PiUb7IuD8B5GNyvCgf3t4fj8CPuVfnAvf2Ki0UOJwdSiQRymRTyHOufczgcDofjiXCxyOHkQCoRE7Eog4IIRr4wP4fD4XA8HS4WOZwc0AERcjmvWeRwOBwOh8LFIoeTA6EZmtYsCstTcjgcDofjyXCxyHErRESeyaQ2KOQWSCT2UpltgTZD0yZo2m8xL7Vot4tAB6zVrJaARnXuIDhIC4uFJycOh8PhPHrw3I3jNohFgFxuhVRqJYLRCl9vPfx8DOR8ySpGqVRCxKoMKgVthr7/3TabCLWrx+GV5/ajTbNo1Kwej14dr2Bo7/Pw9jKUisDlcDgcDqe44GKR4zaIiCg0mqXQG2RI1ymQnKqCVGxFhXJpkEiKZ96p3KDN0LQJWi6T51qx2K19JPp0uYzNuxvg33WtsH57E/K3BeKTNejV+QoC/HWOOzkcDofDKftwschxG6y27PMt0qbexFQv6E0yIhi1TEyWBGw0tFwKBdmyfo/VKkbzhjfRotENrN3WGNduBLHztCbRDhGOnKqOc5cqokubSAT4ccHI4XA4nEeDUhGLNP+lU5LwaUk4+SEpSQ2zRYzKIamOM8WLs2ZRGOCSGUerVkxGj47hWLOlCW7d9b9PvIrFdkRdD8L1m4Fo1eQ6O+ZwOBwOp6xTKmKxcnAgerVris4tGsBHw9ea5jwYEYmlCUkaSCRW+Pnoi71PoFRK51l01Cw6MJokGN73HM5drIxrRAw+qJbz1IXKSE1To12Lq6x2lMPhcDicskyJi0WRSISnB3XD4K5t8FjvjujfsQUsBV0/WSRFxt3LOLXrP5w8fBRaY0HVgw1Rh7cgOs7oOC67SERm3Dy3H0d3bMSly9EQyxxBKpbArr2O8/s24dienbiVaCRiiwgXqxFn92/Gke3rcHjbOpw8dBipBuEnorRrOLpvL6wl1z0w39Am6tg4HwQHpbOR0sVJtnkWHVFreN/z7Bu27K3/0AE3tEbx7KWK8PEysv6WvAKdw+FwOGWZYheLVBxmhU5J4u+jcRwB7ZvWI5lw9tyU/ibP+hhWzbQT//zyK26nWZB0/j/89ct0mMXiHO/K8YQs10R2GyIObMC1uw6V5CTHt957xoOeW5qIJDi98gesWbsbZosOp5d/jX9WXaBqBeb485jx1VRcuZUKY8JFrPr+VYTdNMJOxOLJHauRaFBDIpXg7pl1WPDzDzCTMBCnRuHI7p1uKRapr+uNMmRkyFGxfPE2R9NmaKVMBiURizRmqpRmNK53CzsO1M33QBu9QY7z4ZXI727fH604HA6HwylDFJtYtBLFMaJne7w8qj+8vVSs9lBMcs0+HZqzTDgrj/Vqz+43mS1ESHrhzacHo2urRrDlEJEUkdiOsHXLUaH3RAwfORJ9X/kOTVTnsPlYEv6b8TEiE+XkLjsub5iBzTsvgSgiRO1bgmW/T8W+I1GQqiU488/HuJpkwqU1PyMshWorOTJiDmD1719g1aKlSLEpICaidvdfvyHmxi6s/P1L7Nx7BhJdJDbM+gr/rd4IS5a+bKWFWKLDxRM30eeDr9BlwGg8OXEikg7+hkSdHBE758O/xwcY9czT6Dr6TQxtG4Cj+w5ASoSL3QrU7DAcbXsOwdA3v0dD+RUcu22HpMTrmQvOnXgfqFVmaNSmYguBzEm55SROSjBq4GlcjQnCpcgKjjseDm2mvnXXFxk6BRrWues4y+FwOBxO2aNY5IHNZkOPtk3QpWVD1K5WEVNeeQovDO2Jn94dix5tmjjuyqRn26b4ffJ4vPrEQHw28QlUCwnGsB7t0KZxbccdWbBLEFgxAPERl5Cit0Fst6PD2G/Qrb4SKkMarlyKYE2HVy6eg3eNBsg48Su2n0xDqx49cHP9t9h+4BZq9XsRId5SVO08CjU05Htjd2HRrA2o03UoqiuvY8FPM4kYFCP99nns3pmEph3b4saOPzDrp39QpW0fyG9sxdrDcURUlG6Vkd2uhsbXjKsnr8AmkkBSvhmee/dLBGgsuBmRjAbtaxBhaGXhUbXTE2hUpyJsjppRu90mbGIVNF6AvowM3rVaRYglgrFKpaRiK+mwSbkdo6FrVotDtcpJ2LavHpv/saBcigpmE3YX5rccDofD4eQFHSScW6VacVAs+a3JYkX3No0dRwItG9RCzibprNCG5wahVRxHAkO6tb2vCc9usyBkwBeoJz2LuZ9NwqqVm2FRBcHHS4kmzSsj9so5clca4lMronEjFeKvRsG/djPUbtgGI9/7FM1CNdCUrw6VTAyvoMpQS+0I37sHmtZj0KBRY7QbOBiKpDAYjRZYzXJ0HTcGddoMQeuGfvDr/jZatuqANoO64tb5MIjEpVsVR4Vgn+fG49b6r/H7px/i2LkY+AWVh0xqhNkkgsqLRCIaj0iEEgU3Q8vm9WBzdKCzEwFpI34Zd+IfHI4OQLOaVOSzS24NjQ8paSr219+3eBSus2ZRKpGzaXCuxQQhObVwA7ESk72QmOSFerXuEv/NO/5zOBwOh1MQyvn7ommd6iXSzlksaof2S1y947DjqPAs2rAnV9UsEsnRc+K3GPvme6ghu4h5n3+BOKsMlTt0h+nWFYjj9sJWuwPKmQ2oMXgyAm+uxbSvv8DRS3oElPPP7rHkID3dgtTILfhv/nSs+HcnKjdrdq9Jlmkr8j+JlA54UDAlL5JIAbMFpZ/3E0FYpSPGf/07xjw7HHd2TcP8eRtghpSJKXtW8SeWQeZYvk4sFeHk8qlYM+c3HLpgwZDX30cQcfD9Pu2eWFjtojcqh6TAanN9FL63gos6Bo3qxGH5hmaFngZHQn4XeT2IrUTj452jjyyHw+FwOAWE6pA61Srh4wmj8OKI3ujRpnGx59/FIhZpDWLE9dusH2JOElO02HzgJH5ZtB7TlmzArmPnkJp+fw1RXHIqLkReZ8/KiggGnN+yCjfjDfAuXwPNhn+EtqHxOHgiFTaf9gj1jsWhgwdRq1ktWC1WmCxe6PXarxj7XH/EbPkBW/dcdjTEZiKGDQENh2PES+/gsZfexrBnXoRKLnFcFaDz7WULDDcQimLzNRzYcQAimReCazTD8BcmIDXiPySlKKDxtSMx1sZEIx0IYzo3Hwv/3cqazm0WO9o+PQWjX52M4U8/hdBKAcIjywjUTXQqHZtdhIrBrh/swiblJsI6KHghzl6qDoMpex/bgkL7LWq1KjYwh34zh8PhcDiFgVZgVQ0ph5dH93ecAYZ2a4umtasXa5N0sbWj0tqZnILq5MVIfDVnObYeOo3rt+MQdfMu1u85himzlyLmToLjLgE6GjW3ZmuRRAFL1BbsOXgWcvIOsciA1EQjVF4KWM0i1GpcEceOJ6NmpRDYxWYcm/4+dh+5BO9qHdClRRCS4+6y50rJZrVamfAIqV4OiRd3w2Km/cqMuHb8NJGP7g6JFKpAXNs6F6fiRGy6l4zURBKicnLJhpptW+LUqvUwS+WQio04uv0QvAOD70Umq8VI3GuChQjq3KKXzaRDutZ9OzLSASRUMJYvp3X55NfUL1XKVCilcTh8MpS9qyjQ358Pr8D6LioVZsdZDofD4XDyD61RrBDoizeeGuw4k8nY4b3QplFtdk9xUCxikY5qrlqhHCRZ+vTFJaVgwX+7c3WIxWrDjwvWICElzXEGbLLu+jUqw2zJPqeejS65Nu5LVIjfhumfv40/P3kV6TXHoFdTGblmRrmaLWAX1UJAOS8ijJRoN/ZFJO6bg3nfvI9tkeXRoUtrIgQlaNS2CcKWfonzKSJU6fYsmgXHY/ZX72LOl5NxMjoeVFOZDCahqZkoSptJD7OVLupGAsxqIpqSZvr3i9mSxGbxxYDxz+Lyn29g9pR3sWDxNnR44gMEeplRqc3TaFshHPM+eQ0zP3sPt8v3QbfOTVmfRRP59Fz7z9nJBb2BiceE0ysw74flMLvxEOnYBA0UMiu8vYystOUqpGIvePksI6HbCFE3/BxniwZdKjAhwRs1qxJBz+FwOBxOAaDaqVbVipg87nHWrz436BzWHZvXLxbBKGrYuFm+nqpNS0PDTr1Rp0krx5n7oeKQTn3To01TdGhWz3FWYOrcFYhNSn2gvKKOfLx3R8eRwO7j57H/5EUka9OzeYBYIoOU9cGzw2o2srkaRSIJEs6txMrw2nh5dJN7zeASmYI1LVIxaSZCliEWJl22GvUgGhAi8jzap09EpJLFJDxPplTBatCzWkaJTAmxzSgIRrEMcpmdDYLJjeT4u4i6eBZtug8goqy4R8GKIJUriN+TLyfvMpsyp5TJ6iYrrUVk/iGCnLrLmEHcnSM0iJ/QEcBGowkRG3/E3uSOGPdMO6IsXR/xnNCBNkd2bEDnASNhseS/1o1+EY0OdM3oqiHJOHa2apFrAJ2/Htq9Ktq3+QUSywK8NnUFlAo6HRP1uaIggrfGgHq14nA2rBJMFkmBnyeVyrBv00p06DPUcYaTF2JiTI/u3Ii6TVvDxz/QcZaTF5dOH4VCoURog6aOM5y8iL9zEzciL6FV177Evrt/G1RpYiU2/djuzejcv2D23ROh4yL2b1qFjn2Hk7wte7yieROtUZz84uPCiYcwe8UWXLx6g+SJ2XOZiPMncf3sEceRoOu8fXwcRw/GpWKxce1qGDu8932ZoM5gxBezlsJIq7QegK9GjS9eftJxlJ1v5q3E3YTk+xx/D+K5V49uxN4te9Dt/Z8QqsrM/EuakhWLroeK4X0Lf0P9Ma+hnCT3ZmpXkVMssi4CJKOXEHFP/1KR7zymmyzLNVo4USiAmtXCkZhcFQZDUOZvyTU66XjW30vF9JjsS4VzzvMystGmZ/o8KUmwXt5zoVBehxLTcDs+mWUIVGjTbgv0r7BZWZ9YC7tG9u9dc+4Tgc7+CufpPi2nVCx/BdoMOe7GVSAa3HzvN8I9Wfczf+vMkLhYzD9cLBYMLhbzDxeL+YeLxfyTl1iklSLliVB874URLM/KLws37MGJsIhsmqkoYtGlbYx0BGluUo5mevlJVGm5DHRxolErHXt5QF5M+yy2HvMGapaiUHwUsNvM6P7Cm8UuFPOCxiE6gTuN5PSvmIm5TIEnI4mKbnR6G4lYSQoh/ggOSoBCpmC1gCq6KRVQk81LpWSbRqVicYhOEO+tVsGH/KVdHWgBxVfjBT9vL7aykL+PAnLlAcjxBvuSAF9v4Ty5Tu8T7lez3zufRTfne+imVtF3028QvoVOQk/ThlIhQUpaVQQGpEGttjncIbiJilrqRrFYcDN1e54FIw6Hw+F4BHWrV8SHD2h6zotnBnVD+6Z1HUdFx6Vi8V4Tbw4kYgnJBB/+Kg3JfPMiQ/+wdZzFqN15EBrVq1oGBqe4P5YszdklDX0v63JANvrXbhM22t+SblZS8MjcrIiNqwqZPA1yeTIbsEMLJ2byl/Z3pf1ns260dpv9NZvZPt0Mzs1ICjWSWSQmNaGxiX2L3mCC3mjKvMexGdnz6F9ho3Hf+Q6z2fl+YXPWHtLaQoNBBqNRBi+vRMf3Z7qLDj4ifwQ3OzYOh8PheC6345PwyR+L8dH0RQiLinGczZsUbQY+n/kv+01Y1P1N0YXFpc3QdAR0SFAAurVqhJYNajrOCnz15/JsA1hyg64TPbpvJ7ZPM1LaLHjobDgOnr7IPKy4Mk+xVAGZjKh2IjxMpqIPlijrzdAlycP6LLKgyPxfrtDwqlU9AUH+6Th6pho5diaOzN/k+uscJ3289Xh73F6kJb2KIN/2rDbw5a9nQamgU+fksl55jhPZD7Mc5bjPR2NEjSqJOHuxEknIWT+C3Cj8lyu8GTr/8GbogsGbofMPb4bOP7wZOv88rM8ijWvjRvRG0zo1hJN5kJSajq/nLGddpHLmJW7TDE1rdW7cjce8NdvZlpUXhvVkNSd5Qa91b92Y9W+cu3obVmw7iBnLN2HRht24FZd4n1AUWXW4E3EWV86exO27SZAUeuk9E44s+BQ/vTMW0z99H3e0BavqdQtIyUF79yoizx7DtchrsDLFIYI5/hLJBMJgzFp9TcRJytVzCL8cSW+BLS0Gl88cQzjJLK6cP4O4+LQ8xUppQL+FfqezWTa3jTbd3rrrDy+VBb4+JqEpl220WVfYaMHjvs3R9Es3m12Gbu2iEZ/sjYuRQUKtocnMCkBZm4mzbTmel/V9md9ANvqNWbY0rQoGowyVQ+gckVndIriXw+FwOBwnLB/Mb+4g3Jzfu/NNscyLQic0jrkTn63UVSk4EE8O7MKa23JCHfXm00NY366fF67Dc0N6Yky/zjAYTKxf132QDHj7rMlYu3orbkWewH+/vI+Np9Po6YIhksCevAdHblXDG9/PwviPPkd5rzJWEyiSQh+9Cf/88hMuXbmCU6t+xJz52yBRyKG7uAbblv6KM9GZwSyyGrBz2Txs+W8LEy7WGwewddVqxN6Owa0LO/Dvj58iOt3k8ohW3OgNMhLn/NGk3i3Q9aMLSqUKKWjdNAYLVrYhniQ0M9Pm5eLwBzovJF3f2tdbD5mM1zxzOBwOp+As2bQPc1dnr5grLopFLFJov66curBd47qYPHYkurRsyMRjlQpB6N2uKT6b9ATSMnTYfuQMPhr3OOv0T3n72WFsGRuD0cSOGXQ1kvNzcMnYApM+/RS9Rr+GJ54diPBlv0BrkUAisiBi/0psXPgnTp2NYgJSLJUhYsts3EkMx/5lf2L/rsNs2hhzYgTWL9kFkSEcW1ZthClyK3YfOAcJ8RWRVI7bJ//DpsVzEZUQgQPLVzk+wL2QyOw4t2Y1Grw4BY89+QIef/9HKC8vx5GrDs8n7r+yd7ejxVUEk+EO4i02yLK0wYp9K6Hr4DHo/cLnGN5RjYNHE0BXeilLUAF27UYA+W47Qgsxl+HA7mG4GFGBiE4FEZuOvo1kKy5StXRgjhTlAtNJoaps+TWHw+FwSp+DZy7h6Plwx1HxUixikTYZ164SwprqchJSLgAjerbH/54fjneIGBzYpTWuXL+FG3fiMbJXB9Ycl5Wh3duymcmdzxKRP1dPnkLlxk0gMRlgtZjgW60lGretB7FdgitbfsO2I3dRpXYVXF79A3ZeSmFNiUkRJ7BqxlLIK1bBjT1/4eS1OMi9K6B506pELNVG09bNYU+OwLXrsazGzXhhDlasPISAqqG4vPxvnIyMYu93N+x2Kbz8JUi4dgN6ugKNWI3hb3+KeoHCYKOqTZpBd3Un2OI0YhkyLm5CcKuOUOWY7Jz6u92SgaRkHXz9lPc1+5cFbDYxrt/yR83qCcQ9+ft+KtRqV49HSHAqVm9uygo4dECKc/BKcVWx0mgecyuA9V/UqLMUhjgcDofDyQe0m1NOzVRcFItYpE14I3t3cBw9mD9XbsWuY+dZBp2clu44mwk9f+NuAuqHVmFN2CJYYTLYoVAp7tVc2jVV0GPIaPh438Hx3Tcx4p1X0bT9IAwaOwrnlqxGhkwK2l+07YS30KE7Eai9aiIqKg1StQ+qVAqA2CsYVapVytQFIjPObD2F2v2eQ/vOPTH8+aGQsRVb3A+b2YT6o76A9ehM/PHF+9iz/yx8yleHt0oIWlNQezQi/nLTaIJMnoHTOy6gXaNA6LO0ftriz2H6hxMx7YMJOJnRBn1bBMBSRvttR10Pgk4nY03K+amx8/fVYXCvC1iztRnMFsHPaN9bo4nWLlpInCi+hGixipGapkRQ4P3xnsPhcDicrORn+hxny6yrKRaxSCdOPnIue9VoXkO+JzzWFx+MHYnrd+LYkO+c2IjK23zgJM6FX2M1fk6y1XyJxEQIySE23kWq2BchxK/sdisUXv9v785jo6jiOIB/d/Zq2R67gBZkgyCJSYPxABtRNApRFGIIHsHERAwxHjExxjMmamI8SIzXH8YjJgIewTNq1dQbtSinaDlaESuKwdbSpcK2W7q7szu+35uZ0q4stNqlW/v9JA0zs9vNzjDd+e57894vqrbtwcGU/XsyGbP8XiAYhJkb/vo1RGUQ7zQRqoyozeoBoyCHacj4yyZhyQNP48rFC5Fseh0vPLUSB7121ZFkN3DKnBlY920rjLYGNHVGUVXiR792xfA0XH7DnbjihtsxFZvw1dYYfIO+AbQ4SHf09p9O0HWYoxP3q/Mn/35ICb4FcxvR0laJpp+rdGufMGVUvNuyWGCt7RUqjloYF0n0fvkhIiLqS1oRn32jDjc9/Jz989CzemBlqCSol93tdz+5Ul3bhr61pyApSLqM69ZsxobtO7GnLYYHn38dz735EW5/fDm+/m6786xDpKTf7tZ2dTDstyPz48k9Yy6pruE+ZsGH8nAAiXiiN8N59jXipScfQdwMwpsx0TssQV30LQR7nzcYEpayTldtMccmwzqAxvrV6EoamFh9NuZdvwyRRD0afrK7NrPSTT/tQnTUf4CGrVtQOmMRSn39J9s2/KWoip6IqhOnY+ZFs9Cowrn6CuM8OvLEEyVoaIxi1hm/IVJx0Nn6T4su3oqyUBKras/sDYrCNLPq/Mvoco6FbuGXl2/ZW4nQmJR6L+yOJiKiw5MBvzIQWP84ZWjlWi7L7naZ8q0QChIWhQRGGanzxMu16Ih36eZTGR1dp4JIT06r3luffqPnVXT73j+s/w61X27Qy31bE4XMyzd1ziVoXb8G3cEy+AKl+PPnjYj9FYZ3TDUmh9uw4fcMAiVlSLSshzW1BmFjsCNOg5g0pQStu39VBz4AM9aGtNwsWYSMYClaVr+Ctc0HdLUQw5tGOqm2+w6932BkAqb5d+DzumactWCGzJ7Tn9o3ry8Af8kYxJub4B97vHrOCO2HVgy1g3taw/jl93GYe85ORMLd6vw6dDxkeeGF2zElug+r3qtRXyb676tMoJ0y3ZbFAqdFJZ32Ym+sDOGK7sPevyiNvNL6SERENBwKmoDkMps7UEIqXHTEO501ezSPtBrKc7/etE2FxI3YubsFu/5o04Hx/a829u+DlxBTtRAXzw5g+T03Y+Wy2/D+l3sw/+br4E9mcM7V16L5xduw4tE78M7Hf2Lxkrly9UdGXfftex7VS2RSSJvOhJWWjHo19ZuVMnfy/mB5UH3ZjfDueAPPLLsXr9Vtgd9fnGHRTJXg/FtuRXvtI/q9rnjoLpScdg1qTjbUfiZ1BRHLU47ZcyYhWzkNp1ao4JxV+5iyQ4nsc3bvNrzyxH1Y8eD1+LAhhEULT4WZHrlh0bV522TsaK7C/AsacV7NLzhpcgzTT27F0sXrVChLYvmbs9CVsL+d9SVhUVd3SR+7KYRk3sWO/SGE1PuqKO9BwJ9R530GQb+pvgBkGRWJiGjYDGkFl4GKThiP6ilRHd42NzUf9l7Fo/J4dPe0bnPJ9q89bXh9upWy73bD61chSQUj2VvDBy9UgJQVjxdew7L7+A2ZesdZVpdnj3qeBFl/7As89vR63HL/3fq1jmY4Krh4eksqWshmTPv+N9lPT9beH72fcp+eej/SkqhWMtLNrrbLhNPuSZB7LAvtaBVc/is5DqHSFGafuQvjxyXUeWFh648nYEtTVB2Dw++n1OKUqZ3kGH30zfcDuql4qEhDugRGOSdlAEwq5esdeMMKLgPHCi6DwwouA8cKLgPHCi4Dd6QKLkOlaCq4DJRMk/PJ2h/w2bqGfxcUhUoBEnbkZMz9g5WwlLs9m3GCol5Rj7srltTsdZ6ngpK97IEvthqrnnkejd+vwbsvvY3wSTPt5xQpCXmyz3JMdFAUsp/uvun9dIKrOhF1UNTLGf1HbP/uP4/lSCfhq7sngE/qq/Fa7Uy8+m4Ntu2YlDcoCvueRVPfs3isyf9dVyKo52FMdAd6gyIREdFwGZYrkbT6uaXQipMKohPm4YJZUTRvVt+4qxfjqiULnMdoJJJR0vpfj6VbF49E37OYllsSZKhUsZ6jRERExwabLfKwzAwmnjEfly69FXPnnYtAJuk8Qv93MrenO88isyIREY12DItEOdyWxULVhiYiIhpJGBaJckgFF6lt3qNHjDMuEhHR6MawSJTDzEptaFOXrWRWJCKi0Y5hkSiHrg0tA1xS7IYmIiJiWCTKIVMM6ZbFPiUniYiIRiuGRaIcMhra7YZ2S1ASERGNVgyLRDl0y2LK7oYmIiIa7RgWiXLIlN3uDxER0Wg3qNrQU08/C6HySmcL5ZNOJdHd1YnKscepNUaOI7EsC/v3tWPscVV6mfKTLvGO9jZExh/vbKG81LE6oM4r+bzy+f3ORsqnK74fhuHFmLJyZwvlk0r24GB3ApWR8WqNn1lHIp/p8ncY4ef7UR2Lz/dEZxyxXU3O2uBqQw8qLA70RYmIiIioeA0m17EbmoiIiIjyYlgkIiIiorwYFomIiIgoL4ZFIiIiIsqLYZGIiIiI8mJYJCIiIqK8GBaJiIiIKC+GRSIiIiLKA/gbuN8MeAjfwQgAAAAASUVORK5CYII=;" vertex="1" parent="1">
          <mxGeometry x="340" y="126" width="651" height="610" as="geometry" />
        </mxCell>
        <mxCell id="bKI6WgCUOqGUG0Ctr6Rf-2" value="" style="rounded=1;whiteSpace=wrap;html=1;shadow=0;sketch=0;fontFamily=Helvetica;fontSize=20;fontColor=#EA5B0C;strokeColor=none;strokeWidth=1;fillColor=#EA5B0C;opacity=50;gradientColor=#FBDECE;gradientDirection=east;" vertex="1" parent="1">
          <mxGeometry x="383" y="120" width="46" height="70" as="geometry" />
        </mxCell>
        <mxCell id="bKI6WgCUOqGUG0Ctr6Rf-3" value="1" style="ellipse;whiteSpace=wrap;html=1;aspect=fixed;gradientColor=#fbdece;strokeColor=none;fontColor=#f7f7f7;fontStyle=1;fontSize=20;fillColor=#EA5B0C;" vertex="1" parent="1">
          <mxGeometry x="375" y="72" width="62" height="62" as="geometry" />
        </mxCell>
        <mxCell id="bKI6WgCUOqGUG0Ctr6Rf-5" value="" style="rounded=1;whiteSpace=wrap;html=1;shadow=1;sketch=0;fontFamily=Helvetica;fontSize=16;fontColor=#009900;strokeColor=none;strokeWidth=2;fillColor=#8DE090;opacity=80;verticalAlign=bottom;fontStyle=1;gradientColor=#00CF00;gradientDirection=radial;arcSize=3;" vertex="1" parent="1">
          <mxGeometry x="344" y="249" width="639" height="484" as="geometry" />
        </mxCell>
        <mxCell id="bKI6WgCUOqGUG0Ctr6Rf-7" value="3" style="shape=offPageConnector;whiteSpace=wrap;html=1;rounded=1;sketch=0;strokeColor=none;fontSize=20;fillColor=#3366FF;gradientColor=#C9D6FF;size=0.29411764705882354;fontColor=#FFFFFF;shadow=1;dashed=0;strokeWidth=3;fontStyle=1;arcSize=21;direction=west;" vertex="1" parent="1">
          <mxGeometry x="413" y="225" width="30" height="76" as="geometry" />
        </mxCell>
        <mxCell id="bKI6WgCUOqGUG0Ctr6Rf-9" value="4" style="shape=offPageConnector;whiteSpace=wrap;html=1;rounded=1;sketch=0;strokeColor=none;fontSize=20;fillColor=#3366FF;gradientColor=#C9D6FF;size=0.29411764705882354;fontColor=#FFFFFF;shadow=1;dashed=0;strokeWidth=3;fontStyle=1;arcSize=21;direction=west;" vertex="1" parent="1">
          <mxGeometry x="458" y="225" width="30" height="76" as="geometry" />
        </mxCell>
        <mxCell id="bKI6WgCUOqGUG0Ctr6Rf-10" value="6" style="shape=offPageConnector;whiteSpace=wrap;html=1;rounded=1;sketch=0;strokeColor=none;fontSize=20;fillColor=#3366FF;gradientColor=#C9D6FF;size=0.29411764705882354;fontColor=#FFFFFF;shadow=1;dashed=0;strokeWidth=3;fontStyle=1;arcSize=21;direction=west;" vertex="1" parent="1">
          <mxGeometry x="550" y="225" width="30" height="76" as="geometry" />
        </mxCell>
        <mxCell id="bKI6WgCUOqGUG0Ctr6Rf-11" value="7" style="shape=offPageConnector;whiteSpace=wrap;html=1;rounded=1;sketch=0;strokeColor=none;fontSize=20;fillColor=#3366FF;gradientColor=#C9D6FF;size=0.29411764705882354;fontColor=#FFFFFF;shadow=1;dashed=0;strokeWidth=3;fontStyle=1;arcSize=21;direction=west;" vertex="1" parent="1">
          <mxGeometry x="598" y="225" width="30" height="76" as="geometry" />
        </mxCell>
        <mxCell id="bKI6WgCUOqGUG0Ctr6Rf-12" value="8" style="shape=offPageConnector;whiteSpace=wrap;html=1;rounded=1;sketch=0;strokeColor=none;fontSize=20;fillColor=#3366FF;gradientColor=#C9D6FF;size=0.29411764705882354;fontColor=#FFFFFF;shadow=1;dashed=0;strokeWidth=3;fontStyle=1;arcSize=21;direction=west;" vertex="1" parent="1">
          <mxGeometry x="644" y="225" width="30" height="76" as="geometry" />
        </mxCell>
        <mxCell id="bKI6WgCUOqGUG0Ctr6Rf-13" value="5" style="shape=offPageConnector;whiteSpace=wrap;html=1;rounded=1;sketch=0;strokeColor=none;fontSize=20;fillColor=#3366FF;gradientColor=#C9D6FF;size=0.29411764705882354;fontColor=#FFFFFF;shadow=1;dashed=0;strokeWidth=3;fontStyle=1;arcSize=21;direction=west;" vertex="1" parent="1">
          <mxGeometry x="505" y="225" width="30" height="76" as="geometry" />
        </mxCell>
        <mxCell id="bKI6WgCUOqGUG0Ctr6Rf-14" value="2" style="ellipse;whiteSpace=wrap;html=1;aspect=fixed;gradientColor=#fbdece;strokeColor=none;fontColor=#f7f7f7;fontStyle=1;fontSize=20;fillColor=#EA5B0C;" vertex="1" parent="1">
          <mxGeometry x="351" y="221" width="62" height="62" as="geometry" />
        </mxCell>
      </root>
    </mxGraphModel>
  </diagram>
</mxfile>
